<svg xmlns="http://www.w3.org/2000/svg" viewBox="0 0 441.84 354.25"><defs><style>.cls-1,.cls-2,.cls-3,.cls-5{fill:none;}.cls-1,.cls-2{stroke:#000;}.cls-1,.cls-2,.cls-3,.cls-4,.cls-5{stroke-miterlimit:10;}.cls-1{stroke-width:2px;}.cls-3,.cls-4{stroke:#ef3c4f;}.cls-3{stroke-width:3px;}.cls-4{fill:#ef3a4e;}.cls-5{stroke:#231f20;}</style></defs><g id="Layer_2" data-name="Layer 2"><g id="Layer_11" data-name="Layer 11"><path class="cls-1" d="M33.08,286.61c15.64-12.47,23.41-13,27.62-10.8S66,283.35,70,283.73c4.55.43,8.89-5.93,11.8-11.24"/><path class="cls-1" d="M25.37,260.08,52.25,248"/><polyline class="cls-1" points="45.21 241.7 51.15 228.3 70.84 219.51"/><line class="cls-1" x1="0.85" y1="276.63" x2="43.5" y2="208.42"/><line class="cls-1" x1="6.03" y1="285.8" x2="61.74" y2="315.71"/><line class="cls-1" x1="79.68" y1="308.33" x2="117.74" y2="247.39"/><line class="cls-1" x1="58.44" y1="204.1" x2="117.44" y2="234.71"/><polyline class="cls-1" points="293.01 240.63 321.54 260.68 306.55 295.13"/><polyline class="cls-1" points="275.87 246.53 262.95 275.07 282.09 298.07"/><polyline class="cls-1" points="201.83 263.77 226.18 292.37 208.25 319.07"/><polyline class="cls-1" points="184.76 269.09 164.91 308.51 179.93 329.9"/><line class="cls-1" x1="121" y1="304.17" x2="133.14" y2="328.38"/><line class="cls-1" x1="153.32" y1="313.04" x2="149.74" y2="324.13"/><line class="cls-1" x1="102.51" y1="291.9" x2="132.95" y2="307.17"/><line class="cls-1" x1="142.08" y1="310.61" x2="164.91" y2="308.51"/><line class="cls-1" x1="226.18" y1="292.37" x2="262.95" y2="275.07"/><line class="cls-1" x1="182.54" y1="333.22" x2="178.13" y2="348.2"/><line class="cls-1" x1="203.78" y1="326.3" x2="218.98" y2="334.74"/><line class="cls-1" x1="188.79" y1="333.8" x2="193.66" y2="348.52"/><line class="cls-1" x1="196.88" y1="330.77" x2="207.86" y2="344.56"/><line class="cls-1" x1="134.89" y1="331.45" x2="131.45" y2="344.15"/><line class="cls-1" x1="139.73" y1="330.76" x2="144.64" y2="343.91"/><line class="cls-1" x1="149.68" y1="327.92" x2="163.9" y2="331.81"/><line class="cls-1" x1="144.98" y1="331.29" x2="152.14" y2="340.74"/><line class="cls-1" x1="284.39" y1="300.73" x2="279.19" y2="319.11"/><line class="cls-1" x1="304.74" y1="298.03" x2="316.75" y2="309.71"/><line class="cls-1" x1="291.93" y1="302.24" x2="288.76" y2="318.55"/><line class="cls-1" x1="297.95" y1="302.71" x2="302.7" y2="317.08"/><line class="cls-1" x1="251.68" y1="286.21" x2="249.16" y2="298.2"/><line class="cls-1" x1="258.09" y1="284.98" x2="259.37" y2="297.23"/><line class="cls-1" x1="262.87" y1="284.71" x2="269.57" y2="295.68"/><path class="cls-2" d="M193.53,211.13q18.66-20.06,21.4-18.08,1.94,1.39-4,13.69"/><path class="cls-2" d="M224.6,202.56a49.62,49.62,0,0,1,13.13-12.88c5.61-3.72,14.48-7.89,16.14-5.83.58.72.94,3-6.88,12.48"/><path class="cls-2" d="M261.11,191.69a33.36,33.36,0,0,1,11.07-10.38c4.47-2.54,10.28-4.38,11.07-3.12.36.57-.46,1.55-4,6.4-1.78,2.48-3.2,4.48-4.05,5.71"/><path class="cls-2" d="M303.94,169.6a24.6,24.6,0,0,1-1-10.71c1.22-9.1,7.86-17.29,10.5-16.39,1.17.4,2.11,2.81,1.33,11.2"/><path class="cls-2" d="M289.89,186.69a21.92,21.92,0,0,1-1.62-10.47c.61-6.09,4-12.24,5.81-11.89.59.12,2.23,1.18,1.79,14"/><path class="cls-2" d="M131.69,226.25a29,29,0,0,1,10.36-12.45c6.41-4.2,15.39-6.07,16.74-3.74.43.74.81,3.12-8.41,11.51"/><path class="cls-2" d="M166.51,218a33.44,33.44,0,0,1,9.26-12c4-3.22,9.45-6,10.43-4.86.45.51-.21,1.61-2.88,7-1.37,2.72-2.44,4.93-3.09,6.28"/><path class="cls-2" d="M60.9,200.46a23.7,23.7,0,0,1,3.92-16.72c4-5.6,11.35-10.06,13.44-8.36,1.61,1.32.73,6.82-9.33,24.46"/><path class="cls-2" d="M78.24,201.2a38.91,38.91,0,0,1,17.47-4.8c6.09-.16,15.35,1.11,15.75,3.95.26,1.83-3.08,4.93-19.74,10.48"/><path class="cls-2" d="M99,214.64a20.07,20.07,0,0,1,13.32.86c5.73,2.6,10.88,8.65,9.48,11.38-1.27,2.49-7.69,1.66-10.36,1.21"/><path class="cls-2" d="M321.17,145.79A44,44,0,0,1,325,127.52c.46-1,4.14-9.12,6.41-8.56,2,.5,1.9,7.71,1.84,9.64"/><path class="cls-2" d="M339,122.22a32.12,32.12,0,0,1-.43-12.85c1.6-9.18,7.43-17.77,9.77-17.05,1.17.36,2,3.19.81,14"/><path class="cls-2" d="M357.57,96.68a16.9,16.9,0,0,1-1.06-11.29c2.11-7.51,9.9-11.92,11.12-10.92,1.45,1.19-5.16,10.79-3.42,12.1.41.3,1.11,0,1.51-.14"/><polyline class="cls-1" points="125.27 233.4 294.63 188.74 366.09 90.44 321.54 260.68"/><path class="cls-2" d="M280.09,142.79a22.48,22.48,0,0,1,.34-13.75,23,23,0,0,1,11.36-12.6"/><path class="cls-2" d="M270.57,136.53a30.52,30.52,0,0,1,16.09-28.46"/><path class="cls-2" d="M373.66,147.2a22.39,22.39,0,0,1,3.3,13.34,22.9,22.9,0,0,1-7.62,15.15"/><path class="cls-2" d="M384.49,150.71a30.53,30.53,0,0,1-8,31.71"/><path class="cls-3" d="M79.94,201.08a13.62,13.62,0,0,0,24.81,5"/><path class="cls-3" d="M69.69,215.54c.44,0,7.71.38,11.31,6.61a13.6,13.6,0,0,1-1.3,15.2"/><path class="cls-3" d="M107.87,218.57a14.88,14.88,0,0,0-13.33,7.73c-3.55,6.62-.34,13.17,0,13.75"/><path class="cls-4" d="M394.48,20.24a8.9,8.9,0,0,0,1.59-5.58,8.89,8.89,0,0,0-1.78-4.73,10.67,10.67,0,0,1,6.19-1.06,11,11,0,0,1,7.16,4.4,8.13,8.13,0,0,0-3.6,5.06,8.17,8.17,0,0,0,1.48,6.51,12.29,12.29,0,0,0-11-4.6Z"/><path class="cls-4" d="M324,60a8.82,8.82,0,0,0-5.33-2.28,8.73,8.73,0,0,0-4.92,1.16,10.55,10.55,0,0,1-.27-6.28A10.9,10.9,0,0,1,318.8,46a8.06,8.06,0,0,0,4.55,4.21,8.18,8.18,0,0,0,6.65-.64,12.49,12.49,0,0,0-4.69,5.1A12.35,12.35,0,0,0,324,60Z"/><path class="cls-4" d="M377.94,61.79A4.65,4.65,0,0,0,379.35,57a4.43,4.43,0,0,0-2.07-2.49,13.45,13.45,0,0,0,5.89.72,13.68,13.68,0,0,0,7.54-3.36,8.63,8.63,0,0,0,1.1,9.39,15.1,15.1,0,0,0-6-1.45A15.27,15.27,0,0,0,377.94,61.79Z"/><path class="cls-4" d="M339.7,95.23l15.3,6.33a10.92,10.92,0,0,1-.75-6.61,11.49,11.49,0,0,1,5.82-7.49A16,16,0,0,1,353,84.7a16.35,16.35,0,0,1-6.2-9.16,18.7,18.7,0,0,1-7.11,19.69Z"/><path class="cls-4" d="M346.53,36.12a28.37,28.37,0,0,0,13.07,7,9.64,9.64,0,0,0-5.24,5.61,9.51,9.51,0,0,0,.29,6.62L346,52.78c2.21-1.15,4.69-2.86,4.7-5a3.79,3.79,0,0,0-.93-2.28C348.51,43.79,347.11,40.94,346.53,36.12Z"/><path class="cls-4" d="M401.4,67.45a5.73,5.73,0,0,0,5.68,2.32,6.09,6.09,0,0,0,4.26-3.6,7.88,7.88,0,0,0,1.1,10.76,29.58,29.58,0,0,1-2.9,6.64,28.66,28.66,0,0,1-2.88,4L400,82.89a12.82,12.82,0,0,0,3.44-8.2A12.61,12.61,0,0,0,401.4,67.45Z"/><path class="cls-4" d="M341.3,77.84a4.66,4.66,0,0,0-4.5-2.09,4.47,4.47,0,0,0-2.76,1.7,13.34,13.34,0,0,0-.67-13.68,8.59,8.59,0,0,0,9.45.28,15,15,0,0,0-2.3,5.72A15.34,15.34,0,0,0,341.3,77.84Z"/><path class="cls-4" d="M373.92,82.6a4.67,4.67,0,0,0,4.57-1.95,4.5,4.5,0,0,0,.59-3.18,13.47,13.47,0,0,0,3.2,5,13.67,13.67,0,0,0,7.4,3.67,8.77,8.77,0,0,0-4.5,2.67,8.63,8.63,0,0,0-2,4.16,15,15,0,0,0-9.23-10.36Z"/><polygon class="cls-4" points="376.97 36.05 382.5 0.08 383.35 34.41 376.97 36.05"/><polygon class="cls-4" points="410.02 43.28 439.19 39.35 411.91 54.07 410.02 43.28"/><polygon class="cls-4" points="325.57 73.23 306.4 96.91 328.39 81.87 325.57 73.23"/><polygon class="cls-4" points="320.53 17.29 334.5 42.39 336 37.45 320.53 17.29"/><polygon class="cls-4" points="375.65 105.85 368.39 129.55 368.93 104.5 375.65 105.85"/><path class="cls-5" d="M347.71,320.25c1.07,25.93,4.61,32.85,8.07,33.46,8.58,1.51,13.67-36.17,38.82-44.63,17.75-6,40.81,4.2,41.29,12.5.76,12.84-52,29.73-56.36,22.43-1.9-3.16,5.13-11.14,14.53-19.87"/></g></g></svg>