<svg xmlns="http://www.w3.org/2000/svg" viewBox="0 0 444.41 294.49"><defs><style>.cls-1,.cls-2,.cls-3{fill:none;}.cls-1,.cls-2{stroke:#000;}.cls-1,.cls-2,.cls-3,.cls-4,.cls-5{stroke-miterlimit:10;}.cls-1{stroke-width:2px;}.cls-3,.cls-4{stroke:#ef3c4f;}.cls-3{stroke-width:3px;}.cls-4{fill:#ef3a4e;}.cls-5{fill:#f0567a;stroke:#f0567b;}.cls-6{font-size:50px;fill:#231f20;font-family:MyriadPro-Regular, Myriad Pro;}</style></defs><g id="Layer_2" data-name="Layer 2"><g id="Layer_10" data-name="Layer 10"><path class="cls-1" d="M22.42,104.68c20.25-.73,26.89,3.51,29,7.84s-.26,9.3,2.76,12c3.45,3.1,10.81.53,16.37-2"/><path class="cls-1" d="M32.14,78.45,61.28,84.8"/><polyline class="cls-1" points="59.35 75.44 72.25 68.11 93.58 72.81"/><line class="cls-1" x1="2.21" y1="77.14" x2="78" y2="47.33"/><line class="cls-1" x1="0.9" y1="87.72" x2="28.23" y2="145.63"/><line class="cls-1" x1="47.28" y1="150.42" x2="114.95" y2="123.75"/><line class="cls-1" x1="92.77" y1="52.8" x2="122.34" y2="113.25"/><polyline class="cls-1" points="261.67 223.82 272.81 257.31 239.86 276.32"/><polyline class="cls-1" points="244.16 218.29 216.46 233.74 218.18 263.98"/><polyline class="cls-1" points="173.52 187.73 176.11 225.67 145.44 236.6"/><polyline class="cls-1" points="156.43 181.78 116.53 201.9 115.87 228.36"/><line class="cls-1" x1="83.41" y1="171.92" x2="78.7" y2="198.94"/><line class="cls-1" x1="104.37" y1="198.61" x2="94.77" y2="205.48"/><line class="cls-1" x1="75.75" y1="150.8" x2="91.33" y2="181.57"/><line class="cls-1" x1="96.68" y1="189.86" x2="116.53" y2="201.9"/><line class="cls-1" x1="176.11" y1="225.67" x2="216.46" y2="233.74"/><line class="cls-1" x1="115.99" y1="232.63" x2="103.38" y2="242.16"/><line class="cls-1" x1="137.45" y1="239.79" x2="144.73" y2="255.81"/><line class="cls-1" x1="120.73" y1="236.87" x2="115.83" y2="251.78"/><line class="cls-1" x1="129.14" y1="239.27" x2="129.77" y2="257.11"/><line class="cls-1" x1="78.28" y1="202.49" x2="67.83" y2="210.75"/><line class="cls-1" x1="82.63" y1="204.84" x2="78.71" y2="218.5"/><line class="cls-1" x1="92.44" y1="208.53" x2="101.67" y2="220.26"/><line class="cls-1" x1="86.59" y1="208.44" x2="86.72" y2="220.44"/><line class="cls-1" x1="218.45" y1="267.53" x2="203.15" y2="279.36"/><line class="cls-1" x1="236.64" y1="277.59" x2="239.38" y2="294.33"/><line class="cls-1" x1="223.68" y1="273.3" x2="211.27" y2="284.67"/><line class="cls-1" x1="228.3" y1="277.31" x2="223.5" y2="291.86"/><line class="cls-1" x1="200.57" y1="236.02" x2="191.31" y2="244.26"/><line class="cls-1" x1="206.53" y1="238.88" x2="200.2" y2="249.62"/><line class="cls-1" x1="210.59" y1="241.53" x2="209.44" y2="254.49"/><path class="cls-2" d="M198.47,139.89q27.27-5.08,28.3-1.82.73,2.3-11.5,8.72"/><path class="cls-2" d="M228.91,151.63a50.2,50.2,0,0,1,18.46-2.58c6.79.35,16.53,2.31,16.64,5,0,.93-1.06,3-13.12,6"/><path class="cls-2" d="M265.18,164.77A33.78,33.78,0,0,1,280.44,163c5.17.63,11,2.63,10.89,4.13-.05.68-1.31,1-7.08,2.82-2.94.94-5.3,1.72-6.74,2.2"/><path class="cls-2" d="M318.09,232.12c9.42-5,12.91-11.15,14.29-14.35,1-2.33,2.76-7.38,1.28-8.39-1.82-1.25-7.58,4.31-9,5.72"/><path class="cls-2" d="M324.43,207.6a24.74,24.74,0,0,0,6.88-8.45c4.08-8.35,3.08-19,.36-19.7-1.22-.32-3.36,1.18-7.42,8.69"/><path class="cls-2" d="M324.29,178a22.06,22.06,0,0,0,7.24-7.91c2.91-5.47,3.5-12.56,1.79-13.27-.57-.24-2.55-.26-9.35,10.76"/><path class="cls-2" d="M139,115A29.27,29.27,0,0,1,155,111.06c7.76.44,16.18,4.33,15.88,7-.09.85-1.21,3-13.77,4.3"/><path class="cls-2" d="M172.37,129.16a33.85,33.85,0,0,1,14.78-4.2c5.2-.21,11.28.83,11.42,2.33.06.68-1.15,1.18-6.54,3.92-2.75,1.4-5,2.55-6.3,3.25"/><path class="cls-2" d="M97,51.32a24,24,0,0,1,13.26-11.25c6.65-2.13,15.29-1.35,16,1.3.52,2-3.51,6-22.33,14.28"/><path class="cls-2" d="M110.62,62.36A39.61,39.61,0,0,1,127.73,69c5.06,3.54,11.83,10.15,10.44,12.7-.89,1.65-5.47,2.17-22.38-3.35"/><path class="cls-2" d="M119.44,85.83a20.37,20.37,0,0,1,10.33,8.71c3.09,5.57,3.64,13.6.86,15-2.53,1.26-7.26-3.28-9.16-5.25"/><path class="cls-2" d="M322.1,157.23a44.52,44.52,0,0,0,8.54-16.85c.28-1.09,2.51-9.82.36-10.82-1.93-.9-6.38,4.89-7.56,6.45"/><path class="cls-2" d="M321.57,125.07a32.75,32.75,0,0,0,7.57-10.59c3.8-8.63,3.72-19.14,1.34-19.85C329.3,94.28,327,96.17,322,106"/><path class="cls-2" d="M322.31,93.76a17.22,17.22,0,0,0,6.4-9.54c1.75-7.7-3-15.39-4.62-15.09-1.86.36-.62,12.09-2.8,12.41-.51.08-1-.5-1.27-.85"/><line class="cls-1" x1="129.51" y1="116.9" x2="294.23" y2="182.56"/><polyline class="cls-1" points="277.93 247.32 316.19 90.53 321.6 229.12 272.81 257.31"/><path class="cls-2" d="M291.85,80.83a22.77,22.77,0,0,1,.62-13.91,23.24,23.24,0,0,1,11.75-12.53"/><path class="cls-2" d="M282.34,74.3a30.94,30.94,0,0,1,16.85-28.49"/><path class="cls-2" d="M343.43,235.44a22.72,22.72,0,0,1-3.73,13.41,23.22,23.22,0,0,1-14.26,9.57"/><path class="cls-2" d="M351.23,243.93a30.92,30.92,0,0,1-22.83,24"/><path class="cls-3" d="M107.43,60a13.79,13.79,0,0,0,17.19,19"/><path class="cls-3" d="M90.38,65.56c.35.27,6.05,4.94,5.23,12.18A13.81,13.81,0,0,1,85.39,89.33"/><path class="cls-3" d="M119.63,91a15,15,0,0,0-15.51-1.74c-6.88,3.25-8.2,10.51-8.31,11.16"/><path class="cls-4" d="M391.49,22.13c-.39-1.36-4.4-14.72-17.53-19.25a25.89,25.89,0,0,0-19.25.86c-9.65,4.6-12.72,14-13.51,16.38-5.35,16.34,6.46,31,7.47,32.18A160.89,160.89,0,0,0,370.8,71.84a160.16,160.16,0,0,0,18.68,11.79c-.86,2.77-1.73,5.55-2.59,8.33l10.63.29-2.87-8.34A163.72,163.72,0,0,0,413,72.13a164.58,164.58,0,0,0,19.54-16.95c1.94-2,12.61-13.21,11.21-29-.31-3.52-1.16-13.07-9.2-19.83-9.76-8.21-21.95-5.43-23-5.17C401.72,3.58,394,11.74,391.49,22.13Z"/><ellipse class="cls-5" cx="421.19" cy="31.47" rx="11.95" ry="16.49"/><path class="cls-2" d="M396.49,84.33l-9-.61a58.71,58.71,0,0,0-4.37,18.5c-1.57,23.71,12.88,35.85,17.07,56.49,2.16,10.62,2.33,27.11-9.55,50"/><text class="cls-6" transform="translate(379.11 67.61)">1</text></g></g></svg>