<svg xmlns="http://www.w3.org/2000/svg" viewBox="0 0 398.47 449.55"><defs><style>.cls-1,.cls-2{fill:none;stroke:#000;}.cls-1,.cls-2,.cls-3,.cls-4{stroke-miterlimit:10;}.cls-1{stroke-width:2px;}.cls-3{fill:#ef3a4e;stroke:#ef3c4f;}.cls-4{fill:#f0567a;stroke:#f0567b;}.cls-5{font-size:50px;fill:#231f20;font-family:MyriadPro-Regular, Myriad Pro;}</style></defs><g id="Layer_2" data-name="Layer 2"><g id="Layer_1-2" data-name="Layer 1"><path class="cls-1" d="M308.52,150.23A171.13,171.13,0,0,0,254.88,132a168.45,168.45,0,0,0-27.36-2.15"/><line class="cls-1" x1="280.63" y1="238.75" x2="203.92" y2="226.41"/><line class="cls-1" x1="189.97" y1="204.41" x2="218.4" y2="138.43"/><path class="cls-1" d="M291.36,232.31c19.79-51.16,22.4-64,20.38-64.91-2.54-1.18-10.24,17.41-30,31.65-14.34,10.31-29.46,14.35-40.77,16.09"/><path class="cls-1" d="M226.39,188.22c-8.91,4.18-13.27,10.21-12,13.25,1,2.58,6.35,3.56,12.25,2.9"/><path class="cls-1" d="M245.16,172.39a28,28,0,0,1,7.84-9.31c10.83-8.19,24-5.19,26.23-4.66"/><line class="cls-1" x1="183.15" y1="217.14" x2="180.15" y2="297.14"/><polyline class="cls-1" points="238.33 242.81 366.24 340.77 384.21 380.13 373.08 423.77 195.98 425.91 343.14 369.44"/><polyline class="cls-1" points="293.52 327.94 299.5 361.74 317.04 377.99"/><polyline class="cls-1" points="299.5 361.74 275.98 378.42 277.97 388.83"/><polyline class="cls-1" points="277.69 318.96 258.44 341.63 261.86 369.01 247.73 382.49"/><polyline class="cls-1" points="231.49 300.99 238.76 329.65 212.24 354.46"/><polyline class="cls-1" points="210.1 284.73 177.58 313.4 184.43 345.91"/><line class="cls-1" x1="258.44" y1="350.19" x2="229.77" y2="337.78"/><polyline class="cls-1" points="181.86 273.61 154.48 291.15 160.47 323.24"/><line class="cls-1" x1="186.51" y1="349.26" x2="173.07" y2="361.58"/><line class="cls-1" x1="190.61" y1="354.12" x2="183.89" y2="367.18"/><line class="cls-1" x1="199.2" y1="355.98" x2="198.08" y2="369.42"/><line class="cls-1" x1="207.04" y1="355.98" x2="210.77" y2="372.04"/><line class="cls-1" x1="160.75" y1="326.49" x2="148.06" y2="336.2"/><line class="cls-1" x1="166.35" y1="327.98" x2="160.38" y2="343.29"/><line class="cls-1" x1="172.69" y1="327.24" x2="174.93" y2="342.54"/><line class="cls-1" x1="268.26" y1="374.27" x2="257.81" y2="385.1"/><line class="cls-1" x1="272.37" y1="379.5" x2="267.51" y2="391.45"/><path class="cls-2" d="M227.23,128.5c-1-2.6-4.88-11.81-14.79-16.61-8.05-3.9-19.14-4.45-20.47-1.22-1,2.5,3.38,8.23,25.73,22.09"/><path class="cls-2" d="M201.33,163a53.67,53.67,0,0,0-20.57,11.43C170.21,183.91,163,198.48,166,201.3c1.57,1.48,6.68.45,22.6-11.17"/><path class="cls-2" d="M213,137.06a50.36,50.36,0,0,0-22.85,5.33c-7,3.58-16.79,10.74-15.49,14.22.83,2.24,6.55,3.72,29-.25"/><path class="cls-2" d="M184.57,199q-21,29-17,33,1.77,1.77,8.38-1.27"/><path class="cls-2" d="M257.08,249.36q35.16,4.72,35.12,9.1,0,3.09-17.47,6"/><path class="cls-2" d="M284.38,272.29A64.05,64.05,0,0,1,308,275.2c8.28,2.68,19.67,8.31,18.93,11.65-.27,1.17-2.32,3.4-18.2,3.09"/><path class="cls-2" d="M318.77,298.68a43.1,43.1,0,0,1,19.65.36c6.44,1.68,13.5,5.22,13.1,7.1-.18.85-1.83,1-9.46,2.36-3.89.69-7,1.28-8.92,1.64"/><path class="cls-2" d="M345.33,318.69c13.62-.69,21.5,3.77,25.11,6.37,2.64,1.9,7.88,6.29,6.92,8.37-1.18,2.57-11.15.24-13.65-.36"/><path class="cls-2" d="M374.2,347a31.81,31.81,0,0,1,12.4,6.38c9.06,7.69,13.33,20.67,10.51,22.91-1.26,1-4.54.33-13.14-6.39"/><path class="cls-2" d="M388.66,383.6a28.32,28.32,0,0,1,6.95,11.83c2.17,7.61,1,16.65-1.32,17.08-.76.14-3.25-.35-8.82-16"/><path class="cls-2" d="M382.77,410.26a18.42,18.42,0,0,1,4.61,11.41c.14,8.51-6.59,16.14-8.78,15.35-.91-.33-1.72-2.38-.44-11.19"/><path class="cls-2" d="M367.12,428.65a11.11,11.11,0,0,1-.44,7c-3.82,8.59-19.67,7.62-20.12,6-.36-1.28,8.63-3.1,9.81-9.19a7.89,7.89,0,0,0-.37-4.1"/><path class="cls-2" d="M343.6,430.12a26.68,26.68,0,0,1-4.1,6.58c-5.89,6.93-14.48,9.6-15.28,8.45-.68-1,4.86-4,6-10.69a14.46,14.46,0,0,0-.12-5.34"/><path class="cls-2" d="M318.67,431.43a21.5,21.5,0,0,1-3,6.92c-7,10.38-21.81,11.76-22.54,10.12-.54-1.21,6.72-3.49,10.29-11.54a21.51,21.51,0,0,0,1.78-7.28"/><path class="cls-2" d="M293.07,428.73a19.35,19.35,0,0,1-4.79,10.65c-7.32,7.88-20.16,6.66-20.51,5.23-.38-1.6,14.65-4.69,14.48-9.5-.09-2.41-4-4.22-6.92-5.32"/><path class="cls-2" d="M264.34,429.85c0,1.61-.29,7.87-5,12.07-7.63,6.82-20.35,2.24-20.39.79s12.54-1.68,13.59-6.58a5.3,5.3,0,0,0-.48-3.26,6.23,6.23,0,0,0-3.91-3"/><path class="cls-2" d="M231.47,431c1.15.85,2.64,2.23,2.54,3.8-.43,6.19-25.5,9.68-26,8.06-.4-1.36,16.19-6.12,15.53-9.8-.22-1.3-2.49-2-4.42-2.38"/><path class="cls-2" d="M203.35,430a4.69,4.69,0,0,1,1.71,3.32c0,1.8-1.52,3-2.23,3.64-5.68,4.72-24,3.89-23.94,2.94,0-.74,11.13.63,13.5-4.51a6.68,6.68,0,0,0-.19-5.09"/><path class="cls-3" d="M66.6,28.17C66.1,26.42,61,9.34,44.18,3.54c-2.89-1-13.49-4.2-24.63,1.11C7.21,10.53,3.27,22.54,2.27,25.6c-6.84,20.91,8.26,39.61,9.56,41.17a205.63,205.63,0,0,0,28.3,25A204.68,204.68,0,0,0,64,106.83q-1.66,5.34-3.31,10.66l13.6.37L70.64,107.2A210.2,210.2,0,0,0,94.17,92.13a210.67,210.67,0,0,0,25-21.69c2.48-2.52,16.13-16.9,14.34-37.12C133.1,28.82,132,16.6,121.74,8,109.25-2.54,93.66,1,92.33,1.34,79.68,4.44,69.77,14.87,66.6,28.17Z"/><ellipse class="cls-4" cx="104.59" cy="40.12" rx="15.29" ry="21.1"/><path class="cls-2" d="M73,107.74,61.43,107a75.05,75.05,0,0,0-5.59,23.65c-2,30.33,16.47,45.87,21.83,72.27,2.77,13.59,3,34.68-12.21,63.94"/><text class="cls-5" transform="translate(41.2 70.76)">10</text></g></g></svg>