<svg xmlns="http://www.w3.org/2000/svg" viewBox="0 0 412.75 437.3"><defs><style>.cls-1,.cls-2,.cls-3{fill:none;}.cls-1,.cls-2{stroke:#000;}.cls-1,.cls-2,.cls-3,.cls-4,.cls-5{stroke-miterlimit:10;}.cls-1{stroke-width:2px;}.cls-3,.cls-4{stroke:#ef3c4f;}.cls-3{stroke-width:3px;}.cls-4{fill:#ef3a4e;}.cls-5{fill:#f0567a;stroke:#f0567b;}.cls-6{font-size:50px;fill:#231f20;font-family:MyriadPro-Regular, Myriad Pro;}</style></defs><g id="Layer_2" data-name="Layer 2"><g id="Layer_9" data-name="Layer 9"><line class="cls-1" x1="265.29" y1="112.56" x2="178.78" y2="118.19"/><line class="cls-1" x1="275.84" y1="119.59" x2="263.18" y2="189.22"/><path class="cls-1" d="M174,136.19l-2.55,53.23"/><line class="cls-1" x1="252.79" y1="199.99" x2="192.27" y2="195.61"/><line class="cls-1" x1="212.32" y1="206.19" x2="241.85" y2="245.2"/><line class="cls-1" x1="170.03" y1="193.06" x2="151.43" y2="228.43"/><polyline class="cls-1" points="174.77 253.22 142.68 228.06 117.16 247.02"/><polyline class="cls-1" points="172.58 276.92 142.68 286.76 119.35 262.7"/><polyline class="cls-1" points="230.55 225.88 235.65 221.87 261.54 234.99"/><line class="cls-1" x1="269.19" y1="267.44" x2="245.13" y2="278.37"/><polyline class="cls-1" points="249.51 264.88 233.47 287.13 229.09 341.08 216.69 356.39"/><polyline class="cls-1" points="132.11 346.19 114.61 373.17 19.45 201.08 134.66 331.24 141.59 292.23"/><line class="cls-1" x1="132.48" y1="401.24" x2="114.61" y2="373.17"/><polyline class="cls-1" points="155.44 349.47 168.2 375.35 158 405.98"/><polyline class="cls-1" points="205.39 346.19 233.1 373.89 216.33 412.18"/><polyline class="cls-1" points="194.82 344.36 175.5 377.91 198.1 413.63"/><line class="cls-1" x1="262.89" y1="240.82" x2="283.57" y2="230.01"/><line class="cls-1" x1="266.88" y1="260.8" x2="284.28" y2="272.55"/><line class="cls-1" x1="265" y1="248.58" x2="285.92" y2="241.29"/><line class="cls-1" x1="268.06" y1="253.98" x2="290.86" y2="256.33"/><line class="cls-1" x1="113.39" y1="244.11" x2="97.4" y2="234.94"/><line class="cls-1" x1="116.68" y1="268.32" x2="102.81" y2="279.61"/><line class="cls-1" x1="113.39" y1="251.87" x2="94.82" y2="247.17"/><line class="cls-1" x1="115.5" y1="260.8" x2="96.7" y2="265.03"/><line class="cls-1" x1="218.23" y1="416.41" x2="227.63" y2="430.05"/><line class="cls-1" x1="198.95" y1="415.71" x2="190.96" y2="430.28"/><line class="cls-1" x1="211.64" y1="419.94" x2="216.82" y2="434.75"/><line class="cls-1" x1="206.94" y1="420.41" x2="203.42" y2="437.1"/><line class="cls-1" x1="158.52" y1="411.24" x2="166.98" y2="426.99"/><line class="cls-1" x1="134.78" y1="406.77" x2="121.15" y2="421.35"/><line class="cls-1" x1="150.53" y1="410.54" x2="152.41" y2="427.7"/><line class="cls-1" x1="142.54" y1="409.83" x2="140.42" y2="427.46"/><path class="cls-1" d="M264.3,155.93c-20.08,4.57-25.5,10.48-26.43,15.28s2.69,9.07.43,12.53c-2.58,3.94-10.48,3.35-16.62,2.27"/><path class="cls-1" d="M247.9,132.69l-27,13.86"/><polyline class="cls-1" points="220.37 136.85 205.78 133.02 186.06 143.21"/><path class="cls-2" d="M172.33,117c-1.65-1.48-7.72-6.6-16.48-6.41-7.1.16-15.15,3.78-14.92,6.55.18,2.13,5.36,4.6,26.2,6.32"/><path class="cls-2" d="M162.86,132.19a40,40,0,0,0-14.24,12c-3.69,5.08-8,13.68-5.82,15.67,1.4,1.29,6,.27,20.39-10.65"/><path class="cls-2" d="M162.18,157.67a20.59,20.59,0,0,0-7,11.8c-1.13,6.38,1,14.27,4.14,14.68,2.85.37,5.88-5.56,7.06-8.09"/><path class="cls-2" d="M161.85,194.58a29.8,29.8,0,0,0-15.42,6.32c-6.11,5-10.72,13.24-8.85,15.28.59.65,2.81,1.76,13.9-4.7"/><path class="cls-2" d="M137,288.37c-3.19,1.7-9.39,5.69-11.65,12.88-1.78,5.68-.58,11.67.58,11.83s2.21-5.79,4.95-6a3.57,3.57,0,0,1,2.69,1.57"/><path class="cls-2" d="M83.82,266.43a16.83,16.83,0,0,0,2.4-5.5c2.28-9.68-4.92-19.07-6.28-18.6-1,.34,1.6,5.8-1.16,12.23a17.3,17.3,0,0,1-3.28,5"/><path class="cls-2" d="M67.56,250.14a15.44,15.44,0,0,0,3.62-8.55c.64-8.53-7-15.35-8-14.79s5.18,11.08,2.28,13.58c-1.46,1.25-4.6,0-6.84-1.17"/><path class="cls-2" d="M51,231.06c.93-.89,4.44-4.42,4.35-9.42-.14-8.14-9.69-13.08-10.56-12.32s5.81,8.22,3.52,11.48a4.29,4.29,0,0,1-2.17,1.49,4.94,4.94,0,0,1-3.87-.65"/><path class="cls-2" d="M35,212.05c1.12.2,2.73.33,3.58-.58,3.39-3.59-8.13-20.1-9.34-19.5-1,.5,5.19,12.75,2.69,14.36-.88.56-2.51-.39-3.78-1.3"/><path class="cls-2" d="M18,193.38a3.72,3.72,0,0,0,2.87-.79,4.11,4.11,0,0,0,.91-3.27c-.32-5.86-10.67-16.06-11.22-15.54s6.38,6.14,4.66,10.3a5.24,5.24,0,0,1-3.07,2.64"/><path class="cls-2" d="M99.22,283.53a12.08,12.08,0,0,0,2.4-5.5c1.31-8.85-8.9-16.2-9.7-15.61-.55.39,3.41,4.42,2.26,9.23a9.53,9.53,0,0,1-3.29,5"/><path class="cls-2" d="M115.8,303a11.26,11.26,0,0,0,2.84-5.28c1.86-8.79-9-17-10.07-16.24-.65.44,2.32,3.91,1.47,9.06a12.83,12.83,0,0,1-2,4.9"/><path class="cls-2" d="M275.29,307.78A23.17,23.17,0,0,0,289,304.36a23.62,23.62,0,0,0,10.11-14.24"/><path class="cls-2" d="M283.71,315.94a31.42,31.42,0,0,0,25-22.54"/><path class="cls-2" d="M123.07,197.33a23.16,23.16,0,0,0-13.73,3.42A23.57,23.57,0,0,0,99.23,215"/><path class="cls-2" d="M114.66,189.17a31.44,31.44,0,0,0-25,22.55"/><path class="cls-2" d="M11.21,217.4a23.12,23.12,0,0,0-1,14.12,23.6,23.6,0,0,0,10.37,14"/><path class="cls-2" d="M.84,222.86a31.46,31.46,0,0,0,13.63,30.77"/><path class="cls-3" d="M175.76,120.27a14,14,0,0,1-22.48,13.15"/><path class="cls-3" d="M190.58,130.92c-.43.16-7.38,2.94-8.8,10.22a14,14,0,0,0,6.35,14.36"/><path class="cls-3" d="M154.42,146.65A15.33,15.33,0,0,1,170,149.71c5.67,5.26,4.73,12.71,4.64,13.37"/><path class="cls-4" d="M359,22.5c-.4-1.39-4.48-15-17.83-19.58-2.29-.79-10.72-3.34-19.57.88C311.74,8.47,308.61,18,307.81,20.45c-5.44,16.62,6.57,31.49,7.6,32.73A162.79,162.79,0,0,0,337.91,73a161.73,161.73,0,0,0,19,12l-2.63,8.48,10.81.29-2.92-8.47a168.25,168.25,0,0,0,18.7-12A167.86,167.86,0,0,0,400.73,56.1c2-2,12.82-13.44,11.39-29.51C411.81,23,411,13.3,402.77,6.43,392.85-1.92,380.45.91,379.4,1.17,369.35,3.63,361.46,11.93,359,22.5Z"/><ellipse class="cls-5" cx="389.15" cy="31.99" rx="12.15" ry="16.77"/><path class="cls-2" d="M364,85.74l-9.19-.62a59.54,59.54,0,0,0-4.45,18.81c-1.59,24.1,13.1,36.46,17.36,57.44,2.19,10.8,2.37,27.57-9.71,50.83"/><text class="cls-6" transform="translate(346.53 64.42)">2</text></g></g></svg>