<svg xmlns="http://www.w3.org/2000/svg" viewBox="0 0 414.75 447.96"><defs><style>.cls-1,.cls-2,.cls-3{fill:none;}.cls-1,.cls-2{stroke:#000;}.cls-1,.cls-2,.cls-3,.cls-4,.cls-5{stroke-miterlimit:10;}.cls-1{stroke-width:2px;}.cls-3,.cls-4{stroke:#ef3c4f;}.cls-3{stroke-width:3px;}.cls-4{fill:#ef3a4e;}.cls-5{fill:#f0567a;stroke:#f0567b;}.cls-6{font-size:50px;fill:#231f20;font-family:MyriadPro-Regular, Myriad Pro;}</style></defs><g id="Layer_2" data-name="Layer 2"><g id="Layer_8" data-name="Layer 8"><line class="cls-1" x1="149.46" y1="123.21" x2="235.97" y2="128.84"/><line class="cls-1" x1="138.91" y1="130.25" x2="151.57" y2="199.88"/><path class="cls-1" d="M240.71,146.84l2.55,53.23"/><line class="cls-1" x1="161.96" y1="210.64" x2="222.48" y2="206.27"/><line class="cls-1" x1="202.43" y1="216.84" x2="172.9" y2="255.85"/><line class="cls-1" x1="244.72" y1="203.72" x2="263.31" y2="239.08"/><polyline class="cls-1" points="239.98 263.87 272.06 238.72 297.58 257.68"/><polyline class="cls-1" points="242.17 287.57 272.06 297.42 295.4 273.35"/><polyline class="cls-1" points="184.2 236.53 179.09 232.52 153.21 245.65"/><line class="cls-1" x1="145.55" y1="278.09" x2="169.62" y2="289.03"/><polyline class="cls-1" points="165.24 275.54 181.28 297.78 185.66 351.74 198.05 367.05"/><polyline class="cls-1" points="282.64 356.84 300.14 383.82 395.29 211.74 280.08 341.89 273.16 302.88"/><line class="cls-1" x1="282.27" y1="411.89" x2="300.14" y2="383.82"/><polyline class="cls-1" points="259.3 360.12 246.54 386.01 256.75 416.63"/><polyline class="cls-1" points="209.35 356.84 181.65 384.55 198.42 422.83"/><polyline class="cls-1" points="219.93 355.02 239.25 388.56 216.65 424.29"/><line class="cls-1" x1="151.86" y1="251.48" x2="131.17" y2="240.66"/><line class="cls-1" x1="147.86" y1="271.46" x2="130.47" y2="283.21"/><line class="cls-1" x1="149.74" y1="259.23" x2="128.82" y2="251.95"/><line class="cls-1" x1="146.69" y1="264.64" x2="123.89" y2="266.99"/><line class="cls-1" x1="301.36" y1="254.77" x2="317.34" y2="245.6"/><line class="cls-1" x1="298.07" y1="278.98" x2="311.94" y2="290.26"/><line class="cls-1" x1="301.36" y1="262.52" x2="319.93" y2="257.82"/><line class="cls-1" x1="299.24" y1="271.46" x2="318.05" y2="275.69"/><line class="cls-1" x1="196.52" y1="427.07" x2="187.12" y2="440.7"/><line class="cls-1" x1="215.8" y1="426.36" x2="223.79" y2="440.94"/><line class="cls-1" x1="203.1" y1="430.59" x2="197.93" y2="445.4"/><line class="cls-1" x1="207.8" y1="431.06" x2="211.33" y2="447.75"/><line class="cls-1" x1="256.23" y1="421.9" x2="247.76" y2="437.65"/><line class="cls-1" x1="279.97" y1="417.43" x2="293.6" y2="432"/><line class="cls-1" x1="264.22" y1="421.19" x2="262.34" y2="438.35"/><line class="cls-1" x1="272.21" y1="420.49" x2="274.33" y2="438.12"/><path class="cls-1" d="M150.45,166.58c20.08,4.58,25.5,10.48,26.43,15.29s-2.69,9.07-.43,12.52c2.58,4,10.48,3.35,16.62,2.28"/><path class="cls-1" d="M166.85,143.34l27,13.87"/><polyline class="cls-1" points="194.38 147.5 208.97 143.67 228.69 153.86"/><path class="cls-2" d="M242.42,127.7a24.37,24.37,0,0,1,16.47-6.41c7.1.15,15.16,3.77,14.93,6.54-.18,2.14-5.37,4.6-26.2,6.32"/><path class="cls-2" d="M251.88,142.84a40.14,40.14,0,0,1,14.25,12c3.69,5.08,8,13.67,5.82,15.67-1.41,1.28-6,.26-20.4-10.66"/><path class="cls-2" d="M252.57,168.32a20.63,20.63,0,0,1,7,11.81c1.13,6.38-1,14.27-4.14,14.68-2.86.37-5.89-5.57-7.07-8.09"/><path class="cls-2" d="M252.89,205.23a29.83,29.83,0,0,1,15.43,6.32c6.11,5,10.71,13.24,8.85,15.29-.59.65-2.81,1.76-13.9-4.7"/><path class="cls-2" d="M277.78,299c3.19,1.71,9.39,5.69,11.64,12.89,1.78,5.67.58,11.66-.57,11.83s-2.21-5.8-5-6a3.56,3.56,0,0,0-2.69,1.57"/><path class="cls-2" d="M330.93,277.09a17,17,0,0,1-2.41-5.5c-2.27-9.68,4.93-19.07,6.29-18.61,1,.34-1.61,5.8,1.16,12.24a17.24,17.24,0,0,0,3.28,5"/><path class="cls-2" d="M347.19,260.79a15.4,15.4,0,0,1-3.62-8.55c-.64-8.53,7-15.35,8-14.78s-5.18,11.07-2.28,13.57c1.45,1.25,4.6,0,6.84-1.16"/><path class="cls-2" d="M363.76,241.71c-.93-.88-4.44-4.42-4.35-9.42.14-8.13,9.69-13.07,10.55-12.31s-5.8,8.22-3.51,11.48a4.24,4.24,0,0,0,2.16,1.48,5,5,0,0,0,3.87-.64"/><path class="cls-2" d="M379.76,222.7c-1.11.21-2.72.34-3.58-.57-3.38-3.6,8.14-20.1,9.34-19.5,1,.5-5.18,12.74-2.68,14.35.88.57,2.51-.38,3.78-1.3"/><path class="cls-2" d="M396.75,204a3.72,3.72,0,0,1-2.86-.8A4.11,4.11,0,0,1,393,200c.31-5.85,10.67-16.06,11.22-15.54s-6.38,6.15-4.67,10.31a5.36,5.36,0,0,0,3.08,2.64"/><path class="cls-2" d="M315.53,294.18a12,12,0,0,1-2.41-5.5c-1.3-8.85,8.91-16.19,9.71-15.61.54.4-3.41,4.43-2.26,9.24a9.63,9.63,0,0,0,3.28,5"/><path class="cls-2" d="M299,313.69a11.35,11.35,0,0,1-2.85-5.28c-1.85-8.8,9-17,10.08-16.24.64.43-2.32,3.91-1.47,9.05a12.73,12.73,0,0,0,2,4.91"/><path class="cls-2" d="M139.45,318.44A23.11,23.11,0,0,1,125.72,315a23.59,23.59,0,0,1-10.11-14.23"/><path class="cls-2" d="M131,326.6a31.44,31.44,0,0,1-25-22.55"/><path class="cls-2" d="M291.67,208a23.12,23.12,0,0,1,13.74,3.43,23.63,23.63,0,0,1,10.11,14.23"/><path class="cls-2" d="M300.09,199.82a31.45,31.45,0,0,1,25,22.55"/><path class="cls-2" d="M403.53,228.05a23.19,23.19,0,0,1,1,14.12,23.64,23.64,0,0,1-10.38,14.05"/><path class="cls-2" d="M413.91,233.51a31.44,31.44,0,0,1-13.64,30.78"/><path class="cls-3" d="M239,130.92a14,14,0,0,0,22.48,13.16"/><path class="cls-3" d="M224.17,141.57c.42.17,7.38,2.94,8.8,10.22a14,14,0,0,1-6.35,14.36"/><path class="cls-3" d="M260.33,157.3a15.33,15.33,0,0,0-15.57,3.06c-5.68,5.26-4.74,12.71-4.64,13.38"/><path class="cls-4" d="M53,22.5c-.39-1.39-4.47-15-17.82-19.58-2.3-.79-10.73-3.34-19.58.88C5.83,8.47,2.71,18,1.91,20.45c-5.44,16.62,6.56,31.49,7.6,32.73A163.24,163.24,0,0,0,32,73,161.79,161.79,0,0,0,51,85c-.88,2.83-1.76,5.65-2.63,8.48l10.81.29-2.93-8.47a167.34,167.34,0,0,0,18.7-12A167.86,167.86,0,0,0,94.82,56.1c2-2,12.82-13.44,11.4-29.51C105.9,23,105,13.3,96.87,6.43,87-1.92,74.55.91,73.49,1.17,63.44,3.63,55.56,11.93,53,22.5Z"/><ellipse class="cls-5" cx="83.24" cy="31.99" rx="12.15" ry="16.77"/><path class="cls-2" d="M58.13,85.74l-9.2-.62a59.87,59.87,0,0,0-4.44,18.81c-1.6,24.1,13.09,36.46,17.36,57.44,2.19,10.8,2.37,27.57-9.72,50.83"/><text class="cls-6" transform="translate(40.62 64.42)">3</text></g></g></svg>