<svg xmlns="http://www.w3.org/2000/svg" viewBox="0 0 446.12 349.78"><defs><style>.cls-1,.cls-2{fill:none;stroke:#000;}.cls-1,.cls-2,.cls-3,.cls-4{stroke-miterlimit:10;}.cls-1{stroke-width:2px;}.cls-3{fill:#ef3a4e;stroke:#ef3c4f;}.cls-4{fill:#f0567a;stroke:#f0567b;}.cls-5{font-size:50px;fill:#231f20;font-family:MyriadPro-Regular, Myriad Pro;}</style></defs><g id="Layer_2" data-name="Layer 2"><g id="Layer_7" data-name="Layer 7"><path class="cls-1" d="M78.65,258.59c14.75-5.25,20.64-3.67,23.19-1s2,6.92,4.83,8.22c3.27,1.48,8.1-2.13,11.6-5.32"/><path class="cls-1" d="M79.7,237l23-2.1"/><polyline class="cls-1" points="99.06 228.43 106.87 220.03 123.68 218.53"/><line class="cls-1" x1="57.33" y1="242.99" x2="106.27" y2="203.36"/><line class="cls-1" x1="58.84" y1="251.1" x2="92.46" y2="287.43"/><line class="cls-1" x1="107.62" y1="286.52" x2="151.3" y2="251.1"/><line class="cls-1" x1="118.43" y1="203.96" x2="154.3" y2="241.64"/><polyline class="cls-1" points="168.83 237.34 307.29 250.92 427.53 337.7 320.21 305.91 302.65 310.54"/><polyline class="cls-1" points="282.76 290.71 298.78 312.81 278.91 334.5"/><polyline class="cls-1" points="268.57 290.71 251.75 308.55 260.06 330.45"/><polyline class="cls-1" points="209.38 284.63 220.12 312 200.06 327.2"/><polyline class="cls-1" points="195.39 284.23 170.66 308.35 176.34 328.01"/><line class="cls-1" x1="139.26" y1="293.96" x2="142.08" y2="314.98"/><line class="cls-1" x1="160.93" y1="308.75" x2="155.46" y2="316.05"/><line class="cls-1" x1="128.7" y1="280.17" x2="147.35" y2="299.23"/><line class="cls-1" x1="153.23" y1="304.09" x2="170.66" y2="308.35"/><line class="cls-1" x1="220.12" y1="312" x2="251.75" y2="308.55"/><line class="cls-1" x1="177.42" y1="331.13" x2="170.34" y2="341.1"/><line class="cls-1" x1="194.91" y1="331.42" x2="204.01" y2="341.53"/><line class="cls-1" x1="181.9" y1="333.15" x2="181.76" y2="345.29"/><line class="cls-1" x1="188.66" y1="332.97" x2="193.28" y2="345.97"/><line class="cls-1" x1="142.6" y1="317.69" x2="136.82" y2="326.21"/><line class="cls-1" x1="146.36" y1="318.41" x2="146.65" y2="329.39"/><line class="cls-1" x1="154.45" y1="318.84" x2="163.99" y2="325.35"/><line class="cls-1" x1="150.11" y1="320.15" x2="153" y2="328.96"/><line class="cls-1" x1="261.08" y1="333.01" x2="252.56" y2="345.29"/><line class="cls-1" x1="276.83" y1="336.18" x2="282.76" y2="347.89"/><line class="cls-1" x1="266.29" y1="336.04" x2="259.78" y2="347.31"/><line class="cls-1" x1="270.62" y1="337.92" x2="270.48" y2="349.77"/><line class="cls-1" x1="240.57" y1="313.93" x2="235.65" y2="322.17"/><line class="cls-1" x1="245.62" y1="314.65" x2="243.46" y2="324.05"/><line class="cls-1" x1="249.24" y1="315.67" x2="251.4" y2="325.49"/><path class="cls-2" d="M225.81,239q18.91-10.11,20.44-7.94,1.08,1.51-6.44,9.11"/><path class="cls-2" d="M251,240.53a38.85,38.85,0,0,1,13-6.2c5.1-1.32,12.73-2.15,13.43-.2.25.68-.07,2.49-8.27,7.48"/><path class="cls-2" d="M280.78,241.77a26.25,26.25,0,0,1,10.84-4.86c4-.74,8.73-.62,9,.51.13.51-.74,1-4.56,3.73-1.95,1.37-3.51,2.5-4.45,3.19"/><path class="cls-2" d="M300.9,247.2c7.27-3.89,12.72-3.47,15.37-3,1.93.35,5.92,1.41,5.94,2.79,0,1.71-6,3-7.56,3.32"/><path class="cls-2" d="M320.64,255.92a19.18,19.18,0,0,1,8.39-.78c7.11,1,13.51,6.2,12.79,8.26-.31.92-2.2,1.65-8.77,1"/><path class="cls-2" d="M342.67,270.3a17.11,17.11,0,0,1,8.23.94c4.47,1.71,8.42,5.55,7.78,6.84-.21.42-1.35,1.44-10.91-1.53"/><path class="cls-2" d="M176.19,234.42A22.66,22.66,0,0,1,187,227.84c5.81-1.48,12.93-.58,13.34,1.49.13.65-.19,2.51-9.15,6.38"/><path class="cls-2" d="M204.07,237.13a26.38,26.38,0,0,1,9.92-6.54c3.79-1.36,8.51-2,9-.94.2.49-.57,1.14-3.91,4.42-1.7,1.67-3.06,3-3.88,3.86"/><path class="cls-2" d="M121.17,201.9a18.55,18.55,0,0,1,7.16-11.38c4.4-3.13,11-4.56,12.07-2.77.87,1.38-1.19,5.24-13.13,15.73"/><path class="cls-2" d="M133.82,206.85a30.57,30.57,0,0,1,14.15.9c4.56,1.43,11.08,4.73,10.66,6.93-.28,1.42-3.53,2.87-17.28,2.74"/><path class="cls-2" d="M145.78,222.1a15.69,15.69,0,0,1,9.65,4c3.57,3.38,5.84,9.17,4.12,10.84-1.58,1.52-6.12-.73-8-1.74"/><path class="cls-2" d="M363.2,285.32q26,10.79,25.16,13.61-.41,1.33-6.81.89"/><path class="cls-2" d="M388.06,306a34.65,34.65,0,0,1,14.5,1.78c.82.29,7.39,2.62,7.1,4.44-.25,1.62-5.89,2-7.4,2.07"/><path class="cls-2" d="M408.48,320.23a25.2,25.2,0,0,1,10.06-.29c7.17,1.28,13.89,5.86,13.32,7.69-.29.91-2.51,1.59-10.95.59"/><path class="cls-2" d="M428.9,333.25a13.29,13.29,0,0,1,8.87,0c5.7,2.2,8.57,8.59,7.7,9.47-1,1-8-4.81-9.18-3.55-.26.3-.11.86,0,1.19"/><path class="cls-3" d="M52.09,22.1c-.39-1.37-4.4-14.7-17.5-19.22a25.86,25.86,0,0,0-19.22.86C5.74,8.32,2.67,17.7,1.88,20.09-3.46,36.41,8.33,51,9.34,52.22A161.57,161.57,0,0,0,31.43,71.73,161.65,161.65,0,0,0,50.08,83.49L47.5,91.81l10.61.29-2.87-8.32A163.35,163.35,0,0,0,73.6,72,164.07,164.07,0,0,0,93.11,55.09c1.94-2,12.59-13.19,11.19-29-.31-3.51-1.16-13-9.18-19.79C85.38-1.87,73.21.9,72.17,1.15,62.3,3.58,54.56,11.72,52.09,22.1Z"/><ellipse class="cls-4" cx="81.74" cy="31.42" rx="11.93" ry="16.47"/><path class="cls-2" d="M57.08,84.2l-9-.61a58.66,58.66,0,0,0-4.36,18.46c-1.57,23.67,12.86,35.8,17,56.4,2.16,10.6,2.33,27.07-9.53,49.91"/><text class="cls-5" transform="translate(38.42 64.44)">4</text></g></g></svg>