<svg xmlns="http://www.w3.org/2000/svg" viewBox="0 0 447.42 393.37"><defs><style>.cls-1,.cls-2{fill:none;stroke:#000;}.cls-1,.cls-2,.cls-3,.cls-4{stroke-miterlimit:10;}.cls-1{stroke-width:2px;}.cls-3{fill:#ef3a4e;stroke:#ef3c4f;}.cls-4{fill:#f0567a;stroke:#f0567b;}.cls-5{font-size:50px;fill:#231f20;font-family:MyriadPro-Regular, Myriad Pro;}</style></defs><g id="Layer_2" data-name="Layer 2"><g id="Layer_6" data-name="Layer 6"><polyline class="cls-1" points="246.26 150.09 395.94 210.47 425.49 240.43 433.45 275.88 420.27 304.61 286.27 375.98 391.92 263.01"/><line class="cls-1" x1="346.09" y1="232.45" x2="381.25" y2="274.52"/><polyline class="cls-1" points="327.2 227.46 304.25 264.2 323.23 290.8"/><line class="cls-1" x1="344.1" y1="295.54" x2="372.74" y2="266.16"/><polyline class="cls-1" points="247.86 214.74 266.02 245.5 248.58 267.35"/><polyline class="cls-1" points="226.88 203.94 201.87 245.68 226.48 268.85"/><line class="cls-1" x1="306.05" y1="257.22" x2="266.03" y2="245.5"/><line class="cls-1" x1="188.18" y1="192.05" x2="208.49" y2="218.48"/><polyline class="cls-1" points="191.56 244.31 174.13 229.68 197.21 204.4"/><line class="cls-1" x1="177.7" y1="189.35" x2="225.22" y2="164.97"/><line class="cls-1" x1="199.35" y1="100.76" x2="231.47" y2="150.65"/><line class="cls-1" x1="120.32" y1="121.78" x2="186.85" y2="92.91"/><line class="cls-1" x1="120.99" y1="142.64" x2="163.87" y2="181.68"/><circle class="cls-1" cx="164.76" cy="157.64" r="8.65"/><line class="cls-1" x1="157.41" y1="128.98" x2="178.28" y2="133.58"/><polyline class="cls-1" points="172.02 116.55 188.19 106.75 192.2 122.05"/><line class="cls-1" x1="181.16" y1="261.92" x2="187.92" y2="248.08"/><line class="cls-1" x1="191.58" y1="263.6" x2="194.37" y2="248.91"/><line class="cls-1" x1="205.92" y1="261.47" x2="199.6" y2="250.99"/><line class="cls-1" x1="224.06" y1="284.49" x2="227.97" y2="272.13"/><line class="cls-1" x1="257.39" y1="282.12" x2="248.52" y2="271.13"/><line class="cls-1" x1="231.84" y1="287.07" x2="235.41" y2="274.2"/><line class="cls-1" x1="244.41" y1="286.27" x2="241.75" y2="274.21"/><line class="cls-1" x1="315.15" y1="308.84" x2="323.5" y2="294.52"/><line class="cls-1" x1="329.3" y1="309.49" x2="330.8" y2="295.51"/><line class="cls-1" x1="338.76" y1="310.2" x2="337.82" y2="296.53"/><line class="cls-1" x1="348.07" y1="305.41" x2="343.49" y2="297.73"/><line class="cls-1" x1="284.95" y1="271.64" x2="290.05" y2="257.49"/><line class="cls-1" x1="300.96" y1="272.75" x2="300.74" y2="259.16"/><line class="cls-1" x1="292.98" y1="271.79" x2="295.63" y2="258.51"/><path class="cls-2" d="M309.75,170.68q28.47-5.15,29.54-1.73.75,2.4-12.06,9"/><path class="cls-2" d="M341.44,183.11a52.34,52.34,0,0,1,19.26-2.58c7.09.41,17.24,2.51,17.34,5.29,0,1-1.13,3.17-13.72,6.19"/><path class="cls-2" d="M379.19,197a35.19,35.19,0,0,1,15.93-1.76c5.39.68,11.47,2.8,11.34,4.37,0,.71-1.38,1-7.4,2.9-3.08,1-5.54,1.76-7,2.25"/><path class="cls-2" d="M402.78,212.33c10.94-2,17.78.8,21,2.53,2.34,1.25,7,4.26,6.47,6-.69,2.2-9,1.37-11.07,1.14"/><path class="cls-2" d="M423.79,232.58a26,26,0,0,1,10.69,3.87c8.13,5.27,12.95,15.32,10.9,17.43-.92.94-3.64.74-11.3-3.79"/><path class="cls-2" d="M432.87,287.93a15,15,0,0,1,4.92,8.74c1,6.87-3.64,13.75-5.5,13.34-.77-.17-1.64-1.74-1.52-9"/><path class="cls-2" d="M438,265.76a23.09,23.09,0,0,1,6.86,8.84c2.55,5.93,2.56,13.36.72,13.95-.6.2-2.67.06-8.8-12"/><path class="cls-2" d="M247.9,144.31a30.61,30.61,0,0,1,16.64-4c8.08.51,16.85,4.62,16.52,7.44-.1.89-1.29,3.15-14.39,4.4"/><path class="cls-2" d="M282.59,159.33A35.34,35.34,0,0,1,298,155c5.43-.19,11.77.93,11.9,2.49.05.72-1.2,1.23-6.85,4.06-2.88,1.44-5.18,2.63-6.59,3.35"/><path class="cls-2" d="M190.72,92.58c.54-2.21,2.71-10.06,10.23-15,6.1-4,15-5.6,16.42-3.12,1.09,1.91-1.87,7-18.5,20.55"/><path class="cls-2" d="M207.53,99.91a41.08,41.08,0,0,1,19,1.92c6.07,2.16,14.7,6.93,14,9.88-.44,1.9-4.9,3.7-23.44,2.82"/><path class="cls-2" d="M222.89,121.07a21.12,21.12,0,0,1,12.8,5.91c4.65,4.74,7.42,12.66,5,14.82-2.2,2-8.21-1.29-10.67-2.75"/><path class="cls-2" d="M420.15,308.83a9,9,0,0,1,2.3,5.25c.43,7.66-11.43,12.86-12.37,11.84-.74-.8,5.11-5.48,3.69-10.33a6.39,6.39,0,0,0-1.79-2.83"/><path class="cls-2" d="M400.92,320.12a22,22,0,0,1-.52,6.3c-1.7,7.22-6.93,12.37-7.94,11.82-.86-.46,2-4.73.34-10a12,12,0,0,0-2.08-3.83"/><path class="cls-2" d="M383.61,330.14a17.33,17.33,0,0,1,.39,6.15C382.8,346.42,372.57,353,371.42,352c-.84-.68,3.58-5,3.17-12.21a17.78,17.78,0,0,0-1.42-5.94"/><path class="cls-2" d="M363.92,339.17a15.82,15.82,0,0,1,.49,9.51c-2.37,8.45-12.15,12.35-12.93,11.44s8.88-8.86,7-12.29c-1-1.71-4.44-1.59-7-1.27"/><path class="cls-2" d="M341.25,351.76c.59,1.18,2.73,5.82.89,10.61-3,7.79-13.92,9.21-14.49,8.17s8.47-5.89,7.41-9.84a4.37,4.37,0,0,0-1.57-2.19,5.07,5.07,0,0,0-3.95-.73"/><path class="cls-2" d="M319.15,364.48c1.15.19,2.75.63,3.25,1.81,2,4.65-14.89,16.53-15.84,15.52-.79-.83,9.47-10.47,7.62-12.89-.65-.86-2.55-.51-4.1-.08"/><path class="cls-2" d="M296.23,376.52a3.82,3.82,0,0,1,2.48,1.77,4.2,4.2,0,0,1-.27,3.47c-2.36,5.54-15.91,11.75-16.26,11.05-.27-.54,8.31-3.69,8.11-8.29a5.47,5.47,0,0,0-2-3.63"/><circle cx="80.11" cy="119.9" r="3.6"/><line class="cls-2" x1="81.31" y1="126.95" x2="88.51" y2="169.32"/><circle cx="256.9" cy="108.22" r="3.6"/><line class="cls-2" x1="254.95" y1="101.34" x2="243.27" y2="59.98"/><path class="cls-3" d="M54.41,23.07C54,21.64,49.82,7.71,36.12,3c-2.36-.81-11-3.42-20.09.9C6,8.68,2.76,18.47,2,21-3.64,38,8.68,53.27,9.74,54.54A167.18,167.18,0,0,0,32.82,74.93,168.73,168.73,0,0,0,52.31,87.22l-2.7,8.69,11.09.3-3-8.69A171.6,171.6,0,0,0,76.89,75.23,170.88,170.88,0,0,0,97.27,57.54c2-2.06,13.16-13.78,11.7-30.28-.33-3.67-1.21-13.63-9.6-20.68C89.19-2,76.47.92,75.39,1.18,65.08,3.72,57,12.22,54.41,23.07Z"/><ellipse class="cls-4" cx="85.39" cy="32.81" rx="12.47" ry="17.21"/><path class="cls-2" d="M59.62,88l-9.43-.64a61.3,61.3,0,0,0-4.56,19.29C44,131.35,59.07,144,63.44,165.55c2.25,11.08,2.43,28.29-10,52.15"/><text class="cls-5" transform="translate(42.42 66.04)">5</text></g></g></svg>