<svg xmlns="http://www.w3.org/2000/svg" viewBox="0 0 444.07 432.23"><defs><style>.cls-1,.cls-2{fill:none;stroke:#000;}.cls-1,.cls-2,.cls-3,.cls-4{stroke-miterlimit:10;}.cls-1{stroke-width:2px;}.cls-3{fill:#ef3a4e;stroke:#ef3c4f;}.cls-4{fill:#f0567a;stroke:#f0567b;}.cls-5{font-size:50px;fill:#231f20;font-family:MyriadPro-Regular, Myriad Pro;}</style></defs><g id="Layer_2" data-name="Layer 2"><g id="Layer_5" data-name="Layer 5"><polyline class="cls-1" points="255.8 182.47 398.71 262.77 424.57 296.8 427.98 333.55 410.96 360.77 266.69 415.22 387.82 315.17"/><line class="cls-1" x1="345.63" y1="278.42" x2="375.57" y2="325.38"/><polyline class="cls-1" points="327.25 270.94 299.35 304.96 315 334.23"/><line class="cls-1" x1="335.42" y1="341.72" x2="368.09" y2="315.85"/><polyline class="cls-1" points="248.99 247.8 263.28 281.15 242.87 300.88"/><polyline class="cls-1" points="229.25 234.19 198.63 272.98 220.41 299.52"/><line class="cls-1" x1="302.07" y1="298.16" x2="263.28" y2="281.15"/><line class="cls-1" x1="191.82" y1="217.17" x2="208.84" y2="246.44"/><polyline class="cls-1" points="188.42 270.26 172.77 253.24 199.31 230.78"/><line class="cls-1" x1="181.62" y1="213.09" x2="232.66" y2="194.71"/><line class="cls-1" x1="214.96" y1="126.66" x2="240.82" y2="181.1"/><line class="cls-1" x1="132.62" y1="137.55" x2="203.39" y2="117.13"/><line class="cls-1" x1="130.57" y1="158.65" x2="168.68" y2="203.56"/><circle class="cls-1" cx="172.71" cy="179.45" r="8.78"/><line class="cls-1" x1="169.03" y1="149.63" x2="189.46" y2="156.99"/><polyline class="cls-1" points="185.37 139.01 202.94 131.25 204.98 147.18"/><line class="cls-1" x1="175.66" y1="286.64" x2="184.27" y2="273.58"/><line class="cls-1" x1="185.94" y1="289.69" x2="190.66" y2="275.25"/><line class="cls-1" x1="200.66" y1="289.41" x2="195.66" y2="278.03"/><line class="cls-1" x1="215.93" y1="314.96" x2="221.49" y2="303.02"/><line class="cls-1" x1="249.81" y1="316.91" x2="242.31" y2="304.69"/><line class="cls-1" x1="223.43" y1="318.57" x2="228.71" y2="306.08"/><line class="cls-1" x1="236.2" y1="319.41" x2="235.09" y2="306.91"/><line class="cls-1" x1="304.53" y1="351.35" x2="314.8" y2="338.01"/><line class="cls-1" x1="318.69" y1="353.84" x2="322.02" y2="339.96"/><line class="cls-1" x1="328.13" y1="355.79" x2="328.97" y2="341.9"/><line class="cls-1" x1="338.13" y1="352.18" x2="334.52" y2="343.85"/><line class="cls-1" x1="278.95" y1="309.94" x2="285.92" y2="296.36"/><line class="cls-1" x1="294.93" y1="313.15" x2="296.47" y2="299.42"/><line class="cls-1" x1="287.01" y1="311.14" x2="291.41" y2="298.1"/><path class="cls-2" d="M317.07,211.47q29.35-1.47,30,2.1.43,2.52-13.32,7.53"/><path class="cls-2" d="M347.37,228.12a53.09,53.09,0,0,1,19.74-.09c7.09,1.33,17,4.76,16.78,7.58-.1,1-1.55,3-14.63,4.45"/><path class="cls-2" d="M383.59,247.06a35.83,35.83,0,0,1,16.28.3c5.34,1.39,11.18,4.32,10.85,5.88-.15.71-1.52.84-7.84,2-3.22.57-5.81,1.06-7.38,1.36"/><path class="cls-2" d="M405.36,265.54c11.28-.58,17.8,3.12,20.8,5.27,2.19,1.57,6.52,5.21,5.73,6.94-1,2.12-9.24.2-11.31-.3"/><path class="cls-2" d="M423.89,288.67A26.27,26.27,0,0,1,434.15,294c7.51,6.37,11.05,17.12,8.71,19-1,.83-3.76.28-10.89-5.28"/><path class="cls-2" d="M425.83,345.61a15.23,15.23,0,0,1,3.81,9.45c.13,7.05-5.45,13.38-7.26,12.72-.76-.28-1.43-2-.37-9.27"/><path class="cls-2" d="M433.93,324a23.48,23.48,0,0,1,5.75,9.8c1.8,6.31.85,13.79-1.09,14.15-.63.11-2.69-.3-7.31-13.22"/><path class="cls-2" d="M258.2,176.85A31.15,31.15,0,0,1,275.47,175c8.08,1.56,16.38,6.84,15.68,9.65-.22.88-1.71,3-15.07,2.56"/><path class="cls-2" d="M291.19,196.5a35.79,35.79,0,0,1,16.11-2.31c5.49.52,11.73,2.47,11.66,4.06,0,.73-1.37,1.08-7.42,3.19-3.09,1.08-5.57,2-7.08,2.53"/><path class="cls-2" d="M207.34,117.3c.82-2.16,4-9.78,12.25-13.76,6.66-3.23,15.85-3.68,16.95-1,.85,2.07-2.8,6.82-21.31,18.3"/><path class="cls-2" d="M223.31,126.87a41.84,41.84,0,0,1,18.93,4.41c5.83,3,13.91,8.9,12.83,11.78-.69,1.86-5.42,3.09-24-.21"/><path class="cls-2" d="M236,150.18a21.58,21.58,0,0,1,12.12,7.62c4.07,5.39,5.83,13.73,3.12,15.59-2.47,1.7-8.1-2.37-10.39-4.16"/><path class="cls-2" d="M410.3,365a9.17,9.17,0,0,1,1.63,5.59c-.57,7.77-13.19,11.46-14,10.31-.64-.9,5.85-4.85,5.06-9.92a6.5,6.5,0,0,0-1.44-3.09"/><path class="cls-2" d="M389.45,373.88a22,22,0,0,1-1.35,6.28c-2.64,7-8.59,11.55-9.53,10.87s2.65-4.5,1.65-10a12,12,0,0,0-1.6-4.12"/><path class="cls-2" d="M370.72,381.72a17.83,17.83,0,0,1-.41,6.24c-2.53,10.05-13.69,15.3-14.72,14.22-.76-.79,4.25-4.6,4.78-11.88a18,18,0,0,0-.67-6.17"/><path class="cls-2" d="M349.7,388.25a16.12,16.12,0,0,1-.74,9.65c-3.49,8.2-13.84,10.85-14.52,9.84s10.1-7.77,8.61-11.47c-.74-1.86-4.27-2.18-6.88-2.2"/><path class="cls-2" d="M325.23,398c.43,1.26,2,6.22-.48,10.8-4,7.47-15.23,7.47-15.67,6.35s9.3-4.83,8.74-8.95a4.36,4.36,0,0,0-1.29-2.41,5.17,5.17,0,0,0-3.89-1.25"/><path class="cls-2" d="M301.31,407.91c1.13.35,2.68,1,3,2.25,1.41,4.95-17.15,14.72-18,13.58-.69-.94,10.9-9.31,9.35-12-.54-.94-2.5-.85-4.11-.61"/><path class="cls-2" d="M276.65,417.06a3.88,3.88,0,0,1,2.27,2.11,4.26,4.26,0,0,1-.72,3.46c-3.1,5.27-17.56,9.76-17.82,9-.21-.59,8.84-2.64,9.24-7.31a5.56,5.56,0,0,0-1.57-3.92"/><circle cx="92.61" cy="159.41" r="3.65"/><line class="cls-2" x1="95.52" y1="166.06" x2="113.07" y2="206.03"/><circle cx="276.86" cy="106.96" r="3.65"/><line class="cls-2" x1="273.25" y1="100.66" x2="251.53" y2="62.79"/><path class="cls-3" d="M55.25,23.42C54.84,22,50.59,7.82,36.68,3c-2.39-.82-11.18-3.48-20.4.92C6.06,8.81,2.8,18.76,2,21.29-3.7,38.61,8.81,54.1,9.88,55.39A170.26,170.26,0,0,0,33.33,76.1,170.71,170.71,0,0,0,53.12,88.58Q51.76,93,50.38,97.41l11.27.31-3-8.83A173.73,173.73,0,0,0,78.09,76.4a175,175,0,0,0,20.71-18c2-2.09,13.36-14,11.87-30.75-.33-3.73-1.23-13.85-9.74-21C90.59-2,77.67.92,76.57,1.19,66.09,3.77,57.88,12.41,55.25,23.42Z"/><ellipse class="cls-4" cx="86.73" cy="33.32" rx="12.66" ry="17.48"/><path class="cls-2" d="M60.55,89.33,51,88.69a62.1,62.1,0,0,0-4.63,19.59c-1.66,25.13,13.65,38,18.09,59.86,2.29,11.26,2.47,28.74-10.12,53"/><text class="cls-5" transform="translate(41.92 67.51)">6</text></g></g></svg>