<svg xmlns="http://www.w3.org/2000/svg" viewBox="0 0 414.54 448.64"><defs><style>.cls-1,.cls-2{fill:none;stroke:#000;}.cls-1,.cls-2,.cls-3,.cls-4{stroke-miterlimit:10;}.cls-1{stroke-width:2px;}.cls-3{fill:#ef3a4e;stroke:#ef3c4f;}.cls-4{fill:#f0567a;stroke:#f0567b;}.cls-5{font-size:50px;fill:#231f20;font-family:MyriadPro-Regular, Myriad Pro;}</style></defs><g id="Layer_2" data-name="Layer 2"><g id="Layer_4" data-name="Layer 4"><line class="cls-1" x1="125.67" y1="244.94" x2="122.72" y2="298.55"/><polyline class="cls-1" points="180.01 245.04 305.97 341.51 323.67 380.27 312.71 423.24 138.31 425.35 283.22 369.74"/><polyline class="cls-1" points="234.36 328.88 240.25 362.16 257.53 378.16"/><polyline class="cls-1" points="240.25 362.16 217.09 378.59 219.05 388.84"/><polyline class="cls-1" points="218.77 320.03 199.81 342.36 203.18 369.32 189.27 382.59"/><polyline class="cls-1" points="173.27 302.34 180.44 330.56 154.32 355"/><polyline class="cls-1" points="152.21 286.33 120.19 314.55 126.94 346.57"/><line class="cls-1" x1="204.87" y1="350.78" x2="171.59" y2="338.57"/><polyline class="cls-1" points="124.41 275.38 97.45 292.65 103.34 324.24"/><line class="cls-1" x1="128.98" y1="349.87" x2="115.75" y2="362"/><line class="cls-1" x1="133.03" y1="354.65" x2="126.41" y2="367.52"/><line class="cls-1" x1="141.48" y1="356.49" x2="140.38" y2="369.72"/><line class="cls-1" x1="149.2" y1="356.49" x2="152.88" y2="372.3"/><line class="cls-1" x1="103.62" y1="327.45" x2="91.12" y2="337.01"/><line class="cls-1" x1="109.13" y1="328.92" x2="103.25" y2="343.99"/><line class="cls-1" x1="115.38" y1="328.18" x2="117.59" y2="343.26"/><line class="cls-1" x1="209.49" y1="374.5" x2="199.2" y2="385.16"/><line class="cls-1" x1="213.53" y1="379.65" x2="208.75" y2="391.41"/><path class="cls-2" d="M198.48,251.5q34.62,4.63,34.58,9,0,3-17.2,5.91"/><path class="cls-2" d="M225.36,274.08a63,63,0,0,1,23.29,2.86c8.16,2.64,19.37,8.18,18.64,11.47-.26,1.15-2.28,3.36-17.92,3"/><path class="cls-2" d="M259.22,300.06a42.55,42.55,0,0,1,19.36.36c6.34,1.65,13.29,5.13,12.9,7-.18.85-1.81,1-9.32,2.33-3.83.68-6.91,1.26-8.78,1.62"/><path class="cls-2" d="M285.39,319.77c13.41-.69,21.16,3.71,24.72,6.27,2.6,1.87,7.76,6.19,6.81,8.24-1.16,2.53-11,.24-13.44-.36"/><path class="cls-2" d="M313.81,347.63A31.28,31.28,0,0,1,326,353.92c8.92,7.57,13.13,20.35,10.35,22.55-1.24,1-4.47.33-12.94-6.28"/><path class="cls-2" d="M328.05,383.68a27.86,27.86,0,0,1,6.84,11.65c2.14,7.5,1,16.4-1.29,16.82-.76.14-3.21-.34-8.69-15.71"/><path class="cls-2" d="M322.25,409.94a18.15,18.15,0,0,1,4.54,11.23c.14,8.38-6.49,15.9-8.64,15.12-.9-.33-1.7-2.34-.44-11"/><path class="cls-2" d="M306.84,428.05a10.91,10.91,0,0,1-.44,6.91c-3.76,8.46-19.36,7.5-19.81,5.88-.35-1.26,8.5-3.06,9.66-9a7.75,7.75,0,0,0-.36-4"/><path class="cls-2" d="M283.68,429.49a26.34,26.34,0,0,1-4,6.49c-5.8,6.82-14.26,9.45-15,8.31-.67-1,4.78-4,5.87-10.52a14.44,14.44,0,0,0-.13-5.26"/><path class="cls-2" d="M259.12,430.78a21,21,0,0,1-3,6.82c-6.88,10.22-21.47,11.58-22.19,10-.53-1.19,6.61-3.43,10.13-11.36a21.21,21.21,0,0,0,1.75-7.17"/><path class="cls-2" d="M233.92,428.13a19.11,19.11,0,0,1-4.72,10.48c-7.2,7.77-19.85,6.56-20.19,5.15-.38-1.57,14.42-4.61,14.25-9.35-.09-2.38-3.89-4.16-6.81-5.24"/><path class="cls-2" d="M205.62,429.23c0,1.59-.27,7.75-4.89,11.88-7.51,6.72-20,2.21-20.08.78S193,440.24,194,435.42a5.24,5.24,0,0,0-.48-3.22,6.14,6.14,0,0,0-3.84-3"/><path class="cls-2" d="M173.26,430.38c1.13.84,2.6,2.2,2.5,3.74-.42,6.1-25.12,9.54-25.59,7.94-.39-1.33,16-6,15.3-9.65-.22-1.28-2.45-2-4.36-2.34"/><path class="cls-2" d="M145.57,429.41a4.61,4.61,0,0,1,1.68,3.27c0,1.77-1.49,3-2.2,3.58-5.59,4.65-23.57,3.84-23.56,2.9,0-.73,11,.62,13.28-4.44a6.6,6.6,0,0,0-.18-5"/><path class="cls-1" d="M68.78,151.25a168.42,168.42,0,0,1,52.82-18,165.3,165.3,0,0,1,26.94-2.11"/><line class="cls-1" x1="96.25" y1="238.41" x2="171.79" y2="226.26"/><line class="cls-1" x1="185.52" y1="204.61" x2="157.52" y2="139.63"/><path class="cls-1" d="M85.68,232.07,65.61,168.16"/><path class="cls-1" d="M149.66,188.66c8.77,4.11,13.06,10.05,11.84,13.05-1,2.54-6.25,3.5-12.06,2.85"/><path class="cls-2" d="M148.83,129.85c1-2.57,4.81-11.63,14.57-16.36,7.92-3.83,18.84-4.38,20.15-1.19,1,2.45-3.33,8.09-25.34,21.74"/><path class="cls-2" d="M174.33,163.78A52.86,52.86,0,0,1,194.59,175c10.39,9.38,17.45,23.73,14.5,26.5-1.54,1.45-6.58.44-22.25-11"/><path class="cls-2" d="M162.83,138.28a49.62,49.62,0,0,1,22.51,5.25c6.93,3.52,16.53,10.57,15.25,14-.83,2.21-6.45,3.67-28.51-.25"/><path class="cls-2" d="M190.84,199.29q20.72,28.53,16.75,32.51-1.74,1.74-8.25-1.25"/><line class="cls-1" x1="71.07" y1="183.5" x2="117.73" y2="211.4"/><line class="cls-1" x1="107.24" y1="162.27" x2="138.28" y2="177.36"/><path class="cls-2" d="M220.69,154.37A28.66,28.66,0,0,1,229,169.83,29.28,29.28,0,0,1,224.32,191"/><path class="cls-2" d="M235.19,155.31a38.93,38.93,0,0,1,.08,41.7"/><path class="cls-2" d="M40.91,219.84a28.72,28.72,0,0,1-12.65-12.15,29.26,29.26,0,0,1-2.09-21.53"/><path class="cls-2" d="M26.84,223.42a38.94,38.94,0,0,1-13-39.64"/><path class="cls-2" d="M7.47,256.67a35.2,35.2,0,0,1,3.73,22c-1.67,11.16-7.35,17-3.92,22.92,2.6,4.47,10.14,8.5,19,5.21,8.38-3.11,12.79-10.9,13.27-11.79"/><circle cx="4.34" cy="251.25" r="4.34"/><path class="cls-2" d="M224.47,105a35.21,35.21,0,0,1-9.61-20.17c-1.46-11.19,2.41-18.38-2.51-23.12-3.72-3.59-12.08-5.4-19.68.18-7.2,5.29-9.3,14-9.53,15"/><circle cx="228.97" cy="109.3" r="4.34"/><path class="cls-3" d="M348,27.75C347.52,26,342.46,9.2,325.93,3.5c-2.85-1-13.29-4.14-24.26,1.08-12.15,5.79-16,17.62-17,20.64-6.74,20.58,8.13,39,9.41,40.54a203.52,203.52,0,0,0,27.87,24.61,202.9,202.9,0,0,0,23.53,14.84q-1.62,5.25-3.26,10.5l13.4.36L352,105.57a206.19,206.19,0,0,0,23.16-14.84,207.61,207.61,0,0,0,24.62-21.35c2.44-2.49,15.88-16.65,14.11-36.56-.39-4.44-1.45-16.47-11.58-25C390-2.49,374.65,1,373.34,1.33,360.89,4.38,351.12,14.65,348,27.75Z"/><ellipse class="cls-4" cx="385.42" cy="39.51" rx="15.05" ry="20.77"/><path class="cls-2" d="M354.3,106.1l-11.39-.76a73.89,73.89,0,0,0-5.5,23.29c-2,29.86,16.22,45.17,21.5,71.16,2.72,13.38,2.94,34.15-12,63"/><text class="cls-5" transform="translate(337.26 77.09)">7</text></g></g></svg>