<svg xmlns="http://www.w3.org/2000/svg" viewBox="0 0 448.8 440.72"><defs><style>.cls-1,.cls-2{fill:none;stroke:#000;}.cls-1,.cls-2,.cls-3,.cls-4{stroke-miterlimit:10;}.cls-1{stroke-width:2px;}.cls-3{fill:#ef3a4e;stroke:#ef3c4f;}.cls-4{fill:#f0567a;stroke:#f0567b;}.cls-5{font-size:50px;fill:#231f20;font-family:MyriadPro-Regular, Myriad Pro;}</style></defs><g id="Layer_2" data-name="Layer 2"><g id="Layer_3" data-name="Layer 3"><path class="cls-1" d="M359.24,142.72a170.21,170.21,0,0,0-53.4-18.15,168,168,0,0,0-27.24-2.14"/><line class="cls-1" x1="331.47" y1="230.84" x2="255.1" y2="218.56"/><line class="cls-1" x1="241.22" y1="196.66" x2="269.52" y2="130.97"/><path class="cls-1" d="M342.15,224.44q10.16-32.33,20.3-64.63"/><path class="cls-1" d="M277.47,180.54c-8.86,4.16-13.2,10.16-12,13.19,1,2.57,6.32,3.55,12.19,2.89"/><path class="cls-1" d="M296.16,164.78l33.92-13.91"/><line class="cls-1" x1="234.42" y1="209.34" x2="231.44" y2="288.98"/><polyline class="cls-1" points="289.36 234.89 416.71 332.42 434.6 371.6 423.52 415.05 247.2 417.18 393.71 360.96"/><polyline class="cls-1" points="344.3 319.64 350.27 353.29 367.73 369.48"/><polyline class="cls-1" points="350.27 353.29 326.84 369.9 328.82 380.27"/><polyline class="cls-1" points="328.55 310.7 309.38 333.27 312.79 360.53 298.72 373.95"/><polyline class="cls-1" points="282.55 292.81 289.79 321.35 263.38 346.05"/><polyline class="cls-1" points="261.25 276.63 228.88 305.16 235.7 337.53"/><line class="cls-1" x1="314.49" y1="341.79" x2="280.85" y2="329.44"/><polyline class="cls-1" points="233.14 265.56 205.89 283.02 211.85 314.96"/><line class="cls-1" x1="237.77" y1="340.87" x2="224.39" y2="353.14"/><line class="cls-1" x1="241.86" y1="345.7" x2="235.17" y2="358.71"/><line class="cls-1" x1="250.41" y1="347.56" x2="249.29" y2="360.94"/><line class="cls-1" x1="258.21" y1="347.56" x2="261.93" y2="363.54"/><line class="cls-1" x1="212.12" y1="318.2" x2="199.49" y2="327.86"/><line class="cls-1" x1="217.7" y1="319.69" x2="211.75" y2="334.93"/><line class="cls-1" x1="224.02" y1="318.94" x2="226.25" y2="334.18"/><line class="cls-1" x1="319.16" y1="365.77" x2="308.76" y2="376.55"/><line class="cls-1" x1="323.25" y1="370.98" x2="318.42" y2="382.87"/><path class="cls-2" d="M278.31,121.09c-1-2.6-4.86-11.76-14.73-16.54-8-3.88-19-4.43-20.37-1.21-1,2.48,3.36,8.19,25.62,22"/><path class="cls-2" d="M252.53,155.39a53.47,53.47,0,0,0-20.48,11.38c-10.51,9.48-17.65,24-14.66,26.8,1.56,1.46,6.65.44,22.5-11.13"/><path class="cls-2" d="M264.16,129.61a50.3,50.3,0,0,0-22.76,5.3c-7,3.57-16.71,10.7-15.42,14.16.84,2.24,6.52,3.71,28.82-.25"/><path class="cls-2" d="M235.84,191.29q-20.94,28.85-16.94,32.87,1.77,1.76,8.35-1.27"/><path class="cls-2" d="M308,241.41q35,4.69,35,9.06,0,3.08-17.39,6"/><path class="cls-2" d="M335.21,264.24a63.71,63.71,0,0,1,23.55,2.9c8.24,2.67,19.58,8.27,18.84,11.59-.26,1.17-2.31,3.39-18.12,3.08"/><path class="cls-2" d="M369.44,290.51a43,43,0,0,1,19.57.36c6.42,1.67,13.44,5.19,13,7.07-.18.85-1.82,1-9.42,2.35-3.87.68-7,1.27-8.87,1.63"/><path class="cls-2" d="M395.89,310.43c13.56-.69,21.4,3.76,25,6.35,2.63,1.88,7.84,6.26,6.89,8.33-1.18,2.55-11.1.24-13.59-.36"/><path class="cls-2" d="M424.64,338.61A31.41,31.41,0,0,1,437,345c9,7.66,13.28,20.57,10.47,22.8-1.26,1-4.52.34-13.08-6.35"/><path class="cls-2" d="M439,375.05a28.11,28.11,0,0,1,6.91,11.78c2.17,7.58,1,16.58-1.3,17-.77.14-3.24-.35-8.79-15.89"/><path class="cls-2" d="M433.16,401.6A18.31,18.31,0,0,1,437.75,413c.15,8.48-6.55,16.08-8.74,15.29-.9-.33-1.71-2.37-.43-11.14"/><path class="cls-2" d="M417.58,419.91a11,11,0,0,1-.44,7c-3.8,8.55-19.57,7.58-20,6-.35-1.28,8.6-3.1,9.77-9.16a7.82,7.82,0,0,0-.37-4.08"/><path class="cls-2" d="M394.17,421.37a26.73,26.73,0,0,1-4.08,6.55c-5.87,6.9-14.43,9.56-15.22,8.41-.67-1,4.84-4,5.94-10.63a14.79,14.79,0,0,0-.12-5.32"/><path class="cls-2" d="M369.34,422.67a21.19,21.19,0,0,1-3,6.89c-6.95,10.34-21.71,11.72-22.44,10.08-.53-1.21,6.69-3.47,10.25-11.49a21.46,21.46,0,0,0,1.76-7.24"/><path class="cls-2" d="M343.87,420a19.4,19.4,0,0,1-4.78,10.6c-7.28,7.85-20.07,6.63-20.41,5.21-.39-1.6,14.58-4.67,14.4-9.46-.08-2.4-3.93-4.21-6.88-5.29"/><path class="cls-2" d="M315.25,421.1c0,1.61-.28,7.84-4.94,12-7.6,6.79-20.26,2.23-20.3.78s12.49-1.66,13.53-6.54a5.3,5.3,0,0,0-.48-3.26,6.21,6.21,0,0,0-3.89-3"/><path class="cls-2" d="M282.54,422.27c1.14.84,2.62,2.22,2.52,3.78-.42,6.17-25.39,9.64-25.87,8-.39-1.35,16.13-6.09,15.47-9.76-.23-1.28-2.48-2-4.41-2.36"/><path class="cls-2" d="M254.54,421.28a4.68,4.68,0,0,1,1.7,3.31c0,1.79-1.51,3-2.22,3.62-5.65,4.7-23.84,3.88-23.83,2.93,0-.74,11.08.63,13.43-4.49a6.63,6.63,0,0,0-.18-5.07"/><line class="cls-1" x1="311.37" y1="204.33" x2="354.94" y2="180.17"/><path class="cls-2" d="M397.1,168.93a29,29,0,0,1,1.47,17.67,29.67,29.67,0,0,1-12.81,17.73"/><path class="cls-2" d="M410.17,175.63a39.38,39.38,0,0,1-16.68,38.72"/><path class="cls-2" d="M193.49,150.51a29,29,0,0,1,4.33-17.2,29.6,29.6,0,0,1,17.86-12.62"/><path class="cls-2" d="M183.29,139.94a39.42,39.42,0,0,1,28.32-31.24"/><path class="cls-2" d="M158.21,193.18A35.54,35.54,0,0,1,162,215.45c-1.68,11.29-7.43,17.2-4,23.18,2.62,4.51,10.25,8.59,19.18,5.27,8.47-3.15,12.92-11,13.42-11.92"/><circle cx="155.05" cy="187.7" r="4.39"/><path class="cls-2" d="M384.16,133.32a35.61,35.61,0,0,1-9.73-20.39c-1.47-11.32,2.45-18.58-2.53-23.37-3.76-3.63-12.21-5.46-19.89.18-7.28,5.35-9.41,14.13-9.64,15.13"/><circle cx="388.7" cy="137.72" r="4.39"/><path class="cls-3" d="M66.31,28.05C65.81,26.31,60.7,9.3,44,3.53c-2.87-1-13.43-4.18-24.52,1.1C7.18,10.48,3.26,22.44,2.26,25.49c-6.81,20.81,8.23,39.43,9.52,41A204.48,204.48,0,0,0,40,91.36a204.06,204.06,0,0,0,23.78,15q-1.64,5.31-3.29,10.62l13.54.36-3.66-10.61a211.66,211.66,0,0,0,23.42-15,209,209,0,0,0,24.89-21.6c2.47-2.51,16-16.82,14.27-37-.4-4.48-1.47-16.64-11.71-25.25C108.77-2.53,93.25,1,91.92,1.33,79.33,4.43,69.46,14.81,66.31,28.05Z"/><ellipse class="cls-4" cx="104.13" cy="39.94" rx="15.22" ry="21"/><path class="cls-2" d="M72.67,107.27l-11.51-.78A74.74,74.74,0,0,0,55.59,130C53.6,160.23,72,175.7,77.33,202c2.75,13.53,3,34.53-12.16,63.67"/><text class="cls-5" transform="translate(55.44 76.41)">8</text></g></g></svg>