<svg xmlns="http://www.w3.org/2000/svg" viewBox="0 0 359.93 446.47"><defs><style>.cls-1,.cls-2{fill:none;stroke:#000;}.cls-1,.cls-2,.cls-3,.cls-4{stroke-miterlimit:10;}.cls-1{stroke-width:2px;}.cls-3{fill:#ef3a4e;stroke:#ef3c4f;}.cls-4{fill:#f0567a;stroke:#f0567b;}.cls-5{font-size:50px;fill:#231f20;font-family:MyriadPro-Regular, Myriad Pro;}</style></defs><g id="Layer_2" data-name="Layer 2"><g id="Layer_2-2" data-name="Layer 2"><line class="cls-1" x1="63.63" y1="236.04" x2="60.58" y2="291.43"/><polyline class="cls-1" points="119.77 236.16 249.9 335.82 268.18 375.86 256.87 420.25 76.69 422.43 226.4 364.98"/><polyline class="cls-1" points="175.91 322.76 182.01 357.15 199.85 373.68"/><polyline class="cls-1" points="182.01 357.15 158.07 374.12 160.1 384.71"/><polyline class="cls-1" points="159.81 313.63 140.23 336.69 143.71 364.55 129.33 378.26"/><polyline class="cls-1" points="112.81 295.35 120.21 324.5 93.22 349.75"/><polyline class="cls-1" points="91.05 278.81 57.97 307.97 64.93 341.04"/><line class="cls-1" x1="145.45" y1="345.4" x2="111.07" y2="332.77"/><polyline class="cls-1" points="62.32 267.49 34.47 285.33 40.56 317.98"/><line class="cls-1" x1="67.05" y1="344.46" x2="53.38" y2="356.99"/><line class="cls-1" x1="71.23" y1="349.39" x2="64.39" y2="362.69"/><line class="cls-1" x1="79.96" y1="351.29" x2="78.82" y2="364.96"/><line class="cls-1" x1="87.94" y1="351.29" x2="91.73" y2="367.62"/><line class="cls-1" x1="40.84" y1="321.29" x2="27.93" y2="331.16"/><line class="cls-1" x1="46.54" y1="322.81" x2="40.46" y2="338.38"/><line class="cls-1" x1="53" y1="322.05" x2="55.27" y2="337.62"/><line class="cls-1" x1="150.22" y1="369.9" x2="139.59" y2="380.92"/><line class="cls-1" x1="154.4" y1="375.22" x2="149.46" y2="387.37"/><path class="cls-2" d="M138.85,242.82q35.78,4.8,35.73,9.26,0,3.13-17.77,6.11"/><path class="cls-2" d="M166.62,266.15a64.92,64.92,0,0,1,24.06,3c8.43,2.73,20,8.45,19.26,11.85-.27,1.19-2.36,3.46-18.52,3.14"/><path class="cls-2" d="M201.6,293a44.08,44.08,0,0,1,20,.37c6.55,1.71,13.73,5.31,13.33,7.22-.19.87-1.87,1-9.63,2.41-4,.7-7.14,1.29-9.07,1.66"/><path class="cls-2" d="M228.63,313.35c13.86-.7,21.87,3.84,25.55,6.48,2.68,1.93,8,6.4,7,8.52-1.2,2.61-11.34.25-13.88-.37"/><path class="cls-2" d="M258,342.14a32.34,32.34,0,0,1,12.61,6.49c9.22,7.83,13.57,21,10.7,23.31-1.29,1-4.63.34-13.37-6.5"/><path class="cls-2" d="M272.71,379.39a28.78,28.78,0,0,1,7.07,12c2.21,7.75,1,16.94-1.34,17.38-.78.14-3.31-.36-9-16.23"/><path class="cls-2" d="M266.72,406.51a18.77,18.77,0,0,1,4.68,11.61c.15,8.65-6.69,16.42-8.92,15.62-.93-.34-1.76-2.42-.45-11.38"/><path class="cls-2" d="M250.79,425.22a11.27,11.27,0,0,1-.44,7.14c-3.89,8.74-20,7.75-20.47,6.08-.37-1.3,8.78-3.16,10-9.35a8,8,0,0,0-.38-4.17"/><path class="cls-2" d="M226.87,426.71a27.38,27.38,0,0,1-4.17,6.7c-6,7-14.74,9.77-15.55,8.59-.69-1,4.94-4.1,6.07-10.86a15,15,0,0,0-.13-5.44"/><path class="cls-2" d="M201.5,428.05a21.67,21.67,0,0,1-3.07,7c-7.1,10.56-22.19,12-22.93,10.29-.55-1.23,6.84-3.54,10.47-11.74a21.8,21.8,0,0,0,1.81-7.4"/><path class="cls-2" d="M175.47,425.3a19.78,19.78,0,0,1-4.88,10.84c-7.45,8-20.51,6.77-20.86,5.32-.4-1.63,14.9-4.77,14.72-9.67-.09-2.45-4-4.3-7-5.41"/><path class="cls-2" d="M146.23,426.44c0,1.64-.29,8-5.06,12.28-7.76,6.94-20.7,2.28-20.74.8s12.76-1.7,13.83-6.69a5.43,5.43,0,0,0-.49-3.32,6.33,6.33,0,0,0-4-3.07"/><path class="cls-2" d="M112.8,427.63c1.16.87,2.68,2.27,2.57,3.86-.43,6.31-25.94,9.86-26.43,8.2-.4-1.37,16.48-6.22,15.81-10-.23-1.31-2.54-2-4.51-2.41"/><path class="cls-2" d="M84.18,426.62A4.79,4.79,0,0,1,85.93,430c0,1.82-1.55,3.09-2.28,3.69-5.77,4.8-24.36,4-24.35,3,0-.76,11.32.64,13.73-4.59a6.77,6.77,0,0,0-.19-5.18"/><path class="cls-1" d="M4.85,139.26A173.86,173.86,0,0,1,59.43,120.7a171,171,0,0,1,27.83-2.18"/><line class="cls-1" x1="33.23" y1="229.3" x2="111.27" y2="216.75"/><line class="cls-1" x1="125.46" y1="194.38" x2="96.54" y2="127.25"/><path class="cls-1" d="M22.32,222.76c-20.14-52-22.8-65.08-20.74-66,2.58-1.2,10.42,17.71,30.56,32.2,14.58,10.49,30,14.6,41.48,16.37"/><path class="cls-1" d="M88.41,177.9c9.06,4.25,13.5,10.38,12.24,13.48-1.07,2.63-6.46,3.62-12.47,3"/><path class="cls-1" d="M69.32,161.8a28.59,28.59,0,0,0-8-9.48c-11-8.33-24.45-5.28-26.68-4.73"/><path class="cls-2" d="M87.56,117.15c1-2.65,5-12,15-16.9,8.19-4,19.47-4.53,20.82-1.24,1,2.54-3.43,8.37-26.18,22.47"/><path class="cls-2" d="M113.9,152.2a54.68,54.68,0,0,1,20.93,11.63c10.73,9.69,18,24.51,15,27.38-1.59,1.5-6.79.46-23-11.37"/><path class="cls-2" d="M102,125.85a51.42,51.42,0,0,1,23.25,5.43c7.16,3.64,17.08,10.92,15.76,14.46-.85,2.29-6.66,3.79-29.45-.25"/><path class="cls-2" d="M131,188.89q21.41,29.48,17.31,33.58-1.8,1.8-8.52-1.29"/><path class="cls-3" d="M291.2,28.65c-.5-1.78-5.73-19.16-22.81-25-2.94-1-13.72-4.28-25,1.12-12.56,6-16.56,18.2-17.58,21.31-7,21.27,8.4,40.3,9.72,41.89a210.17,210.17,0,0,0,28.8,25.43,209.36,209.36,0,0,0,24.3,15.33l-3.36,10.84,13.83.38-3.73-10.85a215,215,0,0,0,23.93-15.33,215.12,215.12,0,0,0,25.43-22.06c2.52-2.57,16.41-17.2,14.58-37.77-.4-4.58-1.5-17-12-25.81C334.6-2.59,318.73,1,317.38,1.35,304.51,4.51,294.42,15.12,291.2,28.65Z"/><ellipse class="cls-4" cx="329.86" cy="40.8" rx="15.55" ry="21.46"/><path class="cls-2" d="M297.71,109.6l-11.77-.79a76.44,76.44,0,0,0-5.68,24.06c-2.05,30.86,16.75,46.67,22.21,73.52,2.81,13.83,3,35.29-12.43,65.06"/><text class="cls-5" transform="translate(280.1 76.54)">9</text></g></g></svg>