<svg xmlns="http://www.w3.org/2000/svg" viewBox="0 0 408.24 488.69"><defs><style>.cls-1,.cls-2,.cls-6,.cls-8{fill:none;}.cls-1,.cls-2,.cls-3,.cls-4,.cls-8,.cls-9{stroke:#231f20;}.cls-1,.cls-2,.cls-3,.cls-4,.cls-5,.cls-6,.cls-8,.cls-9{stroke-miterlimit:10;}.cls-2,.cls-3{stroke-width:5px;}.cls-3,.cls-4,.cls-7,.cls-9{fill:#231f20;}.cls-5{fill:#fff;stroke:#fff;}.cls-6{stroke:#7b56a4;}.cls-8,.cls-9{stroke-width:0.25px;}</style></defs><g id="Layer_2" data-name="Layer 2"><g id="Layer_2-2" data-name="Layer 2"><line class="cls-1" x1="180.55" y1="119.85" x2="167.83" y2="127.18"/><line class="cls-1" x1="184.11" y1="123.5" x2="195.17" y2="137.78"/><line class="cls-1" x1="195.17" y1="142.85" x2="195.17" y2="158.52"/><line class="cls-2" x1="193.33" y1="162.51" x2="173.05" y2="174.49"/><line class="cls-2" x1="152.78" y1="159.75" x2="168.75" y2="172.34"/><line class="cls-1" x1="237.56" y1="101.07" x2="227.42" y2="121.35"/><line class="cls-1" x1="228.65" y1="127.49" x2="230.5" y2="179.1"/><line class="cls-1" x1="234.49" y1="184.63" x2="260.91" y2="218.73"/><line class="cls-1" x1="201.01" y1="197.53" x2="180.73" y2="218.73"/><line class="cls-1" x1="180.73" y1="223.34" x2="185.95" y2="236.55"/><polyline class="cls-1" points="193.33 233.78 202.54 233.78 206.23 241.46"/><polyline class="cls-1" points="232.49 241.46 234.49 233.78 244.01 233.78"/><line class="cls-1" x1="255.69" y1="237.62" x2="260.91" y2="223.34"/><line class="cls-1" x1="240.94" y1="123.5" x2="230.5" y2="135.48"/><line class="cls-1" x1="247.7" y1="121.35" x2="260.91" y2="127.49"/><line class="cls-1" x1="264.6" y1="137.78" x2="264.6" y2="156.98"/><line class="cls-2" x1="252.19" y1="169.19" x2="267.24" y2="162.9"/><line class="cls-3" x1="248.21" y1="170.81" x2="232.24" y2="163.74"/><polygon class="cls-4" points="177.35 137.78 164.45 145 164.45 154.22 173.05 161.28 185.95 156.98 185.95 142.85 177.35 137.78"/><polygon class="cls-4" points="247.7 137.78 237.56 142.85 237.56 153.3 247.7 158.52 255.69 153.3 255.69 142.85 247.7 137.78"/><polyline class="cls-3" points="170.7 256.83 189.64 271.72 195.17 286.88 223.32 291.81 246.63 291.81 260.91 258.65 176.12 258.65"/><polygon class="cls-5" points="180.56 259.58 258.74 259.58 255.51 270.26 189.46 270.26 180.56 259.58"/><polygon class="cls-5" points="199.06 285.78 214.12 282.49 220.97 285.78 219.05 282.49 231.78 282.49 240.23 290.44 223.16 290.44 199.06 285.78"/><line class="cls-1" x1="238.25" y1="55.77" x2="193.33" y2="70.14"/><line class="cls-1" x1="244.01" y1="57.98" x2="270.14" y2="88.94"/><line class="cls-1" x1="278.43" y1="101.07" x2="270.14" y2="119.36"/><line class="cls-1" x1="274.28" y1="127.49" x2="286.73" y2="142.85"/><line class="cls-1" x1="291.7" y1="142.85" x2="288.94" y2="174.49"/><line class="cls-1" x1="291.7" y1="184.63" x2="299.45" y2="259.58"/><polyline class="cls-6" points="295.57 264.92 258.91 317.33 199.06 320.65"/><line class="cls-6" x1="190.87" y1="315.67" x2="139.08" y2="274.32"/><line class="cls-1" x1="133.55" y1="270.26" x2="124.15" y2="189.59"/><polyline class="cls-1" points="133.55 119.36 143.5 135.48 143.5 158.52 124.15 179.1"/><line class="cls-6" x1="160.76" y1="302.6" x2="160.76" y2="331.07"/><line class="cls-1" x1="164.45" y1="347.25" x2="183.19" y2="367.31"/><line class="cls-1" x1="185.95" y1="376.37" x2="211.51" y2="397.72"/><line class="cls-1" x1="219.65" y1="401.6" x2="244.01" y2="438.48"/><line class="cls-1" x1="143.5" y1="336.25" x2="76.27" y2="361.49"/><line class="cls-1" x1="69.16" y1="372.49" x2="32.27" y2="405.49"/><line class="cls-1" x1="24.51" y1="431.37" x2="16.1" y2="462.43"/><line class="cls-1" x1="266.44" y1="331.07" x2="308.57" y2="340.13"/><line class="cls-1" x1="325.39" y1="347.25" x2="377.8" y2="388.99"/><line class="cls-1" x1="381.03" y1="401.6" x2="401.74" y2="454.66"/><line class="cls-1" x1="360.33" y1="388.99" x2="315.04" y2="401.6"/><polyline class="cls-1" points="308.56 408.72 286.73 428.13 278.43 454.66"/><line class="cls-1" x1="368.74" y1="413.9" x2="362.92" y2="438.48"/><line class="cls-1" x1="331.21" y1="422.96" x2="356.45" y2="438.48"/><polyline class="cls-1" points="384.92 462.43 377.8 446.9 365.83 462.43"/><polyline class="cls-1" points="356.45 466.95 337.68 449.49 331.21 469.54"/><line class="cls-1" x1="325.39" y1="431.69" x2="315.04" y2="462.43"/><line class="cls-1" x1="215.79" y1="417.13" x2="128.85" y2="388.99"/><polyline class="cls-1" points="228.65 454.66 189.64 441.72 45.22 438.49"/><polyline class="cls-1" points="56.86 474.07 69.16 459.51 88.57 474.07"/><polyline class="cls-1" points="102.16 477.31 113.8 459.51 128.85 481.84"/><polyline class="cls-1" points="152.78 481.84 160.76 469.54 183.19 488.31"/><path class="cls-4" d="M244.66,299a1.33,1.33,0,0,0-2.23-.25c-.09.15-.18.3-.26.45-.13-.31-.27-.63-.43-.94-.41-.84-2.07-1.11-2.35,0-.22.84-.43,1.68-.65,2.51l-.38-1a1.31,1.31,0,0,0-2.3-.1c0-.16,0-.32.05-.48.13-1.21-2-1.34-2.4-.28l-1.62,4.2c-.07-1.15-.1-2.29-.1-3.44,0-1.35-2.28-1.3-2.44,0-.11.93-.24,1.86-.38,2.79-.09-.38-.18-.75-.28-1.12-.25-1-2.16-1-2.36,0a9,9,0,0,1-.73,2.18,38.94,38.94,0,0,0-1.5-4.33,1.28,1.28,0,0,0-2.4.28,27.69,27.69,0,0,1-.69,3.61,21.79,21.79,0,0,0-2.26-3.82c-.65-.88-2.24-.51-2.28.52v.11l-.12-.33a1.27,1.27,0,0,0-2.4.28,36.46,36.46,0,0,1-.51,3.88,13.52,13.52,0,0,1-.55-4.1c0-1.13-2.19-1.45-2.4-.28s-.47,2.57-.71,3.86l-1.46-3.43c-.45-1.05-2.4-1-2.4.28v1.52c-.27-.76-.52-1.52-.73-2.29-.29-1-2-.92-2.36,0L200.78,305c-.5,1.26,1.86,1.81,2.35.55l1-2.5a38.19,38.19,0,0,0,2.18,4.63,1.29,1.29,0,0,0,2.28-.52V306l.69,1.63c.36.85,2.15,1.1,2.36,0l.29-1.62a18.8,18.8,0,0,0,1,2,1.33,1.33,0,0,0,2.23-.25c.24-.83.44-1.66.62-2.5.21.78.4,1.56.59,2.34.29,1.17,2.36.85,2.4-.28l.16-3.46a19.5,19.5,0,0,1,1.15,3.21c.28,1.06,2,.91,2.36,0a26.67,26.67,0,0,0,1-3c.24.87.45,1.74.62,2.62s1.68.86,2.24.24a11.6,11.6,0,0,0,1.07-1.38c.23,1.18.43,2.37.59,3.56s2.13,1.52,2.4.27l.12-.6a1.45,1.45,0,0,0,2.16-.42l1.12-2.91,0,.24c.16,1.09,2,1.49,2.4.28.29-.88.61-1.76.94-2.63l.65,1.76c.35.92,2.09,1,2.36,0l.62-2.41c.1.49.19,1,.25,1.49.11,1,1.43,1.24,2.08.78,0,.32,0,.65-.06,1-.13,1.32,2.32,1.31,2.44,0A16.47,16.47,0,0,0,244.66,299Z"/><path class="cls-4" d="M263.77,260.4l-.91-8.3c-.13-1.25-2-1.92-3.13-1-.57-1.21-3.34-1-3.55.36-.13.86-.26,1.73-.42,2.59-.32-1.2-.63-2.4-.95-3.59-.43-1.59-3.12-1.17-3.64.14-.16.42-.3.84-.43,1.26a3.66,3.66,0,0,0-3.4-2.52,4.73,4.73,0,0,0-4.4,2,4.6,4.6,0,0,0-2.45.4,4.59,4.59,0,0,0-3.13-.51,1.68,1.68,0,0,0-.9.5c-.12-.41-.24-.82-.34-1.24-.27-1.13-2-1.28-3-.68l-.09-1.19c-.11-1.65-3.32-2-3.71-.26-.21.93-.4,1.87-.57,2.8a2.16,2.16,0,0,0-3,.63,4.61,4.61,0,0,0-2.82-2,2,2,0,0,0-2.28,1.15l-.76,3.18a47.27,47.27,0,0,1-1.65-4.53c-.37-1.21-2.82-1.44-3.46-.23L213.9,251l0-.8c.08-1.86-3-1.76-3.71-.27-.21.47-.42,1-.62,1.42,0-.52,0-1,.06-1.55.1-1.7-3.36-2-3.72-.26-.25,1.22-.57,2.44-.94,3.64-.29-1.39-.59-2.77-.88-4.16-.37-1.76-3.64-1.07-3.68.55v.16a2,2,0,0,0-3.61.11,34.6,34.6,0,0,1-2,4.57c-.25-1.39-.51-2.78-.77-4.16-.35-1.88-3.65-1.86-3.76.09-.65-1.53-3.54-.84-3.61.72l-.06,1.35c-.18-.71-.34-1.43-.46-2.14-.33-1.9-4-1.84-3.77.14q.15,1.35.18,2.7c-.26-.83-.49-1.68-.69-2.53-.4-1.76-3.63-1.08-3.68.55v.38l-.57-1.61c-.48-1.35-3.43-1.41-3.63.14l-.55,4.12a10.27,10.27,0,0,1-.31-1.12c-.37-1.72-3.73-1.11-3.68.55a6.37,6.37,0,0,1-1.37,4.11c-1.25,1.7,2.07,3.11,3.31,1.41a6.18,6.18,0,0,0,.36-.53,16.43,16.43,0,0,0,1.61,1.76c.86.81,3,.3,3.12-.8l.16-1.25c.44,1.23.87,2.45,1.3,3.68.61,1.71,3.63,1.13,3.69-.55l0-.94c.1.2.21.4.32.59.67,1.21,3.29,1.52,3.63-.14l.12-.67c.25.48.51.95.78,1.42.85,1.49,3.41.43,3.48-.91l0-.48.12.27a2.11,2.11,0,0,0,3.33.36,1.92,1.92,0,0,0,2.06-.75,42.38,42.38,0,0,0,2.43-4,41.85,41.85,0,0,0,1.45,4.35c.53,1.34,3.1,1.37,3.59,0,.81.65,2.59.57,3.06-.38.08-.15.16-.31.23-.47v.05c.25,1.69,3.08,2,3.71.26l0,0c.71.86,2.69,1,3.28-.12l2.75-5.26a46.91,46.91,0,0,0,2.62,5.39c.69,1.23,3.24,1.51,3.63-.14l1.08-4.5c.12.39.21.72.28.9l1.63,4c.54,1.33,2.5,1.26,3.32.33a2.31,2.31,0,0,0,1.62,0c.65,1.2,3.15,1.28,3.55-.26l.89-3.42c.41.7.85,1.38,1.34,2.06.71,1,2.86.84,3.34-.24a14.86,14.86,0,0,0,2.2,2,1.61,1.61,0,0,0,.28.17c0,.31,0,.62,0,.93.13,2,3.74,1.82,3.76-.15,0-.51,0-1,.05-1.55l1.95,1.54a2.08,2.08,0,0,0,2.52,0l.09.27c.56,1.61,3.68,1.18,3.68-.46.67.91,2.73.94,3.28-.12a18.45,18.45,0,0,0,1-2.33c.13.34.26.67.4,1a1.66,1.66,0,0,0,1.41,1C260.66,262.47,264,262.24,263.77,260.4Z"/><path class="cls-4" d="M200.68,316.36a1.87,1.87,0,0,0-2.93-.86,45.11,45.11,0,0,0-.43-5,1.43,1.43,0,0,0-1.42-1.23,1.72,1.72,0,0,0-2.05-.92,12.63,12.63,0,0,0-3.48,2,32.14,32.14,0,0,0-.89-5.57,1.81,1.81,0,0,0-3.27-.39,1.7,1.7,0,0,0-1.65-.57c0-1.61-.12-3.21-.27-4.81-.17-1.8-3.13-2.56-3.49-.46v0a2,2,0,0,0-1.7-.33c-.14-.92-.31-1.85-.52-2.78a1.79,1.79,0,0,0-2.87-.84c-.19-1.37-.45-2.73-.77-4.09a1.81,1.81,0,0,0-3.25-.42c-.51.95-1,1.9-1.46,2.87l-.12-2.82a1.89,1.89,0,0,0-2.15-1.71,8.71,8.71,0,0,0-1.87-5.54,1.42,1.42,0,0,0-1.48-.49c-.23-1.12-.5-2.23-.8-3.33-.44-1.56-3.13-1.77-3.43,0,0,.08,0,.15,0,.23.12-1.4.28-2.8.47-4.19.31-2.16-2.78-3.17-3.42-.93l-1.15,4c-.3-3-.73-6-1.3-8.92-.39-2-3.37-1.4-3.49.47s-.31,3.8-.53,5.69c-.52-2.28-.95-4.58-1.26-6.9a2.14,2.14,0,0,0-2.44-1.69,1.8,1.8,0,0,0-3,.69l-.31.93-.45-3.73A2,2,0,0,0,141,263c0-.92,0-1.84.08-2.76a1.8,1.8,0,0,0-3.31-.89,39.08,39.08,0,0,0-3.71,10.94c-.39,2.21,3,3.16,3.43.94,0-.14.05-.28.08-.41,0,.78.08,1.57.14,2.35.12,1.72,2.48,2.36,3.29.94l.28,2.32a1.79,1.79,0,0,0,3.29.88l0,.3c.08,1.76,2.82,2.44,3.41.79q.73,2.88,1.71,5.71c.5,1.46,2.92,1.8,3.38.16.06,1.58.08,3.18.06,4.77a1.8,1.8,0,0,0,3.31.88,1.8,1.8,0,0,0,3.25.46,30,30,0,0,0,2-3.6c.09.77.15,1.53.2,2.31a26.8,26.8,0,0,0-.06,5.94,1.81,1.81,0,0,0,2.45,1.58,10.72,10.72,0,0,0,.49,2.34A2,2,0,0,0,167,300.2l0,.68a1.79,1.79,0,0,0,3.49.47q.87-2.39,1.9-4.69a41.88,41.88,0,0,1-.15,9.75c-.26,2,3,2.33,3.49.47l.11-.41c-.06.66-.13,1.31-.23,2-.31,2,2.36,3,3.24,1.4,0,.16,0,.32,0,.48a1.68,1.68,0,0,0,1.9,1.71c0,.52-.11,1.05-.17,1.57-.17,1.41,1.49,2,2.6,1.55v1.32c0,1.94,3,2.42,3.49.47l.12-.47a1.69,1.69,0,0,0,2.27.88q-.42.86-.81,1.74a1.77,1.77,0,0,0,3.07,1.77l.12-.18c-.1.49-.2,1-.31,1.49a1.85,1.85,0,0,0,2.52,2.06c.13,1.57,2.4,2.64,3.26.89l1.18-2.41a23.45,23.45,0,0,1-.09,2.64c-.22,2.24,3.34,2.23,3.55,0A24.37,24.37,0,0,0,200.68,316.36Z"/><path class="cls-4" d="M292,260.16a1.79,1.79,0,0,0-.56,2.72,33.38,33.38,0,0,0-4.17.64,1.29,1.29,0,0,0-1,1.36,1.63,1.63,0,0,0-.65,1.92,12.13,12.13,0,0,0,1.85,3.09,24,24,0,0,0-4.6,1.09,1.72,1.72,0,0,0-.15,3,1.66,1.66,0,0,0-.39,1.54c-1.34.12-2.67.27-4,.49-1.5.24-2,3-.2,3.21h0a1.91,1.91,0,0,0-.18,1.57c-.76.17-1.53.37-2.29.61a1.7,1.7,0,0,0-.55,2.67,34.31,34.31,0,0,0-3.37.91,1.72,1.72,0,0,0-.17,3c.81.42,1.64.81,2.47,1.19l-2.35.25a1.71,1.71,0,0,0-1.31,2.05,6.91,6.91,0,0,0-4.52,2,1.39,1.39,0,0,0-.33,1.39c-.92.26-1.83.56-2.73.89-1.28.48-1.32,2.95.18,3.14l.19,0c-1.17,0-2.34-.12-3.52-.23-1.82-.18-2.5,2.7-.59,3.18l3.4.85q-3.71.63-7.37,1.63c-1.68.46-1,3.15.58,3.17s3.18.09,4.78.2a56.68,56.68,0,0,1-5.69,1.49,2,2,0,0,0-1.28,2.32,1.72,1.72,0,0,0,.73,2.72l.8.24-3.09.59a1.83,1.83,0,0,0-1.26,2.3l-2.31.06c-1.42,0-1.9,2.43-.56,3.08a30.81,30.81,0,0,0,9.33,2.85c1.86.25,2.47-2.93.59-3.18l-.35-.06c.66-.07,1.31-.15,2-.24a1.71,1.71,0,0,0,.61-3.06l1.91-.37a1.68,1.68,0,0,0,.56-3.05l.26,0c1.46-.17,1.88-2.7.47-3.16,1.57-.55,3.13-1.16,4.67-1.85,1.19-.52,1.35-2.76,0-3.1,1.32-.13,2.65-.23,4-.29,1.52-.07,1.77-2.38.56-3.07a1.72,1.72,0,0,0,.21-3,23.18,23.18,0,0,0-3.12-1.63c.64-.12,1.28-.21,1.92-.29a20.65,20.65,0,0,0,5-.25,1.65,1.65,0,0,0,1.18-2.31,8.37,8.37,0,0,0,1.93-.57,1.83,1.83,0,0,0,.9-2.06l.56-.06c1.68-.18,1.78-2.69.2-3.22-1.36-.45-2.69-.95-4-1.5a31.65,31.65,0,0,1,8.14-.35c1.68.14,1.79-2.84.2-3.21l-.34-.08c.55,0,1.1.05,1.65.11a1.66,1.66,0,0,0,1-3h.4c.93.07,1.4-.92,1.32-1.81l1.33.07c1.18.09,1.6-1.46,1.14-2.45l1.11-.07c1.62-.12,1.86-2.86.2-3.22l-.4-.08a1.62,1.62,0,0,0,.61-2.13c.5.23,1,.45,1.5.66a1.6,1.6,0,0,0,1.31-2.9l-.16-.1,1.26.21c1.36.25,2.05-1.37,1.58-2.4,1.31-.2,2.08-2.33.57-3l-2.07-1a18,18,0,0,1,2.21-.05c1.88.09,1.68-3.16-.2-3.25A18.82,18.82,0,0,0,292,260.16Z"/><path class="cls-4" d="M198.31,325.84a1.6,1.6,0,0,0,2.73.31c.11-.19.21-.38.31-.57.16.4.33.8.52,1.19.51,1.07,2.53,1.41,2.88,0l.78-3.17.46,1.29a1.58,1.58,0,0,0,2.81.13c0,.2,0,.41-.05.61-.16,1.52,2.43,1.68,2.93.35q1-2.66,2-5.3c.09,1.44.13,2.89.12,4.34,0,1.71,2.79,1.63,3,0,.14-1.18.3-2.35.47-3.52.11.47.22.94.34,1.41.3,1.21,2.63,1.28,2.87,0a11.74,11.74,0,0,1,.9-2.76,47.44,47.44,0,0,0,1.83,5.47,1.54,1.54,0,0,0,2.93-.35,35.18,35.18,0,0,1,.84-4.56,27.34,27.34,0,0,0,2.76,4.83,1.55,1.55,0,0,0,2.78-.66v-.15l.15.42a1.54,1.54,0,0,0,2.93-.34,47.19,47.19,0,0,1,.62-4.9,17.65,17.65,0,0,1,.67,5.17c0,1.43,2.67,1.83,2.93.35l.87-4.87,1.77,4.33c.55,1.33,2.94,1.2,2.93-.35v-1.92c.33.95.63,1.92.89,2.89.35,1.32,2.44,1.16,2.88,0q1.37-3.61,2.75-7.25c.6-1.6-2.28-2.28-2.88-.69l-1.2,3.15a47,47,0,0,0-2.65-5.84,1.55,1.55,0,0,0-2.78.65V317l-.85-2.06c-.44-1.08-2.63-1.4-2.87,0l-.37,2a21,21,0,0,0-1.24-2.52,1.6,1.6,0,0,0-2.73.31c-.29,1.05-.54,2.1-.76,3.16-.25-1-.49-2-.72-3-.35-1.48-2.87-1.07-2.93.35l-.18,4.37a25,25,0,0,1-1.42-4.06c-.33-1.33-2.43-1.15-2.87,0a36.77,36.77,0,0,0-1.22,3.77q-.44-1.63-.75-3.3c-.24-1.25-2-1.09-2.73-.32a13.43,13.43,0,0,0-1.3,1.75c-.29-1.49-.53-3-.73-4.49-.17-1.33-2.6-1.93-2.93-.35l-.15.75A1.75,1.75,0,0,0,213,314c-.45,1.23-.91,2.46-1.36,3.68,0-.1,0-.2,0-.3-.19-1.38-2.44-1.87-2.93-.35-.36,1.12-.74,2.22-1.15,3.32l-.8-2.22c-.41-1.16-2.55-1.32-2.87,0l-.76,3q-.19-.94-.3-1.89a1.65,1.65,0,0,0-2.54-1c0-.41,0-.82.07-1.24.16-1.67-2.83-1.66-3,0A21.48,21.48,0,0,0,198.31,325.84Z"/><path class="cls-4" d="M271.48,99l-1.72-8.57c-.18-.94-1.92-1.13-2.7-.52l-.25-1c-.3-1.21-2.46-1.07-3-.11a20.81,20.81,0,0,0-1.12-1.92,2,2,0,0,0-2.82,0,3.65,3.65,0,0,0-1.9-1.9,1.78,1.78,0,0,0-1.08-.15c0-.63,0-1.26,0-1.89,0-1.14-2.31-1.77-3-.62-.41.7-.9,1.46-1.38,2.25a10.91,10.91,0,0,0-3.86-3,1.74,1.74,0,0,0-2.23.59c-.24-.22-.49-.43-.76-.64A1.9,1.9,0,0,0,243,82c-.18-.16-.38-.33-.59-.49-.88-.66-2.54-.28-2.72.64-.11-.16-.21-.33-.32-.5a1.81,1.81,0,0,0-2.94.38c-.09-.35-.18-.69-.26-1-.27-1.12-2.23-1.08-2.93-.29a3.67,3.67,0,0,0-.84,1.52l-.16-.29c-.69-1.25-3-1.12-3.15.32a72.89,72.89,0,0,0-.33,11.63c.07,1.41,2.69,1.55,3.14.42a2.06,2.06,0,0,0,2.9-.42A22.51,22.51,0,0,0,236,91.42c.24.7.49,1.41.75,2.11.48,1.28,3.27,1.08,3.16-.33-.1-1.22-.18-2.45-.23-3.68a22.11,22.11,0,0,1,.76,4.18l.08,1.11c.1,1.56,3.26,1.58,3.2,0,0-.25,0-.5,0-.74a9.86,9.86,0,0,0,.38,1.08c.54,1.22,3.38,1.12,3.16-.32s-.45-3.14-.61-4.72c.34,1.59.78,3.17,1.24,4.73.33,1.14,2.82,1.2,3.1,0,0-.15.05-.29.08-.44a7,7,0,0,0,1.26,1.13,2,2,0,0,0,1.75.24c0,.13,0,.26,0,.38.08,1.3,2.82,1.75,3.15.33.15-.65.29-1.29.42-1.94,0,.57,0,1.14,0,1.71-.05,1.35,2.82,1.7,3.15.33s.73-3,1.09-4.54a16.42,16.42,0,0,1,.62,2.65,15.24,15.24,0,0,0,.14,2.43c.2,1.35,2.53,1.57,3.09.49,0,.13.09.27.15.4a1.72,1.72,0,0,0,2.38.65l.19,1C268.69,101.18,271.79,100.52,271.48,99ZM250.82,87.6c-.09.2-.18.4-.26.61a13,13,0,0,0-1.35-2.78v-.22A7.36,7.36,0,0,1,250.82,87.6Z"/><line class="cls-1" x1="300.8" y1="334.16" x2="314.7" y2="316.63"/><polyline class="cls-1" points="341.68 251.71 358.36 236.27 376.28 247.18 376.28 274.32 383.75 259.58"/><polyline class="cls-1" points="392.46 253.95 397.69 243.49 392.46 235.53"/><line class="cls-1" x1="371.3" y1="205.66" x2="387.73" y2="228.31"/><line class="cls-1" x1="365.58" y1="191.96" x2="367.57" y2="203.42"/><line class="cls-1" x1="369.81" y1="189.47" x2="383.75" y2="176.78"/><line class="cls-1" x1="379.52" y1="174.49" x2="369.81" y2="153.38"/><polyline class="cls-1" points="367.57 146.41 381.76 116.54 383.75 98.86 365.58 70.73 339.44 74.47 335.21 54.8"/><line class="cls-1" x1="330.48" y1="49.57" x2="307.08" y2="33.64"/><line class="cls-1" x1="300.11" y1="25.93" x2="289.4" y2="9.5"/><line class="cls-1" x1="282.93" y1="5.26" x2="250.08" y2="4.27"/><polyline class="cls-1" points="238.25 9.5 227.43 2.53 211.74 5.26"/><polyline class="cls-1" points="194.81 4.27 177.88 0.54 143.5 23.93"/><polyline class="cls-1" points="134.87 40.36 132.33 50.82 113.66 45.59 104.2 49.82"/><polyline class="cls-1" points="96.48 59.03 86.77 76.96 83.29 91.44"/><polyline class="cls-1" points="71.59 98.11 45.45 106.58 36.24 144.67 44.95 158.86 28.52 184.5 28.52 202.17"/><polyline class="cls-1" points="36.24 202.17 27.03 228.06 9.85 245.73"/><polyline class="cls-1" points="8.61 255.69 8.61 275.11 1.89 283.07 20.56 274.11"/><line class="cls-1" x1="28.52" y1="278.34" x2="5.62" y2="303.24"/><polyline class="cls-1" points="4.62 317.18 19.06 336.25 36.24 336.25"/><polyline class="cls-1" points="44.7 336.25 55.41 360.24 73.83 357.75"/><polyline class="cls-1" points="187.81 73.46 174.19 73.46 160.76 88.94 160.76 103.88 170.7 119.36 152.78 154.6 156.6 119.36 143.5 110.22 134.87 115.58"/><path class="cls-7" d="M196.06,84a1.88,1.88,0,0,0-3.23-1.23,1.75,1.75,0,0,0-2.89.37,13.74,13.74,0,0,0-1,5.91v.39l0-.06a13.8,13.8,0,0,0-3-7,1.63,1.63,0,0,0-2.16-.21A1.57,1.57,0,0,0,182,83.61q-.39,2.53-.57,5.07l-1.14-2.88a1.81,1.81,0,0,0-3.06-.73c-.19-.45-.39-.9-.59-1.34-.74-1.62-2.81-.93-3.24.53a10.42,10.42,0,0,0-.3,4c-.28-.69-.55-1.38-.81-2.08-.6-1.61-3.09-2-3.43.06a30.22,30.22,0,0,0-.26,6.64l-1-1.64a1.77,1.77,0,0,0-3.29,1c0,.52.06,1,.11,1.55-1-1.16-2.92-.12-3,1.49a41.82,41.82,0,0,0,.51,8.44c.39,2.46,3.79,1.34,3.4-1.11,0,0,0,0,0-.08a17.22,17.22,0,0,0,1.3,1.53c1.26,1.33,3.47-.07,2.92-2-.15-.51-.28-1-.42-1.55l1,1.54c1.16,1.87,3.63.59,3.21-1.56-.32-1.67-.64-3.34-.88-5q1.1,2.26,2.31,4.45a1.74,1.74,0,0,0,3.23-.53,8.38,8.38,0,0,0,.25-1.21l.21.72a1.75,1.75,0,0,0,3.35.16c.92,1.49,3.52,1.34,3.31-.91-.11-1.24-.19-2.49-.22-3.74l.78,2.72a1.71,1.71,0,0,0,3.18.45l.09.17c.92,1.77,3.23.79,3.29-1.05,0-1.23.07-2.46.11-3.69a1.76,1.76,0,0,0,3.29-.48A27.74,27.74,0,0,0,196.06,84Z"/><path class="cls-8" d="M266.05,314.08q13.8-12,28-24.12,15-12.78,29.85-25.15"/><line class="cls-8" x1="261.96" y1="326.34" x2="328.8" y2="264.92"/><line class="cls-8" x1="287.5" y1="299.97" x2="302.84" y2="282.49"/><line class="cls-8" x1="307.75" y1="297.57" x2="345.76" y2="264.92"/><line class="cls-1" x1="329.62" y1="303.86" x2="351.59" y2="279.33"/><path class="cls-8" d="M269.11,329.82a221.07,221.07,0,0,1,33.53-26.37c5.68-3.64,11.23-6.82,16.55-9.61"/><path class="cls-8" d="M282.6,336.77a183.81,183.81,0,0,1,38.64-40.27"/><path class="cls-8" d="M382.13,251.65c4.49.58,8.41-1.66,9.47-4.91a7.39,7.39,0,0,0-.67-5.58"/><path class="cls-8" d="M379.42,242.34a20.84,20.84,0,0,1,10.15-8.41,19.51,19.51,0,0,1,4.74-1.07"/><path class="cls-8" d="M366.55,237.26A33.45,33.45,0,0,1,383,225.75"/><path class="cls-8" d="M388.05,216.11a178.22,178.22,0,0,0-48.75,36.22"/><path class="cls-8" d="M331.86,250.13a74.14,74.14,0,0,1,5.07-7.45,75.88,75.88,0,0,1,21.5-18.79"/><path class="cls-8" d="M298,282a171.27,171.27,0,0,1,76.17-68.72"/><path class="cls-8" d="M304.1,263.84a174.66,174.66,0,0,1,51.28-49.93"/><path class="cls-8" d="M349.57,275.52a199.45,199.45,0,0,1,58.61-54.4"/><path class="cls-8" d="M312.05,224.4a322.59,322.59,0,0,1,59.41-50.1"/><path class="cls-8" d="M307.82,212.55l49.09-38.76"/><path class="cls-8" d="M298.68,209.84q10.19-10.5,21.84-21.32c13-12,25.8-22.71,38.08-32.16"/><path class="cls-8" d="M304.27,197c-2.19,1.07-3.43,1.4-3.73,1q-2.16-2.82,61.11-56.2"/><path class="cls-8" d="M299.67,184.35c-2.35,1.17-3.69,1.55-4,1.12q-2.34-3.09,66-61.86"/><path class="cls-8" d="M349.12,122.51A201.65,201.65,0,0,0,311,156.19"/><path class="cls-8" d="M295.8,163.64a226.39,226.39,0,0,1,63.81-59.41"/><path class="cls-8" d="M292.08,128.94l14.22-15.57"/><path class="cls-8" d="M297.16,141.12a383.42,383.42,0,0,1,28.43-26.91c10.09-8.61,19.9-16.07,29.12-22.51"/><path class="cls-8" d="M311.38,109l26.74-26.24"/><path class="cls-8" d="M151.55,305.26A75.69,75.69,0,0,0,137,316c-6.21,5.91-8.34,10.05-16.36,18.77-4.16,4.51-7.75,7.93-10,10"/><path class="cls-8" d="M149.75,293.48A203.54,203.54,0,0,1,102,339.39q-6,4.14-12,7.58"/><path class="cls-8" d="M138.77,286.09,93.46,332.8"/><path class="cls-8" d="M131.39,270.72,86.07,322"/><path class="cls-8" d="M62.12,357.55l9.58-11.37"/><path class="cls-8" d="M64.32,340.19l-10.58,12"/><path class="cls-8" d="M122.4,255.15a216.83,216.83,0,0,1-25.95,37.93A216.92,216.92,0,0,1,70.9,318.43"/><path class="cls-8" d="M45.35,344.38c6.54-7,11.59-13,15-17.17,10.51-12.88,13.79-18.8,22.36-27.14a111.09,111.09,0,0,1,15.77-12.78"/><path class="cls-8" d="M118.41,240.38a322.56,322.56,0,0,1-35.13,49.11,322.77,322.77,0,0,1-32.14,32.13"/><path class="cls-8" d="M111.42,256.15l-52.49,53.1"/><path class="cls-8" d="M49,303.46c21.44-16.37,31.92-28.16,37.52-36.13,3.42-4.86,7.08-9.56,10.28-14.57,5.21-8.18,7.37-12.95,13.08-18a41.46,41.46,0,0,1,9-6"/><path class="cls-8" d="M48.15,292.88c2-1.75,4.84-4.41,8.18-7.79,15-15.15,23.21-28.55,29.54-38.32,6.93-10.69,17.31-25.84,31.94-44.31"/><path class="cls-8" d="M8.21,316a257.23,257.23,0,0,1,73.63-70.95"/><path class="cls-8" d="M130,166.09,45.36,261.46"/><path class="cls-8" d="M109.28,182.82q-40.52,46.11-81,92.24"/><path class="cls-8" d="M110.15,204.09,53.21,261.21"/><path class="cls-8" d="M76,253.39,32.47,297.78"/><path class="cls-8" d="M125.53,150,15.15,265.6"/><path class="cls-8" d="M126.75,144.86,36.49,229.93"/><path class="cls-8" d="M125.83,130.83a573.22,573.22,0,0,0-88.12,86.6"/><path class="cls-8" d="M103.57,133.58,35.27,197.3"/><path class="cls-8" d="M98.08,120.77,52.35,176.26"/><path class="cls-8" d="M28.26,143q-3.59,6.51-2.14,7.93,4.74,4.66,63.73-45.74"/><path class="cls-8" d="M42.28,169.25q36.9-33.69,73.79-67.39"/><path class="cls-8" d="M121.26,55.52,92.9,75"/><path class="cls-9" d="M157,137.78l8.6-16.75"/><path class="cls-8" d="M146.78,108.14a61.87,61.87,0,0,1,13.58-26"/><path class="cls-9" d="M145.65,93.43l15.61-20.59"/><path class="cls-9" d="M152,110.17l3.84-9.5"/><path class="cls-9" d="M156.06,114.24c1.06-2.41,2.11-4.82,3.17-7.24"/><path class="cls-9" d="M158.38,129.41,162.85,114"/><path class="cls-8" d="M97.33,136.65c2-1.75,4.84-4.41,8.18-7.79,15-15.15,23.21-28.55,29.54-38.32C142,79.85,152.36,64.7,167,46.22"/><path class="cls-8" d="M194.35,65.08a383.58,383.58,0,0,1,28.44-26.92c10.09-8.61,19.89-16.07,29.11-22.51"/><path class="cls-8" d="M69.57,134A322.59,322.59,0,0,1,129,83.92"/><line class="cls-8" x1="263.6" y1="65.9" x2="301.61" y2="33.25"/><path class="cls-8" d="M46,132.48A72.66,72.66,0,0,1,51.06,125a75.73,75.73,0,0,1,21.49-18.79"/><path class="cls-8" d="M177.59,15.05Q122.41,72.83,67.21,130.62"/><line class="cls-8" x1="159.26" y1="75.22" x2="181.23" y2="50.69"/><path class="cls-8" d="M135.6,67.11q10.18-10.51,21.84-21.33c13-12,25.81-22.7,38.08-32.16"/><path class="cls-8" d="M280.36,125.83c-1.84.94-2.89,1.24-3.14.89q-1.85-2.46,51.58-49.42"/><path class="cls-8" d="M90.24,85.85a33.28,33.28,0,0,1,16.42-11.51"/><path class="cls-8" d="M173.69,51.63a220.94,220.94,0,0,1,33.52-26.37c5.69-3.64,11.24-6.82,16.56-9.61"/><path class="cls-8" d="M326,54.72A178.35,178.35,0,0,0,277.24,91"/><path class="cls-8" d="M30.47,308.09q-5.28,6-10.57,12"/><path class="cls-8" d="M26,329.58a183.81,183.81,0,0,1,38.64-40.27"/><line class="cls-8" x1="188.79" y1="53.87" x2="210.76" y2="29.34"/><path class="cls-8" d="M226.76,51.35c-.95.69-1.5.91-1.63.66q-.94-1.82,26.77-36.36"/><path class="cls-8" d="M304.49,46.72a232.55,232.55,0,0,0-18.11,17.77,238.84,238.84,0,0,0-15.87,19.34"/><path class="cls-8" d="M286.33,15.77A178.22,178.22,0,0,0,237.58,52"/><path class="cls-8" d="M287.5,101.61a183.2,183.2,0,0,1,38.64-40.27"/><line class="cls-1" x1="258.74" y1="331.07" x2="261.96" y2="438.48"/></g></g></svg>