<svg width="479" height="495" viewBox="0 0 479 495" fill="none" xmlns="http://www.w3.org/2000/svg">
<g clip-path="url(#clip0_43_16903)">
<path d="M202.475 104.438L191.4 110.826" stroke="#231F20" stroke-miterlimit="10"/>
<path d="M205.575 107.619L215.204 120.063" stroke="#231F20" stroke-miterlimit="10"/>
<path d="M215.204 124.481V138.136" stroke="#231F20" stroke-miterlimit="10"/>
<path d="M213.602 141.613L195.945 152.052" stroke="#231F20" stroke-width="5" stroke-miterlimit="10"/>
<path d="M178.297 139.208L192.201 150.179" stroke="#231F20" stroke-width="5" stroke-miterlimit="10"/>
<path d="M252.112 88.0733L243.284 105.745" stroke="#231F20" stroke-miterlimit="10"/>
<path d="M244.355 111.096L245.965 156.069" stroke="#231F20" stroke-miterlimit="10"/>
<path d="M249.439 160.888L272.443 190.603" stroke="#231F20" stroke-miterlimit="10"/>
<path d="M220.289 172.129L202.632 190.603" stroke="#231F20" stroke-miterlimit="10"/>
<path d="M202.632 194.62L207.177 206.132" stroke="#231F20" stroke-miterlimit="10"/>
<path d="M213.602 203.718H221.621L224.834 210.41" stroke="#231F20" stroke-miterlimit="10"/>
<path d="M247.698 210.41L249.439 203.718H257.728" stroke="#231F20" stroke-miterlimit="10"/>
<path d="M267.898 207.064L272.443 194.62" stroke="#231F20" stroke-miterlimit="10"/>
<path d="M255.055 107.619L245.965 118.058" stroke="#231F20" stroke-miterlimit="10"/>
<path d="M260.941 105.745L272.443 111.096" stroke="#231F20" stroke-miterlimit="10"/>
<path d="M275.655 120.063V136.794" stroke="#231F20" stroke-miterlimit="10"/>
<path d="M264.85 147.434L277.954 141.953" stroke="#231F20" stroke-width="5" stroke-miterlimit="10"/>
<path d="M261.385 148.845L247.48 142.685" stroke="#231F20" stroke-width="5" stroke-miterlimit="10"/>
<path d="M199.689 120.063L188.457 126.354V134.389L195.945 140.541L207.177 136.794V124.481L199.689 120.063Z" fill="#231F20" stroke="#231F20" stroke-miterlimit="10"/>
<path d="M260.941 120.063L252.112 124.481V133.587L260.941 138.136L267.898 133.587V124.481L260.941 120.063Z" fill="#231F20" stroke="#231F20" stroke-miterlimit="10"/>
<path d="M193.899 223.804L210.39 236.779L215.204 249.99L239.714 254.286H260.009L272.443 225.39H198.618" fill="#231F20"/>
<path d="M193.899 223.804L210.39 236.779L215.204 249.99L239.714 254.286H260.009L272.443 225.39H198.618" stroke="#231F20" stroke-width="5" stroke-miterlimit="10"/>
<path d="M202.484 226.2H270.553L267.741 235.507H210.233L202.484 226.2Z" fill="white" stroke="white" stroke-miterlimit="10"/>
<path d="M218.591 249.031L231.704 246.164L237.668 249.031L235.996 246.164H247.08L254.437 253.092H239.575L218.591 249.031Z" fill="white" stroke="white" stroke-miterlimit="10"/>
<path d="M252.713 48.5985L213.602 61.1206" stroke="#231F20" stroke-miterlimit="10"/>
<path d="M257.728 50.5243L280.479 77.5031" stroke="#231F20" stroke-miterlimit="10"/>
<path d="M287.697 88.0733L280.479 104.011" stroke="#231F20" stroke-miterlimit="10"/>
<path d="M284.083 111.096L294.923 124.481" stroke="#231F20" stroke-miterlimit="10"/>
<path d="M299.251 124.481L296.848 152.052" stroke="#231F20" stroke-miterlimit="10"/>
<path d="M299.251 160.888L305.998 226.2" stroke="#231F20" stroke-miterlimit="10"/>
<path d="M302.62 230.854L270.701 276.524L218.591 279.417" stroke="#7B56A4" stroke-miterlimit="10"/>
<path d="M211.461 275.078L166.368 239.045" stroke="#7B56A4" stroke-miterlimit="10"/>
<path d="M161.554 235.507L153.369 165.21" stroke="#231F20" stroke-miterlimit="10"/>
<path d="M161.554 104.011L170.217 118.058V138.136L153.369 156.069" stroke="#231F20" stroke-miterlimit="10"/>
<path d="M185.245 263.688V288.497" stroke="#7B56A4" stroke-miterlimit="10"/>
<path d="M188.457 302.597L204.774 320.077" stroke="#231F20" stroke-miterlimit="10"/>
<path d="M207.177 327.972L229.431 346.577" stroke="#231F20" stroke-miterlimit="10"/>
<path d="M236.519 349.958L257.728 382.095" stroke="#231F20" stroke-miterlimit="10"/>
<path d="M170.217 293.011L111.681 315.006" stroke="#231F20" stroke-miterlimit="10"/>
<path d="M105.491 324.591L73.3717 353.348" stroke="#231F20" stroke-miterlimit="10"/>
<path d="M66.6153 375.9L59.2929 402.966" stroke="#231F20" stroke-miterlimit="10"/>
<path d="M277.257 288.497L313.939 296.392" stroke="#231F20" stroke-miterlimit="10"/>
<path d="M328.584 302.597L374.216 338.969" stroke="#231F20" stroke-miterlimit="10"/>
<path d="M377.028 349.958L395.06 396.195" stroke="#231F20" stroke-miterlimit="10"/>
<path d="M359.005 338.969L319.572 349.958" stroke="#231F20" stroke-miterlimit="10"/>
<path d="M313.93 356.162L294.923 373.076L287.697 396.195" stroke="#231F20" stroke-miterlimit="10"/>
<path d="M366.327 360.676L361.26 382.095" stroke="#231F20" stroke-miterlimit="10"/>
<path d="M333.651 368.571L355.627 382.095" stroke="#231F20" stroke-miterlimit="10"/>
<path d="M380.415 402.966L374.216 389.433L363.794 402.966" stroke="#231F20" stroke-miterlimit="10"/>
<path d="M355.627 406.904L339.284 391.69L333.651 409.161" stroke="#231F20" stroke-miterlimit="10"/>
<path d="M328.584 376.179L319.572 402.966" stroke="#231F20" stroke-miterlimit="10"/>
<path d="M233.158 363.491L157.461 338.969" stroke="#231F20" stroke-miterlimit="10"/>
<path d="M244.355 396.195L210.39 384.919L84.6469 382.104" stroke="#231F20" stroke-miterlimit="10"/>
<path d="M94.7816 413.109L105.491 400.421L122.391 413.109" stroke="#231F20" stroke-miterlimit="10"/>
<path d="M134.223 415.932L144.358 400.421L157.461 419.88" stroke="#231F20" stroke-miterlimit="10"/>
<path d="M178.297 419.88L185.245 409.161L204.774 425.518" stroke="#231F20" stroke-miterlimit="10"/>
<path d="M258.294 260.551C258.209 260.376 258.08 260.226 257.921 260.113C257.762 260.001 257.577 259.931 257.383 259.909C257.19 259.887 256.994 259.915 256.813 259.989C256.633 260.063 256.475 260.182 256.353 260.333C256.274 260.464 256.196 260.595 256.126 260.726C256.013 260.455 255.891 260.177 255.752 259.906C255.395 259.174 253.949 258.939 253.706 259.906C253.514 260.638 253.331 261.37 253.14 262.094L252.809 261.222C252.719 261.038 252.581 260.881 252.409 260.768C252.237 260.656 252.039 260.592 251.834 260.583C251.628 260.574 251.425 260.62 251.244 260.718C251.063 260.815 250.912 260.959 250.806 261.135C250.806 260.996 250.806 260.856 250.85 260.717C250.963 259.662 249.109 259.549 248.76 260.473L247.35 264.133C247.289 263.131 247.263 262.137 247.263 261.135C247.263 259.959 245.278 260.002 245.138 261.135C245.042 261.946 244.929 262.756 244.807 263.566C244.729 263.235 244.651 262.913 244.564 262.59C244.346 261.719 242.683 261.719 242.509 262.59C242.379 263.248 242.165 263.887 241.873 264.49C241.512 263.208 241.076 261.948 240.567 260.717C240.466 260.509 240.303 260.338 240.1 260.226C239.898 260.115 239.665 260.07 239.436 260.097C239.206 260.124 238.991 260.221 238.819 260.376C238.648 260.531 238.528 260.735 238.478 260.961C238.347 262.022 238.146 263.073 237.877 264.107C237.336 262.933 236.677 261.818 235.909 260.778C235.343 260.011 233.959 260.333 233.924 261.231V261.327L233.82 261.039C233.722 260.827 233.56 260.65 233.356 260.536C233.153 260.421 232.918 260.374 232.686 260.401C232.454 260.428 232.236 260.528 232.065 260.687C231.893 260.845 231.776 261.054 231.73 261.283C231.642 262.417 231.494 263.546 231.286 264.664C230.944 263.505 230.783 262.3 230.807 261.092C230.807 260.107 228.9 259.828 228.717 260.848C228.535 261.867 228.308 263.087 228.099 264.211L226.828 261.222C226.436 260.307 224.738 260.351 224.738 261.466V262.791C224.503 262.129 224.286 261.466 224.103 260.795C223.85 259.924 222.361 259.994 222.048 260.795L220.089 265.78C219.654 266.878 221.708 267.357 222.135 266.259L223.006 264.08C223.548 265.466 224.182 266.814 224.904 268.115C225.035 268.284 225.212 268.412 225.413 268.484C225.614 268.556 225.832 268.569 226.041 268.522C226.249 268.474 226.44 268.368 226.59 268.216C226.74 268.063 226.844 267.871 226.889 267.662V266.651L227.49 268.072C227.803 268.812 229.362 269.03 229.544 268.072L229.797 266.66C230.052 267.258 230.343 267.84 230.668 268.403C230.79 268.554 230.948 268.673 231.129 268.747C231.309 268.821 231.505 268.849 231.698 268.827C231.892 268.805 232.077 268.735 232.236 268.623C232.395 268.511 232.524 268.36 232.609 268.185C232.818 267.462 232.992 266.738 233.149 266.006C233.332 266.686 233.497 267.366 233.663 268.045C233.915 269.065 235.718 268.786 235.752 267.801L235.892 264.786C236.306 265.688 236.641 266.624 236.893 267.584C237.137 268.507 238.634 268.377 238.948 267.584C239.289 266.73 239.58 265.857 239.818 264.969C240.027 265.727 240.21 266.486 240.358 267.252C240.506 268.019 241.821 268.002 242.309 267.462C242.649 267.085 242.96 266.683 243.24 266.259C243.44 267.287 243.615 268.324 243.754 269.361C243.893 270.398 245.608 270.686 245.844 269.597L245.948 269.074C246.091 269.187 246.256 269.267 246.433 269.311C246.61 269.354 246.794 269.358 246.972 269.323C247.151 269.288 247.32 269.215 247.468 269.109C247.616 269.003 247.739 268.866 247.829 268.708L248.804 266.172V266.381C248.943 267.331 250.545 267.679 250.893 266.625C251.146 265.858 251.425 265.091 251.712 264.333L252.278 265.867C252.583 266.669 254.098 266.738 254.333 265.867L254.872 263.767C254.959 264.194 255.038 264.638 255.09 265.065C255.186 265.937 256.335 266.146 256.901 265.745C256.901 266.024 256.901 266.311 256.849 266.616C256.736 267.767 258.869 267.758 258.973 266.616C259.184 264.569 258.952 262.501 258.294 260.551V260.551Z" fill="#231F20" stroke="#231F20" stroke-miterlimit="10"/>
<path d="M274.933 226.915L274.14 219.682C274.027 218.593 272.399 218.009 271.415 218.811C270.919 217.756 268.507 217.939 268.324 219.125C268.211 219.874 268.098 220.632 267.959 221.381C267.68 220.336 267.41 219.29 267.131 218.253C266.757 216.868 264.415 217.234 263.962 218.375C263.823 218.741 263.701 219.107 263.588 219.473C263.382 218.845 262.987 218.297 262.457 217.903C261.927 217.51 261.287 217.291 260.628 217.277C259.891 217.196 259.147 217.315 258.473 217.622C257.799 217.929 257.22 218.412 256.797 219.02C256.067 218.938 255.329 219.059 254.663 219.369C253.837 218.901 252.871 218.743 251.938 218.924C251.638 218.984 251.364 219.136 251.155 219.36C251.05 219.003 250.946 218.645 250.859 218.279C250.623 217.295 249.117 217.164 248.247 217.687L248.168 216.65C248.072 215.212 245.278 214.907 244.938 216.423C244.755 217.234 244.59 218.053 244.442 218.863C244.234 218.727 244.002 218.633 243.759 218.586C243.515 218.54 243.264 218.542 243.022 218.593C242.779 218.645 242.548 218.743 242.344 218.884C242.139 219.024 241.965 219.204 241.83 219.412C241.268 218.534 240.388 217.909 239.374 217.669C238.979 217.579 238.564 217.629 238.201 217.812C237.839 217.995 237.552 218.299 237.389 218.671L236.728 221.442C236.182 220.152 235.702 218.834 235.291 217.495C234.969 216.441 232.836 216.24 232.278 217.295L231.512 218.724V218.027C231.582 216.406 228.9 216.493 228.282 217.791C228.099 218.201 227.916 218.663 227.742 219.029C227.742 218.576 227.742 218.157 227.794 217.678C227.882 216.197 224.869 215.935 224.556 217.451C224.338 218.515 224.059 219.578 223.737 220.623C223.485 219.412 223.223 218.21 222.971 216.998C222.649 215.465 219.802 216.066 219.767 217.478V217.617C219.616 217.324 219.386 217.08 219.103 216.912C218.819 216.745 218.494 216.662 218.165 216.672C217.836 216.682 217.517 216.785 217.244 216.969C216.971 217.153 216.756 217.411 216.624 217.713C216.14 219.08 215.558 220.411 214.882 221.695C214.665 220.484 214.438 219.273 214.212 218.07C213.907 216.432 211.034 216.449 210.938 218.149C210.372 216.815 207.856 217.417 207.795 218.776L207.743 219.952C207.586 219.334 207.447 218.706 207.342 218.088C207.055 216.432 203.86 216.484 204.06 218.21C204.147 218.994 204.199 219.778 204.217 220.562C203.99 219.839 203.79 219.098 203.616 218.358C203.268 216.824 200.455 217.417 200.412 218.837V219.168L199.915 217.765C199.498 216.589 196.929 216.536 196.755 217.887L196.276 221.477C196.168 221.157 196.078 220.832 196.006 220.501C195.684 219.003 192.759 219.534 192.802 220.981C192.835 222.277 192.413 223.544 191.609 224.562C190.521 226.044 193.412 227.272 194.491 225.791C194.604 225.642 194.708 225.488 194.805 225.329C195.234 225.873 195.703 226.386 196.206 226.863C196.955 227.568 198.818 227.124 198.923 226.166L199.062 225.076C199.445 226.148 199.82 227.211 200.194 228.283C200.725 229.773 203.355 229.268 203.407 227.804V226.985C203.494 227.159 203.59 227.333 203.685 227.499C204.269 228.553 206.55 228.823 206.846 227.377L206.95 226.793C207.168 227.211 207.395 227.621 207.63 228.03C208.37 229.329 210.599 228.405 210.66 227.237V226.819L210.764 227.054C210.911 227.295 211.11 227.5 211.348 227.651C211.586 227.802 211.856 227.897 212.136 227.927C212.417 227.958 212.7 227.923 212.965 227.826C213.23 227.729 213.469 227.572 213.663 227.368C213.993 227.455 214.342 227.439 214.663 227.323C214.983 227.206 215.26 226.994 215.457 226.715C216.226 225.593 216.932 224.429 217.573 223.229C217.924 224.515 218.345 225.78 218.835 227.019C219.297 228.187 221.534 228.213 221.961 227.019C222.666 227.586 224.216 227.516 224.625 226.688C224.695 226.558 224.764 226.418 224.825 226.279V226.322C225.043 227.795 227.507 228.065 228.056 226.549C228.674 227.298 230.398 227.42 230.911 226.444L233.306 221.861C233.965 223.473 234.727 225.042 235.587 226.558C236.188 227.629 238.408 227.873 238.748 226.436L239.688 222.514C239.792 222.854 239.871 223.142 239.932 223.299L241.351 226.784C241.821 227.943 243.528 227.882 244.241 227.072C244.696 227.242 245.197 227.242 245.652 227.072C246.218 228.117 248.395 228.187 248.743 226.845L249.518 223.865C249.875 224.475 250.258 225.068 250.684 225.66C251.303 226.531 253.175 226.392 253.592 225.451C254.171 226.095 254.813 226.678 255.508 227.194C255.584 227.251 255.666 227.301 255.752 227.342C255.752 227.612 255.752 227.882 255.752 228.152C255.865 229.895 259.008 229.738 259.026 228.022C259.026 227.577 259.026 227.15 259.069 226.671L260.767 228.013C261.082 228.253 261.468 228.383 261.864 228.383C262.26 228.383 262.646 228.253 262.961 228.013L263.039 228.248C263.527 229.651 266.243 229.276 266.243 227.847C266.827 228.64 268.62 228.666 269.099 227.743C269.436 227.087 269.727 226.408 269.97 225.712C270.083 226.009 270.196 226.296 270.318 226.584C270.423 226.828 270.593 227.038 270.81 227.192C271.026 227.346 271.281 227.437 271.546 227.455C272.225 228.719 275.133 228.518 274.933 226.915Z" fill="#231F20" stroke="#231F20" stroke-miterlimit="10"/>
<path d="M220.002 275.679C219.917 275.432 219.775 275.21 219.587 275.029C219.399 274.849 219.17 274.717 218.92 274.643C218.67 274.57 218.406 274.558 218.151 274.607C217.895 274.657 217.655 274.768 217.451 274.93C217.407 273.471 217.282 272.017 217.076 270.572C217.034 270.275 216.886 270.002 216.659 269.805C216.432 269.608 216.141 269.5 215.84 269.501C215.688 269.175 215.424 268.915 215.097 268.768C214.769 268.621 214.399 268.596 214.055 268.699C212.959 269.115 211.936 269.703 211.025 270.442C210.91 268.804 210.65 267.18 210.25 265.588C210.158 265.3 209.985 265.044 209.752 264.852C209.519 264.659 209.236 264.538 208.936 264.502C208.636 264.466 208.332 264.518 208.06 264.65C207.788 264.782 207.56 264.99 207.403 265.248C207.231 265.043 207.006 264.889 206.754 264.801C206.501 264.714 206.229 264.697 205.967 264.751C205.967 263.349 205.862 261.954 205.732 260.56C205.584 258.991 203.006 258.329 202.693 260.159C202.483 260.003 202.242 259.897 201.986 259.847C201.729 259.797 201.465 259.805 201.213 259.872C201.091 259.07 200.943 258.259 200.76 257.449C200.684 257.202 200.549 256.978 200.365 256.796C200.181 256.615 199.955 256.482 199.708 256.409C199.46 256.337 199.198 256.327 198.946 256.38C198.693 256.434 198.458 256.55 198.261 256.717C198.096 255.523 197.869 254.338 197.591 253.153C197.499 252.868 197.329 252.614 197.099 252.423C196.869 252.231 196.589 252.109 196.292 252.07C195.995 252.032 195.694 252.079 195.422 252.206C195.151 252.333 194.922 252.534 194.761 252.787C194.317 253.615 193.89 254.443 193.49 255.288L193.385 252.831C193.366 252.607 193.302 252.39 193.196 252.193C193.09 251.995 192.945 251.821 192.77 251.682C192.595 251.542 192.393 251.44 192.177 251.382C191.961 251.323 191.735 251.309 191.513 251.34C191.543 249.592 190.968 247.886 189.885 246.513C189.736 246.324 189.534 246.182 189.305 246.107C189.076 246.031 188.83 246.024 188.597 246.086C188.396 245.11 188.161 244.143 187.9 243.184C187.517 241.825 185.175 241.642 184.914 243.184C184.914 243.254 184.914 243.315 184.914 243.385C185.018 242.165 185.158 240.945 185.323 239.733C185.593 237.851 182.902 236.971 182.345 238.923L181.344 242.409C181.083 239.794 180.708 237.18 180.212 234.636C179.873 232.893 177.278 233.416 177.173 235.045C177.069 236.675 176.904 238.357 176.712 240.003C176.259 238.017 175.885 236.012 175.615 233.991C175.52 233.518 175.245 233.1 174.849 232.826C174.453 232.551 173.966 232.441 173.49 232.518C173.303 232.325 173.068 232.183 172.81 232.107C172.552 232.031 172.278 232.022 172.015 232.083C171.753 232.143 171.51 232.27 171.311 232.452C171.112 232.633 170.963 232.863 170.878 233.119L170.609 233.93L170.217 230.679C170.19 230.43 170.11 230.189 169.981 229.973C169.853 229.757 169.679 229.572 169.472 229.43C169.266 229.287 169.031 229.191 168.783 229.148C168.536 229.105 168.283 229.116 168.04 229.181C168.04 228.379 168.04 227.577 168.11 226.775C168.094 226.444 167.973 226.126 167.765 225.867C167.557 225.608 167.272 225.422 166.951 225.336C166.631 225.25 166.291 225.268 165.981 225.387C165.672 225.506 165.408 225.721 165.228 226C163.685 229 162.597 232.213 161.998 235.533C161.658 237.459 164.61 238.287 164.984 236.352C164.984 236.23 165.028 236.108 165.054 235.995C165.054 236.675 165.123 237.363 165.176 238.043C165.28 239.542 167.335 240.099 168.04 238.862L168.284 240.884C168.301 241.213 168.422 241.528 168.629 241.784C168.836 242.04 169.119 242.224 169.438 242.309C169.756 242.395 170.093 242.377 170.4 242.258C170.707 242.14 170.969 241.927 171.148 241.65V241.912C171.218 243.446 173.604 244.038 174.117 242.6C174.541 244.273 175.037 245.932 175.606 247.576C176.042 248.848 178.149 249.145 178.549 247.715C178.601 249.092 178.619 250.487 178.601 251.872C178.619 252.203 178.741 252.52 178.95 252.777C179.159 253.035 179.444 253.219 179.764 253.304C180.084 253.39 180.423 253.371 180.732 253.252C181.041 253.132 181.304 252.917 181.483 252.639C181.567 252.929 181.734 253.189 181.962 253.387C182.19 253.584 182.47 253.712 182.769 253.755C183.068 253.797 183.372 253.752 183.646 253.625C183.92 253.498 184.152 253.295 184.313 253.04C184.965 252.035 185.546 250.987 186.054 249.903C186.133 250.574 186.185 251.236 186.228 251.916C186.019 253.634 186.002 255.37 186.176 257.092C186.191 257.339 186.264 257.578 186.389 257.792C186.514 258.005 186.687 258.186 186.895 258.32C187.103 258.454 187.339 258.537 187.584 258.563C187.83 258.589 188.078 258.557 188.309 258.469C188.375 259.162 188.518 259.846 188.736 260.508C188.882 260.888 189.156 261.204 189.51 261.403C189.865 261.602 190.278 261.671 190.678 261.597V262.19C190.695 262.554 190.839 262.901 191.086 263.17C191.332 263.439 191.665 263.613 192.026 263.662C192.388 263.711 192.755 263.631 193.064 263.437C193.372 263.243 193.603 262.946 193.716 262.599C194.221 261.211 194.773 259.848 195.371 258.512C195.658 261.34 195.614 264.191 195.24 267.008C195.014 268.751 197.852 269.039 198.279 267.418L198.374 267.061C198.322 267.636 198.261 268.202 198.174 268.804C197.904 270.546 200.229 271.418 200.995 270.024C200.995 270.163 200.995 270.302 200.995 270.442C200.989 270.653 201.03 270.864 201.113 271.058C201.197 271.253 201.322 271.427 201.479 271.569C201.636 271.71 201.822 271.816 202.024 271.879C202.226 271.942 202.44 271.96 202.649 271.932C202.649 272.385 202.554 272.847 202.501 273.3C202.353 274.529 203.799 275.043 204.765 274.651V275.801C204.765 277.491 207.377 277.91 207.804 276.211L207.908 275.801C207.985 275.984 208.097 276.149 208.239 276.287C208.381 276.425 208.549 276.533 208.734 276.605C208.918 276.677 209.115 276.71 209.313 276.704C209.511 276.697 209.705 276.651 209.885 276.568C209.641 277.067 209.406 277.573 209.179 278.084C208.975 278.439 208.92 278.86 209.026 279.256C209.132 279.651 209.391 279.988 209.745 280.193C210.1 280.397 210.521 280.453 210.916 280.346C211.311 280.24 211.648 279.981 211.852 279.626L211.957 279.47C211.87 279.897 211.783 280.341 211.687 280.768C211.632 281.053 211.656 281.348 211.755 281.622C211.854 281.895 212.025 282.136 212.249 282.32C212.474 282.504 212.745 282.624 213.032 282.667C213.319 282.709 213.612 282.674 213.881 282.563C213.994 283.931 215.971 284.864 216.719 283.339L217.747 281.239C217.764 282.006 217.738 282.774 217.668 283.539C217.477 285.491 220.577 285.482 220.759 283.539C221 280.895 220.743 278.229 220.002 275.679V275.679Z" fill="#231F20" stroke="#231F20" stroke-miterlimit="10"/>
<path d="M299.512 226.706C299.306 226.813 299.127 226.964 298.988 227.149C298.848 227.334 298.752 227.548 298.705 227.775C298.658 228.002 298.663 228.236 298.718 228.461C298.773 228.687 298.878 228.896 299.024 229.076C297.804 229.185 296.591 229.371 295.394 229.634C295.13 229.694 294.898 229.846 294.738 230.064C294.578 230.282 294.502 230.55 294.523 230.819C294.254 230.993 294.051 231.253 293.948 231.557C293.846 231.86 293.849 232.19 293.957 232.492C294.357 233.465 294.9 234.372 295.568 235.185C294.205 235.369 292.863 235.687 291.563 236.134C291.324 236.253 291.121 236.433 290.974 236.656C290.828 236.879 290.744 237.137 290.731 237.403C290.717 237.67 290.775 237.935 290.899 238.171C291.022 238.408 291.206 238.607 291.432 238.749C291.268 238.926 291.151 239.142 291.091 239.376C291.032 239.611 291.032 239.856 291.092 240.091C289.926 240.195 288.768 240.326 287.61 240.518C286.304 240.727 285.868 243.132 287.436 243.315C287.313 243.518 287.236 243.746 287.209 243.982C287.182 244.218 287.206 244.457 287.279 244.683C286.617 244.831 285.947 245.005 285.285 245.214C285.076 245.312 284.893 245.457 284.75 245.639C284.607 245.82 284.509 246.032 284.462 246.258C284.416 246.484 284.423 246.717 284.482 246.94C284.542 247.163 284.653 247.369 284.806 247.541C283.815 247.755 282.836 248.02 281.872 248.334C281.632 248.451 281.428 248.629 281.28 248.851C281.132 249.074 281.046 249.331 281.031 249.598C281.016 249.864 281.072 250.13 281.194 250.367C281.316 250.605 281.499 250.805 281.724 250.948C282.429 251.314 283.152 251.654 283.875 251.985L281.828 252.203C281.636 252.244 281.453 252.324 281.291 252.436C281.129 252.548 280.991 252.692 280.885 252.858C280.779 253.024 280.707 253.21 280.673 253.404C280.639 253.598 280.644 253.797 280.688 253.99C279.206 254.065 277.805 254.686 276.752 255.732C276.599 255.889 276.492 256.085 276.441 256.298C276.391 256.512 276.399 256.735 276.465 256.944C275.664 257.17 274.872 257.432 274.088 257.719C272.974 258.137 272.939 260.29 274.245 260.455H274.41C273.392 260.455 272.373 260.351 271.346 260.255C269.761 260.098 269.169 262.608 270.832 263.026L273.792 263.767C271.639 264.133 269.5 264.606 267.375 265.187C265.913 265.588 266.505 267.932 267.88 267.95C269.256 267.967 270.649 268.028 272.042 268.124C270.414 268.642 268.761 269.076 267.088 269.422C266.688 269.565 266.354 269.849 266.148 270.222C265.943 270.594 265.881 271.029 265.973 271.444C265.819 271.629 265.711 271.848 265.66 272.083C265.608 272.318 265.613 272.562 265.676 272.794C265.738 273.027 265.855 273.241 266.018 273.419C266.18 273.596 266.383 273.732 266.609 273.814L267.306 274.023L264.615 274.537C264.41 274.594 264.219 274.692 264.052 274.824C263.885 274.957 263.746 275.121 263.644 275.308C263.542 275.495 263.478 275.7 263.456 275.912C263.435 276.124 263.456 276.338 263.518 276.542L261.507 276.594C260.271 276.594 259.853 278.711 261.019 279.278C263.578 280.532 266.32 281.371 269.143 281.761C270.762 281.979 271.293 279.208 269.656 278.99L269.352 278.938C269.926 278.877 270.492 278.807 271.093 278.729C271.373 278.665 271.628 278.521 271.828 278.315C272.028 278.109 272.165 277.849 272.221 277.568C272.277 277.286 272.251 276.994 272.145 276.727C272.039 276.46 271.858 276.229 271.624 276.062L273.287 275.74C273.569 275.679 273.827 275.535 274.028 275.328C274.229 275.12 274.364 274.858 274.416 274.574C274.468 274.289 274.435 273.996 274.321 273.731C274.207 273.465 274.017 273.24 273.775 273.082H274.001C275.272 272.934 275.638 270.729 274.41 270.328C275.777 269.849 277.136 269.318 278.476 268.716C279.512 268.263 279.652 266.311 278.476 266.015C279.626 265.902 280.784 265.815 281.959 265.762C283.282 265.701 283.5 263.688 282.447 263.087C282.689 262.974 282.896 262.798 283.047 262.578C283.198 262.357 283.288 262.101 283.307 261.834C283.325 261.567 283.272 261.3 283.153 261.061C283.034 260.822 282.853 260.619 282.629 260.473C281.761 259.931 280.853 259.456 279.913 259.052C280.47 258.948 281.027 258.869 281.585 258.8C283.039 258.904 284.501 258.831 285.938 258.582C286.151 258.54 286.353 258.45 286.526 258.319C286.7 258.188 286.841 258.019 286.94 257.825C287.039 257.631 287.093 257.418 287.097 257.2C287.102 256.982 287.057 256.767 286.965 256.569C287.544 256.472 288.108 256.305 288.646 256.072C288.957 255.903 289.204 255.634 289.346 255.309C289.487 254.984 289.517 254.621 289.429 254.277L289.917 254.225C291.38 254.068 291.467 251.881 290.091 251.419C288.907 251.027 287.749 250.591 286.608 250.112C288.948 249.705 291.33 249.602 293.696 249.807C295.158 249.929 295.254 247.332 293.87 247.01L293.574 246.94C294.053 246.94 294.532 246.983 295.01 247.036C295.317 247.039 295.616 246.946 295.866 246.768C296.116 246.59 296.302 246.338 296.399 246.047C296.496 245.756 296.498 245.442 296.405 245.15C296.312 244.857 296.128 244.602 295.881 244.422H296.229C297.039 244.482 297.448 243.62 297.379 242.844L298.537 242.905C299.564 242.984 299.93 241.633 299.529 240.77L300.496 240.709C301.906 240.605 302.115 238.217 300.67 237.903L300.322 237.834C300.629 237.65 300.855 237.355 300.954 237.011C301.052 236.666 301.016 236.297 300.853 235.978C301.288 236.178 301.723 236.37 302.159 236.553C302.485 236.661 302.84 236.644 303.155 236.505C303.47 236.367 303.723 236.116 303.865 235.803C304.006 235.489 304.027 235.134 303.923 234.806C303.818 234.477 303.596 234.2 303.299 234.026L303.16 233.938L304.257 234.121C305.441 234.339 306.042 232.928 305.633 232.03C306.773 231.856 307.444 230 306.129 229.416L304.327 228.544C304.967 228.49 305.609 228.476 306.251 228.501C307.888 228.579 307.714 225.747 306.077 225.669C303.841 225.562 301.606 225.915 299.512 226.706V226.706Z" fill="#231F20" stroke="#231F20" stroke-miterlimit="10"/>
<path d="M217.938 283.94C218.038 284.16 218.193 284.35 218.387 284.492C218.582 284.634 218.811 284.723 219.05 284.75C219.29 284.777 219.532 284.742 219.754 284.647C219.976 284.553 220.169 284.402 220.315 284.21C220.411 284.044 220.498 283.879 220.585 283.713C220.725 284.062 220.873 284.41 221.038 284.75C221.482 285.683 223.241 285.979 223.546 284.75L224.225 281.988L224.625 283.112C224.73 283.343 224.896 283.54 225.106 283.682C225.316 283.824 225.561 283.906 225.814 283.917C226.067 283.929 226.318 283.871 226.54 283.749C226.762 283.627 226.946 283.445 227.072 283.225C227.072 283.4 227.072 283.583 227.028 283.757C226.889 285.081 229.144 285.221 229.579 284.062C230.16 282.517 230.74 280.977 231.321 279.443C231.399 280.698 231.434 281.962 231.425 283.225C231.425 284.715 233.854 284.646 234.037 283.225C234.159 282.197 234.298 281.178 234.446 280.158C234.542 280.568 234.638 280.977 234.742 281.387C235.004 282.441 237.032 282.502 237.241 281.387C237.402 280.556 237.665 279.748 238.025 278.982C238.459 280.601 238.991 282.193 239.618 283.748C239.733 284.013 239.93 284.234 240.181 284.378C240.431 284.521 240.721 284.581 241.007 284.546C241.294 284.512 241.562 284.386 241.771 284.188C241.98 283.989 242.12 283.728 242.169 283.443C242.325 282.104 242.57 280.777 242.901 279.47C243.557 280.951 244.362 282.361 245.304 283.679C245.46 283.893 245.677 284.057 245.926 284.149C246.176 284.24 246.446 284.257 246.705 284.195C246.963 284.134 247.198 283.998 247.379 283.803C247.56 283.609 247.68 283.366 247.724 283.103V282.973L247.855 283.339C247.969 283.604 248.165 283.824 248.415 283.969C248.665 284.113 248.954 284.173 249.24 284.14C249.527 284.107 249.795 283.982 250.005 283.784C250.215 283.587 250.355 283.326 250.406 283.042C250.511 281.611 250.691 280.185 250.946 278.772C251.362 280.237 251.558 281.755 251.529 283.278C251.529 284.524 253.854 284.872 254.08 283.583L254.838 279.339L256.379 283.112C256.858 284.271 258.938 284.158 258.93 282.807V281.134C259.217 281.962 259.478 282.807 259.705 283.652C260.009 284.803 261.829 284.663 262.212 283.652C263.007 281.555 263.806 279.449 264.607 277.335C265.129 275.94 262.621 275.348 262.099 276.733L261.054 279.478C260.402 277.731 259.631 276.031 258.747 274.389C258.591 274.175 258.375 274.011 258.126 273.919C257.878 273.826 257.607 273.809 257.349 273.87C257.091 273.93 256.856 274.065 256.674 274.259C256.492 274.452 256.371 274.694 256.326 274.956V276.237L255.586 274.442C255.203 273.5 253.296 273.222 253.088 274.442L252.765 276.184C252.455 275.429 252.094 274.695 251.686 273.988C251.54 273.797 251.346 273.646 251.124 273.551C250.903 273.457 250.66 273.421 250.421 273.448C250.181 273.476 249.953 273.565 249.758 273.707C249.563 273.849 249.408 274.039 249.309 274.259C249.056 275.174 248.839 276.089 248.647 277.012C248.429 276.141 248.22 275.269 248.02 274.398C247.715 273.108 245.521 273.466 245.469 274.703L245.312 278.511C244.799 277.369 244.386 276.186 244.076 274.973C243.789 273.814 241.96 273.971 241.577 274.973C241.164 276.048 240.81 277.145 240.515 278.258C240.26 277.311 240.042 276.353 239.862 275.383C239.653 274.293 238.121 274.433 237.485 275.104C237.067 275.581 236.689 276.091 236.353 276.629C236.101 275.33 235.892 274.015 235.718 272.716C235.57 271.557 233.454 271.034 233.166 272.411L233.036 273.065C232.855 272.926 232.646 272.829 232.423 272.782C232.201 272.734 231.97 272.737 231.749 272.791C231.528 272.844 231.321 272.947 231.144 273.091C230.968 273.235 230.826 273.416 230.729 273.622C230.337 274.694 229.936 275.766 229.544 276.829C229.544 276.742 229.544 276.655 229.544 276.568C229.379 275.365 227.42 274.938 226.993 276.263C226.68 277.239 226.349 278.197 225.992 279.156L225.296 277.221C224.939 276.211 223.075 276.071 222.797 277.221L222.135 279.836C222.025 279.29 221.938 278.741 221.874 278.189C221.822 277.96 221.716 277.747 221.563 277.569C221.411 277.391 221.217 277.253 220.999 277.167C220.781 277.081 220.545 277.05 220.312 277.076C220.079 277.102 219.856 277.185 219.662 277.317C219.662 276.96 219.662 276.603 219.723 276.237C219.863 274.781 217.259 274.79 217.111 276.237C216.847 278.834 217.129 281.458 217.938 283.94Z" fill="#231F20" stroke="#231F20" stroke-miterlimit="10"/>
<path d="M281.646 86.2695L280.148 78.8015C279.991 77.9824 278.476 77.8168 277.797 78.3484L277.58 77.477C277.318 76.4226 275.438 76.5446 274.968 77.3811C274.673 76.8064 274.347 76.2479 273.992 75.708C273.666 75.3834 273.225 75.2012 272.765 75.2012C272.305 75.2012 271.863 75.3834 271.537 75.708C271.216 74.9657 270.625 74.3736 269.883 74.0523C269.591 73.9114 269.262 73.8657 268.943 73.9216C268.943 73.3726 268.943 72.8237 268.943 72.2747C268.943 71.2813 266.931 70.7323 266.33 71.7344C265.973 72.3444 265.547 73.0066 265.129 73.6951C264.221 72.5804 263.072 71.6866 261.768 71.0808C261.438 70.9145 261.058 70.8749 260.7 70.9696C260.342 71.0643 260.032 71.2868 259.827 71.595C259.618 71.4033 259.4 71.2203 259.165 71.0373C258.986 70.9112 258.783 70.8221 258.57 70.7749C258.356 70.7277 258.135 70.7234 257.92 70.7623C257.704 70.8012 257.499 70.8825 257.315 71.0015C257.131 71.1205 256.973 71.2748 256.849 71.4555C256.692 71.3161 256.518 71.168 256.335 71.0286C255.569 70.4534 254.124 70.7846 253.967 71.5863C253.871 71.4468 253.784 71.2987 253.688 71.1505C253.518 70.9634 253.304 70.8201 253.067 70.7329C252.829 70.6457 252.573 70.6171 252.322 70.6496C252.071 70.6821 251.832 70.7747 251.624 70.9195C251.416 71.0644 251.246 71.2572 251.128 71.4817C251.05 71.1767 250.972 70.8804 250.902 70.6103C250.667 69.6343 248.961 69.6692 248.351 70.3576C248.005 70.7342 247.754 71.1884 247.62 71.6821L247.48 71.4294C246.88 70.3401 244.868 70.4534 244.738 71.7083C244.372 75.0734 244.276 78.4623 244.45 81.8427C244.511 83.0714 246.793 83.1934 247.184 82.2087C247.374 82.352 247.589 82.4562 247.819 82.5154C248.049 82.5745 248.288 82.5875 248.523 82.5534C248.758 82.5194 248.984 82.4391 249.187 82.3171C249.391 82.1951 249.568 82.0338 249.709 81.8427C250.102 81.1387 250.451 80.4112 250.754 79.6642C250.963 80.2742 251.181 80.8929 251.407 81.5029C251.825 82.6183 254.254 82.444 254.158 81.2153C254.071 80.1522 254.002 79.0804 253.958 78.0085C254.295 79.1986 254.517 80.4184 254.62 81.651L254.69 82.6183C254.777 83.9777 257.528 83.9951 257.476 82.6183C257.476 82.4004 257.476 82.1826 257.476 81.9734C257.568 82.2933 257.678 82.6075 257.807 82.9146C258.277 83.9777 260.749 83.8906 260.558 82.6357C260.366 81.3809 260.166 79.8995 260.027 78.5227C260.323 79.9082 260.706 81.285 261.106 82.6444C261.394 83.6378 263.562 83.6901 263.806 82.6444C263.806 82.5137 263.849 82.3917 263.875 82.261C264.2 82.6324 264.568 82.9631 264.972 83.2457C265.193 83.395 265.446 83.4915 265.71 83.5278C265.974 83.564 266.243 83.5391 266.496 83.4548C266.496 83.5681 266.496 83.6814 266.496 83.786C266.566 84.9188 268.951 85.3109 269.239 84.0735C269.369 83.5071 269.491 82.9494 269.604 82.383C269.604 82.8797 269.604 83.3764 269.604 83.8731C269.561 85.0495 272.059 85.3545 272.347 84.1607C272.634 82.9669 272.982 81.5465 273.296 80.2045C273.539 80.958 273.72 81.7304 273.836 82.5137C273.82 83.2217 273.861 83.9298 273.958 84.6312C274.132 85.8077 276.16 85.9994 276.648 85.0582C276.648 85.1715 276.726 85.2935 276.779 85.4068C276.875 85.5823 277.006 85.7366 277.164 85.8605C277.321 85.9844 277.502 86.0755 277.695 86.1283C277.888 86.1811 278.09 86.1946 278.289 86.168C278.487 86.1413 278.678 86.0751 278.851 85.9732L279.016 86.8446C279.216 88.1692 281.916 87.594 281.646 86.2695ZM263.658 76.3354C263.579 76.5097 263.501 76.684 263.431 76.867C263.137 76.0156 262.742 75.2023 262.256 74.4445V74.2528C262.856 74.8478 263.332 75.5555 263.658 76.3354V76.3354Z" fill="#231F20" stroke="#231F20" stroke-miterlimit="10"/>
<path d="M307.174 291.19L319.276 275.914" stroke="#231F20" stroke-miterlimit="10"/>
<path d="M342.767 219.342L357.29 205.888L372.892 215.395V239.045L379.396 226.2" stroke="#231F20" stroke-miterlimit="10"/>
<path d="M386.98 221.294L391.533 212.179L386.98 205.243" stroke="#231F20" stroke-miterlimit="10"/>
<path d="M368.556 179.214L382.861 198.951" stroke="#231F20" stroke-miterlimit="10"/>
<path d="M363.576 167.276L365.309 177.262" stroke="#231F20" stroke-miterlimit="10"/>
<path d="M367.259 165.106L379.396 154.048" stroke="#231F20" stroke-miterlimit="10"/>
<path d="M375.713 152.052L367.259 133.657" stroke="#231F20" stroke-miterlimit="10"/>
<path d="M365.309 127.583L377.664 101.554L379.396 86.1475L363.576 61.6348L340.817 64.8938L337.134 47.7532" stroke="#231F20" stroke-miterlimit="10"/>
<path d="M333.015 43.1958L312.642 29.3142" stroke="#231F20" stroke-miterlimit="10"/>
<path d="M306.573 22.5956L297.248 8.2784" stroke="#231F20" stroke-miterlimit="10"/>
<path d="M291.615 4.58361L263.013 3.72092" stroke="#231F20" stroke-miterlimit="10"/>
<path d="M252.713 8.27839L243.292 2.20467L229.632 4.58361" stroke="#231F20" stroke-miterlimit="10"/>
<path d="M214.891 3.72092L200.151 0.470566L170.217 20.8528" stroke="#231F20" stroke-miterlimit="10"/>
<path d="M162.703 35.1701L160.491 44.285L144.236 39.7275L135.999 43.4136" stroke="#231F20" stroke-miterlimit="10"/>
<path d="M129.278 51.4393L120.823 67.0636L117.793 79.6816" stroke="#231F20" stroke-miterlimit="10"/>
<path d="M107.607 85.4939L84.8472 92.8748L76.8283 126.067L84.4118 138.432L70.1067 160.775V176.173" stroke="#231F20" stroke-miterlimit="10"/>
<path d="M76.8283 176.173L68.8094 198.734L53.8512 214.131" stroke="#231F20" stroke-miterlimit="10"/>
<path d="M52.7716 222.811V239.733L46.9206 246.67L63.1761 238.862" stroke="#231F20" stroke-miterlimit="10"/>
<path d="M70.1067 242.548L50.1682 264.246" stroke="#231F20" stroke-miterlimit="10"/>
<path d="M49.2976 276.394L61.8701 293.011H76.8283" stroke="#231F20" stroke-miterlimit="10"/>
<path d="M84.1942 293.011L93.5191 313.916L109.557 311.747" stroke="#231F20" stroke-miterlimit="10"/>
<path d="M208.796 64.0137H196.938L185.245 77.5031V90.522L193.899 104.011L178.297 134.72L181.623 104.011L170.217 96.0467L162.703 100.717" stroke="#231F20" stroke-miterlimit="10"/>
<path d="M215.979 73.1984C215.966 72.878 215.86 72.5685 215.672 72.3082C215.485 72.0479 215.226 71.8484 214.926 71.7343C214.627 71.6202 214.301 71.5965 213.988 71.6662C213.675 71.7359 213.39 71.896 213.167 72.1265C213.003 71.9368 212.794 71.7906 212.559 71.7011C212.325 71.6115 212.072 71.5814 211.823 71.6133C211.574 71.6452 211.336 71.7381 211.132 71.8839C210.928 72.0297 210.762 72.2238 210.651 72.449C209.985 74.0806 209.688 75.8391 209.78 77.599V77.9388V77.8865C209.498 75.6483 208.593 73.5345 207.168 71.7867C206.932 71.5304 206.61 71.3702 206.263 71.3364C205.916 71.3027 205.569 71.3978 205.288 71.6037C205.102 71.5782 204.914 71.5909 204.734 71.6411C204.554 71.6912 204.386 71.7778 204.241 71.8954C204.096 72.013 203.976 72.1591 203.89 72.3247C203.803 72.4904 203.751 72.6721 203.738 72.8585C203.511 74.3283 203.346 75.801 203.241 77.2766L202.249 74.7669C202.171 74.4995 202.024 74.2575 201.822 74.0655C201.621 73.8735 201.372 73.7383 201.101 73.6737C200.831 73.6091 200.548 73.6173 200.281 73.6976C200.015 73.7779 199.775 73.9273 199.585 74.1308C199.419 73.7386 199.245 73.3465 199.071 72.9631C198.427 71.5514 196.624 72.1527 196.25 73.4249C195.938 74.5589 195.849 75.7427 195.989 76.9106C195.745 76.3093 195.51 75.708 195.283 75.098C194.761 73.6951 192.593 73.3552 192.297 75.1503C192.009 77.0648 191.933 79.0053 192.071 80.9365L191.2 79.5074C191.024 79.2103 190.754 78.9809 190.432 78.8559C190.11 78.7309 189.756 78.7176 189.426 78.818C189.096 78.9184 188.809 79.1268 188.611 79.4098C188.414 79.6928 188.316 80.034 188.335 80.3788C188.335 80.8319 188.388 81.2502 188.431 81.7295C187.561 80.7186 185.889 81.6249 185.819 83.0279C185.719 85.4881 185.867 87.9523 186.263 90.3826C186.603 92.5262 189.563 91.5502 189.224 89.4153C189.224 89.4153 189.224 89.4153 189.224 89.3456C189.575 89.8116 189.953 90.2568 190.355 90.6788C191.453 91.8378 193.377 90.6178 192.898 88.936C192.767 88.4916 192.654 88.0646 192.532 87.5853L193.403 88.9273C194.413 90.5568 196.563 89.4414 196.198 87.5679C195.919 86.1126 195.64 84.6574 195.431 83.2109C196.07 84.5238 196.74 85.8164 197.443 87.0886C197.595 87.3609 197.827 87.5797 198.107 87.7152C198.388 87.8507 198.703 87.8963 199.011 87.8458C199.318 87.7953 199.603 87.6512 199.825 87.4331C200.048 87.2149 200.198 86.9334 200.255 86.6268C200.353 86.2812 200.426 85.9287 200.473 85.5724L200.656 86.1998C200.734 86.5185 200.914 86.8033 201.167 87.0118C201.42 87.2204 201.734 87.3414 202.062 87.3571C202.39 87.3728 202.714 87.2822 202.986 87.0988C203.258 86.9154 203.464 86.649 203.572 86.3392C204.373 87.6376 206.637 87.5069 206.454 85.5462C206.358 84.4657 206.289 83.3764 206.263 82.2872L206.942 84.6574C207.005 84.956 207.159 85.2279 207.382 85.4361C207.606 85.6444 207.887 85.779 208.189 85.8218C208.491 85.8646 208.799 85.8135 209.071 85.6753C209.343 85.5372 209.567 85.3187 209.711 85.0495L209.789 85.1977C210.59 86.7401 212.601 85.8861 212.653 84.2827C212.653 83.2109 212.714 82.139 212.749 81.0672C212.896 81.3498 213.127 81.5797 213.41 81.7249C213.694 81.87 214.015 81.9233 214.33 81.8773C214.645 81.8314 214.938 81.6884 215.168 81.4682C215.398 81.2481 215.554 80.9617 215.614 80.6489C216.12 78.1993 216.243 75.6859 215.979 73.1984V73.1984Z" fill="#231F20"/>
<path d="M276.918 273.692C284.928 266.721 293.054 259.715 301.297 252.674C310.003 245.249 318.667 237.944 327.286 230.758" stroke="#231F20" stroke-width="0.25" stroke-miterlimit="10"/>
<path d="M273.357 284.376L331.553 230.854" stroke="#231F20" stroke-width="0.25" stroke-miterlimit="10"/>
<path d="M295.594 261.397L308.95 246.164" stroke="#231F20" stroke-width="0.25" stroke-miterlimit="10"/>
<path d="M313.225 259.305L346.319 230.854" stroke="#231F20" stroke-width="0.25" stroke-miterlimit="10"/>
<path d="M332.267 264.786L351.395 243.411" stroke="#231F20" stroke-miterlimit="10"/>
<path d="M279.582 287.408C288.55 278.825 298.327 271.129 308.776 264.429C313.721 261.257 318.553 258.486 323.185 256.055" stroke="#231F20" stroke-width="0.25" stroke-miterlimit="10"/>
<path d="M291.328 293.464C300.692 280.122 312.037 268.288 324.97 258.373" stroke="#231F20" stroke-width="0.25" stroke-miterlimit="10"/>
<path d="M377.986 219.29C381.895 219.796 385.308 217.844 386.231 215.011C386.684 213.377 386.474 211.63 385.648 210.149" stroke="#231F20" stroke-width="0.25" stroke-miterlimit="10"/>
<path d="M375.626 211.177C377.702 207.842 380.803 205.27 384.463 203.849C385.795 203.367 387.181 203.054 388.59 202.916" stroke="#231F20" stroke-width="0.25" stroke-miterlimit="10"/>
<path d="M364.421 206.751C368.056 202.018 373.055 198.517 378.743 196.721" stroke="#231F20" stroke-width="0.25" stroke-miterlimit="10"/>
<path d="M383.14 188.32C367.292 196.333 352.935 207.009 340.695 219.883" stroke="#231F20" stroke-width="0.25" stroke-miterlimit="10"/>
<path d="M334.217 217.966C335.555 215.714 337.03 213.546 338.631 211.474C343.78 204.879 350.132 199.323 357.351 195.1" stroke="#231F20" stroke-width="0.25" stroke-miterlimit="10"/>
<path d="M304.736 245.737C320.21 219.463 343.355 198.564 371.055 185.854" stroke="#231F20" stroke-width="0.25" stroke-miterlimit="10"/>
<path d="M310.047 229.913C321.769 212.48 336.971 197.666 354.695 186.403" stroke="#231F20" stroke-width="0.25" stroke-miterlimit="10"/>
<path d="M349.637 240.091C363.275 221.003 380.634 204.878 400.667 192.686" stroke="#231F20" stroke-width="0.25" stroke-miterlimit="10"/>
<path d="M316.969 195.544C332.39 178.959 349.759 164.3 368.696 151.887" stroke="#231F20" stroke-width="0.25" stroke-miterlimit="10"/>
<path d="M313.286 185.218L356.027 151.442" stroke="#231F20" stroke-width="0.25" stroke-miterlimit="10"/>
<path d="M305.328 182.856C311.243 176.757 317.581 170.564 324.343 164.278C335.662 153.821 346.807 144.488 357.499 136.254" stroke="#231F20" stroke-width="0.25" stroke-miterlimit="10"/>
<path d="M310.195 171.668C308.288 172.6 307.209 172.888 306.947 172.539C305.694 170.901 323.429 154.576 360.154 123.566" stroke="#231F20" stroke-width="0.25" stroke-miterlimit="10"/>
<path d="M306.19 160.644C304.144 161.664 302.977 161.995 302.707 161.62C301.349 159.825 320.504 141.857 360.172 107.715" stroke="#231F20" stroke-width="0.25" stroke-miterlimit="10"/>
<path d="M349.245 106.756C336.988 115.098 325.836 124.959 316.055 136.105" stroke="#231F20" stroke-width="0.25" stroke-miterlimit="10"/>
<path d="M302.82 142.597C317.813 121.901 336.682 104.318 358.378 90.827" stroke="#231F20" stroke-width="0.25" stroke-miterlimit="10"/>
<path d="M299.581 112.359L311.962 98.7917" stroke="#231F20" stroke-width="0.25" stroke-miterlimit="10"/>
<path d="M304.005 122.973C311.851 114.74 320.113 106.913 328.758 99.5236C337.543 92.0208 346.084 85.5201 354.112 79.9082" stroke="#231F20" stroke-width="0.25" stroke-miterlimit="10"/>
<path d="M316.385 94.9836L339.667 72.1178" stroke="#231F20" stroke-width="0.25" stroke-miterlimit="10"/>
<path d="M177.226 266.006C172.644 268.608 168.391 271.75 164.557 275.365C159.15 280.515 157.296 284.123 150.313 291.722C146.691 295.652 143.565 298.632 141.606 300.436" stroke="#231F20" stroke-width="0.25" stroke-miterlimit="10"/>
<path d="M175.658 255.741C164.076 271.259 150.032 284.774 134.084 295.748C130.601 298.153 127.118 300.354 123.636 302.353" stroke="#231F20" stroke-width="0.25" stroke-miterlimit="10"/>
<path d="M166.098 249.301L126.648 290.005" stroke="#231F20" stroke-width="0.25" stroke-miterlimit="10"/>
<path d="M159.673 235.908L120.214 280.594" stroke="#231F20" stroke-width="0.25" stroke-miterlimit="10"/>
<path d="M99.3613 311.572L107.702 301.664" stroke="#231F20" stroke-width="0.25" stroke-miterlimit="10"/>
<path d="M101.277 296.445L92.0651 306.902" stroke="#231F20" stroke-width="0.25" stroke-miterlimit="10"/>
<path d="M151.846 222.34C145.505 234.127 137.932 245.207 129.252 255.393C122.461 263.36 115.02 270.749 107.006 277.483" stroke="#231F20" stroke-width="0.25" stroke-miterlimit="10"/>
<path d="M84.7601 300.096C90.4543 293.996 94.8512 288.768 97.8202 285.134C106.971 273.91 109.827 268.751 117.288 261.484C121.516 257.36 126.112 253.632 131.019 250.347" stroke="#231F20" stroke-width="0.25" stroke-miterlimit="10"/>
<path d="M148.372 209.469C139.535 224.66 129.295 238.988 117.785 252.264C109.126 262.243 99.7748 271.599 89.8013 280.263" stroke="#231F20" stroke-width="0.25" stroke-miterlimit="10"/>
<path d="M142.286 223.211L96.5839 269.483" stroke="#231F20" stroke-width="0.25" stroke-miterlimit="10"/>
<path d="M87.9381 264.438C106.605 250.173 115.73 239.899 120.606 232.954C123.583 228.719 126.77 224.623 129.556 220.257C134.093 213.129 135.973 208.973 140.945 204.572C143.317 202.494 145.952 200.736 148.781 199.344" stroke="#231F20" stroke-width="0.25" stroke-miterlimit="10"/>
<path d="M87.198 255.218C88.9393 253.693 91.4121 251.375 94.3201 248.43C107.38 235.228 114.528 223.551 120.04 215.038C126.074 205.722 135.111 192.52 147.849 176.425" stroke="#231F20" stroke-width="0.25" stroke-miterlimit="10"/>
<path d="M52.4233 275.365C69.4433 250.67 91.2432 229.646 116.531 213.539" stroke="#231F20" stroke-width="0.25" stroke-miterlimit="10"/>
<path d="M158.463 144.732L84.7688 227.839" stroke="#231F20" stroke-width="0.25" stroke-miterlimit="10"/>
<path d="M140.422 159.311C116.902 186.098 93.3943 212.891 69.8977 239.69" stroke="#231F20" stroke-width="0.25" stroke-miterlimit="10"/>
<path d="M141.18 177.846L91.6036 227.621" stroke="#231F20" stroke-width="0.25" stroke-miterlimit="10"/>
<path d="M111.446 220.806L73.5458 259.488" stroke="#231F20" stroke-width="0.25" stroke-miterlimit="10"/>
<path d="M154.571 130.711L58.4658 231.446" stroke="#231F20" stroke-width="0.25" stroke-miterlimit="10"/>
<path d="M155.633 126.232L77.0459 200.363" stroke="#231F20" stroke-width="0.25" stroke-miterlimit="10"/>
<path d="M154.832 114.006C126.616 136.321 100.892 161.623 78.1082 189.47" stroke="#231F20" stroke-width="0.25" stroke-miterlimit="10"/>
<path d="M135.451 116.403L75.9837 171.929" stroke="#231F20" stroke-width="0.25" stroke-miterlimit="10"/>
<path d="M130.671 105.24L90.8548 153.595" stroke="#231F20" stroke-width="0.25" stroke-miterlimit="10"/>
<path d="M69.8803 124.611C67.7965 128.393 67.1754 130.697 68.0171 131.522C70.7684 134.229 89.2644 120.943 123.505 91.6635" stroke="#231F20" stroke-width="0.25" stroke-miterlimit="10"/>
<path d="M82.0871 147.486C103.506 127.914 124.921 108.339 146.334 88.7617" stroke="#231F20" stroke-width="0.25" stroke-miterlimit="10"/>
<path d="M150.853 48.3806L126.161 65.3557" stroke="#231F20" stroke-width="0.25" stroke-miterlimit="10"/>
<path d="M181.971 120.063L189.459 105.467Z" fill="#231F20"/>
<path d="M181.971 120.063L189.459 105.467" stroke="#231F20" stroke-width="0.25" stroke-miterlimit="10"/>
<path d="M173.073 94.2342C175.142 85.8426 179.197 78.072 184.896 71.5775" stroke="#231F20" stroke-width="0.25" stroke-miterlimit="10"/>
<path d="M172.089 81.4158L185.68 63.4734Z" fill="#231F20"/>
<path d="M172.089 81.4158L185.68 63.4734" stroke="#231F20" stroke-width="0.25" stroke-miterlimit="10"/>
<path d="M177.617 96.0031L180.961 87.7247Z" fill="#231F20"/>
<path d="M177.617 96.0031L180.961 87.7247" stroke="#231F20" stroke-width="0.25" stroke-miterlimit="10"/>
<path d="M181.152 99.5498C182.075 97.4497 182.99 95.3496 183.912 93.2408Z" fill="#231F20"/>
<path d="M181.152 99.5498C182.075 97.4497 182.99 95.3496 183.912 93.2408" stroke="#231F20" stroke-width="0.25" stroke-miterlimit="10"/>
<path d="M183.172 112.769L187.064 99.3406Z" fill="#231F20"/>
<path d="M183.172 112.769L187.064 99.3406" stroke="#231F20" stroke-width="0.25" stroke-miterlimit="10"/>
<path d="M130.018 119.078C131.759 117.553 134.232 115.235 137.14 112.29C150.2 99.0879 157.348 87.4111 162.86 78.8974C168.911 69.582 177.931 56.3802 190.678 40.2765" stroke="#231F20" stroke-width="0.25" stroke-miterlimit="10"/>
<path d="M214.491 56.7113C222.34 48.475 230.605 40.6454 239.252 33.253C248.038 25.7501 256.57 19.2494 264.598 13.6376" stroke="#231F20" stroke-width="0.25" stroke-miterlimit="10"/>
<path d="M105.848 116.769C121.276 100.188 138.65 85.5352 157.592 73.1286" stroke="#231F20" stroke-width="0.25" stroke-miterlimit="10"/>
<path d="M274.785 57.4259L307.879 28.9743" stroke="#231F20" stroke-width="0.25" stroke-miterlimit="10"/>
<path d="M85.326 115.444C86.6581 113.182 88.1295 111.005 89.7317 108.926C94.8751 102.33 101.225 96.7738 108.442 92.5524" stroke="#231F20" stroke-width="0.25" stroke-miterlimit="10"/>
<path d="M199.898 13.1147C167.869 46.6814 135.834 80.251 103.793 113.823" stroke="#231F20" stroke-width="0.25" stroke-miterlimit="10"/>
<path d="M183.939 65.5474L203.067 44.1717" stroke="#231F20" stroke-width="0.25" stroke-miterlimit="10"/>
<path d="M163.338 58.4803C169.247 52.3746 175.586 46.1789 182.354 39.8931C193.673 29.4362 204.826 20.1121 215.509 11.8686" stroke="#231F20" stroke-width="0.25" stroke-miterlimit="10"/>
<path d="M289.377 109.649C287.775 110.469 286.861 110.73 286.643 110.425C285.569 108.996 300.539 94.6408 331.553 67.3599" stroke="#231F20" stroke-width="0.25" stroke-miterlimit="10"/>
<path d="M123.845 74.8105C127.467 70.0756 132.459 66.5733 138.141 64.7805" stroke="#231F20" stroke-width="0.25" stroke-miterlimit="10"/>
<path d="M196.502 44.9909C205.468 36.4071 215.241 28.7116 225.687 22.0118C230.642 18.8399 235.474 16.0688 240.106 13.6376" stroke="#231F20" stroke-width="0.25" stroke-miterlimit="10"/>
<path d="M329.115 47.6835C313.26 55.7131 298.901 66.4066 286.661 79.2982" stroke="#231F20" stroke-width="0.25" stroke-miterlimit="10"/>
<path d="M71.8045 268.472C68.7397 271.958 65.672 275.444 62.6015 278.929" stroke="#231F20" stroke-width="0.25" stroke-miterlimit="10"/>
<path d="M67.9126 287.199C77.2768 273.856 88.6219 262.023 101.555 252.107" stroke="#231F20" stroke-width="0.25" stroke-miterlimit="10"/>
<path d="M209.65 46.9428L228.778 25.5671" stroke="#231F20" stroke-width="0.25" stroke-miterlimit="10"/>
<path d="M242.709 44.7469C241.882 45.3481 241.403 45.5398 241.29 45.322C240.744 44.2647 248.514 33.7032 264.598 13.6376" stroke="#231F20" stroke-width="0.25" stroke-miterlimit="10"/>
<path d="M310.387 40.7122C304.853 45.5829 299.589 50.7522 294.619 56.1972C289.722 61.5694 285.11 67.1948 280.801 73.0502" stroke="#231F20" stroke-width="0.25" stroke-miterlimit="10"/>
<path d="M294.575 13.7421C278.726 21.7576 264.369 32.4363 252.13 45.3133" stroke="#231F20" stroke-width="0.25" stroke-miterlimit="10"/>
<path d="M295.594 88.5439C304.952 75.1957 316.298 63.3612 329.237 53.4522" stroke="#231F20" stroke-width="0.25" stroke-miterlimit="10"/>
<path d="M270.553 288.497L273.357 382.095" stroke="#231F20" stroke-miterlimit="10"/>
</g>
<path d="M80.1786 381.677H0V495H81.6146V490.035H24.3762V430.489H62.6098V423.863H23.9659V387.053H80.1786V381.677Z" fill="#EF3A4E"/>
<path d="M76.2433 394.744L129.975 452.609C133.071 425.244 133.109 404.954 129.975 401.333C128.878 400.016 127.439 399.028 125.816 398.477C122.571 397.674 119.867 399.765 119.233 398.925C118.599 398.085 119.904 396.069 121.378 394.744C125.331 391.309 131.729 393.157 133.09 393.568C134.951 394.492 136.621 395.759 138.014 397.301C139.322 398.832 140.374 400.566 141.128 402.434C142.844 406.839 142.994 441.857 141.128 489.904L84.9158 431.516C84.5055 443.07 84.4682 452.292 84.5055 458.339C84.5055 472.712 85.1396 480.067 80.5702 482.96C79.2835 483.67 77.8476 484.065 76.3794 484.113C74.9112 484.162 73.4523 483.863 72.1215 483.24C67.1605 481 65.482 474.467 66.3212 473.907C67.1605 473.347 70.3684 479.32 72.9981 478.723C77.3064 477.752 76.5417 460.057 76.2247 438.572C76.0568 427.652 75.9636 412.682 76.2433 394.744Z" fill="#EF3A4E"/>
<path d="M207.207 481.84C204.243 482.808 201.093 483.064 198.012 482.587C190.523 481.987 183.48 478.777 178.112 473.515C175.376 470.64 173.233 467.253 171.808 463.547C168.974 456.564 167.916 448.986 168.73 441.492C169.544 433.999 172.204 426.825 176.471 420.615C178.306 417.996 180.563 415.7 183.148 413.82C188.892 409.658 198.945 405.775 204.559 410.087C205.739 410.954 206.692 412.094 207.338 413.41C206.017 413.481 204.751 413.962 203.716 414.785C202.68 415.608 201.926 416.733 201.557 418.004C201.188 419.275 201.224 420.63 201.658 421.88C202.092 423.13 202.904 424.214 203.981 424.983C205.337 426.18 207.032 426.924 208.831 427.112C210.629 427.299 212.441 426.92 214.015 426.028C215.18 425.248 216.148 424.208 216.844 422.991C217.54 421.773 217.944 420.41 218.024 419.01C218.116 416.174 217.379 413.373 215.905 410.95C214.431 408.527 212.284 406.586 209.725 405.364C204.211 402.842 198.219 401.536 192.156 401.536C186.093 401.536 180.101 402.842 174.587 405.364C165.415 409.759 157.995 417.126 153.531 426.271C145.064 444.582 150.845 468.512 167.426 481.037C184.64 494.104 205.305 488.504 206.592 488.187C210.809 486.994 214.816 485.155 218.472 482.736C218.988 482.412 219.425 481.975 219.748 481.457C220.071 480.94 220.272 480.356 220.337 479.75C220.336 479.131 220.171 478.524 219.86 477.99C219.549 477.455 219.102 477.013 218.565 476.707C215.992 475.531 213.045 479.862 207.207 481.84Z" fill="#EF3A4E"/>
<path d="M344.662 409.957H354.994V478.294H341.939L301.877 430.77L301.336 471.275C301.336 471.742 301.467 473.478 300.423 474.225C300.031 474.44 299.597 474.564 299.151 474.586C298.705 474.609 298.26 474.53 297.849 474.355C294.007 473.123 295.089 452.441 295.443 439.449C296.096 415.482 294.697 401.949 299.061 400.81C299.58 400.726 300.11 400.752 300.618 400.887C301.126 401.022 301.6 401.263 302.008 401.594L342.778 451.396C342.757 451.559 342.771 451.724 342.819 451.882C342.867 452.039 342.948 452.184 343.057 452.307C343.165 452.43 343.299 452.529 343.449 452.597C343.598 452.665 343.761 452.7 343.925 452.7C344.089 452.7 344.251 452.665 344.401 452.597C344.551 452.529 344.684 452.43 344.793 452.307C344.901 452.184 344.982 452.039 345.03 451.882C345.079 451.724 345.093 451.559 345.072 451.396C344.923 437.608 344.786 423.795 344.662 409.957Z" fill="#EF3A4E"/>
<path d="M389.423 488.523H371.667V402.826H343.43C341.756 402.469 340.281 401.486 339.307 400.078C338.333 398.669 337.933 396.941 338.19 395.248C338.497 393.814 339.268 392.523 340.385 391.574C341.501 390.625 342.9 390.073 344.363 390.002C344.017 390.428 343.77 390.925 343.637 391.457C343.505 391.989 343.492 392.544 343.598 393.082C345.034 397.618 360.775 395.826 378.605 395.248C387.931 394.949 400.557 394.893 415.776 395.901C417.245 396.523 418.567 397.446 419.659 398.609C420.751 399.773 421.588 401.152 422.117 402.658C423.684 408.165 419.525 413.858 415.011 415.948C413.414 416.68 411.676 417.05 409.92 417.031C408.318 417.206 406.703 416.88 405.294 416.098C402.646 414.567 401.564 411.506 401.9 411.151C402.236 410.797 403.933 413.26 406.842 413.466C408.023 413.533 409.199 413.268 410.237 412.701C411.748 411.818 412.853 410.377 413.314 408.687C413.545 407.67 413.541 406.613 413.302 405.597C413.063 404.581 412.595 403.633 411.934 402.826H389.796L389.423 488.523Z" fill="#EF3A4E"/>
<path d="M308.89 480.963C308.89 480.776 307.939 478.126 306.484 478.051C304.619 477.958 304.116 482.456 301.859 483.203C297.737 484.566 290.557 472.731 290.557 472.731C279.478 454.476 260.529 409.676 254.748 395.901H242.923L206.256 470.846C205.919 471.486 205.804 472.22 205.929 472.933C206.054 473.646 206.412 474.297 206.946 474.784C207.383 474.944 207.847 475.013 208.311 474.986C208.775 474.96 209.229 474.839 209.644 474.631C210.06 474.423 210.428 474.133 210.728 473.777C211.027 473.421 211.251 473.008 211.385 472.563L226.809 439.804L253.032 439.636C255.568 446.076 264.465 468.083 274.275 481.654C276.347 484.648 279.037 487.163 282.164 489.027C284.029 490.165 292.44 494.627 301.169 491.248C303.611 490.28 305.832 488.826 307.696 486.973C308.33 486.124 308.767 485.143 308.973 484.103C309.18 483.064 309.151 481.99 308.89 480.963V480.963Z" stroke="#EF3C4F" stroke-miterlimit="10"/>
<path fill-rule="evenodd" clip-rule="evenodd" d="M403.299 453.505C402.664 432.785 419.804 416.079 439.387 415.276C457.329 414.586 473.723 427.372 477.267 444.134C481.948 466.048 463.577 489.381 440.6 489.493C421.856 489.587 403.933 474.224 403.299 453.505ZM411.803 454.513C409.882 438.535 424.598 424.834 436.422 424.404C440.574 424.299 444.636 425.623 447.929 428.156C452.48 431.796 456.49 439.169 453.674 443.967C452.962 445.059 452.014 445.979 450.901 446.657C449.787 447.335 448.536 447.755 447.239 447.887C444.172 448.232 441.787 446.673 440.306 445.705C439.464 445.155 438.914 444.796 438.697 445.087C438.101 445.889 442.558 453.636 448.769 453.356C450.148 453.173 451.477 452.72 452.681 452.022C453.884 451.323 454.938 450.394 455.781 449.287C458.385 446.303 458.89 442.937 459.153 441.176C459.268 440.415 459.337 439.953 459.511 439.953C460.407 439.972 464.659 452.497 458.392 463.884C458.075 464.462 450.447 477.753 436.571 477.753C423.889 477.715 413.258 466.534 411.803 454.513Z" fill="#EF3E4F"/>
<path d="M439.387 415.276L439.368 414.777L439.367 414.777L439.387 415.276ZM403.299 453.505L402.799 453.52L403.299 453.505ZM477.267 444.134L476.777 444.238L476.778 444.239L477.267 444.134ZM440.6 489.493L440.597 488.993L440.597 488.993L440.6 489.493ZM436.422 424.404L436.409 423.905L436.404 423.905L436.422 424.404ZM411.803 454.513L411.307 454.573L411.307 454.573L411.803 454.513ZM447.929 428.156L448.242 427.766L448.234 427.76L447.929 428.156ZM453.674 443.967L454.093 444.24L454.099 444.23L454.105 444.22L453.674 443.967ZM450.901 446.657L451.161 447.084L451.161 447.084L450.901 446.657ZM447.239 447.887L447.189 447.389L447.183 447.39L447.239 447.887ZM440.306 445.705L440.58 445.287L440.58 445.287L440.306 445.705ZM438.697 445.087L439.099 445.385L439.099 445.385L438.697 445.087ZM448.769 453.356L448.791 453.855L448.813 453.854L448.834 453.851L448.769 453.356ZM455.781 449.287L455.405 448.958L455.394 448.97L455.384 448.984L455.781 449.287ZM459.153 441.176L458.659 441.102L458.659 441.102L459.153 441.176ZM459.511 439.953L459.522 439.453H459.511V439.953ZM458.392 463.884L457.954 463.642L457.954 463.643L458.392 463.884ZM436.571 477.753L436.57 478.253H436.571V477.753ZM439.367 414.777C419.529 415.59 402.156 432.508 402.799 453.52L403.798 453.489C403.173 433.062 420.08 416.568 439.408 415.776L439.367 414.777ZM477.756 444.031C474.16 427.024 457.547 414.077 439.368 414.777L439.407 415.776C457.112 415.094 473.285 427.72 476.777 444.238L477.756 444.031ZM440.602 489.993C463.899 489.88 482.503 466.252 477.755 444.03L476.778 444.239C481.393 465.845 463.255 488.883 440.597 488.993L440.602 489.993ZM402.799 453.52C403.442 474.528 421.605 490.088 440.602 489.993L440.597 488.993C422.107 489.085 404.424 473.921 403.798 453.489L402.799 453.52ZM436.404 423.905C430.323 424.126 423.568 427.745 418.586 433.294C413.596 438.852 410.326 446.41 411.307 454.573L412.3 454.453C411.36 446.638 414.487 439.356 419.33 433.962C424.181 428.559 430.697 425.113 436.44 424.904L436.404 423.905ZM448.234 427.76C444.85 425.157 440.676 423.796 436.409 423.905L436.435 424.904C440.472 424.802 444.422 426.089 447.625 428.553L448.234 427.76ZM454.105 444.22C455.627 441.626 455.273 438.4 454.025 435.434C452.773 432.457 450.581 429.637 448.242 427.766L447.617 428.547C449.829 430.316 451.917 433.002 453.103 435.821C454.294 438.651 454.536 441.51 453.243 443.713L454.105 444.22ZM451.161 447.084C452.338 446.367 453.34 445.395 454.093 444.24L453.255 443.694C452.584 444.724 451.69 445.591 450.641 446.23L451.161 447.084ZM447.29 448.384C448.661 448.245 449.984 447.801 451.161 447.084L450.641 446.23C449.591 446.87 448.412 447.266 447.189 447.389L447.29 448.384ZM440.033 446.124C441.505 447.086 444.03 448.751 447.295 448.383L447.183 447.39C444.314 447.712 442.069 446.26 440.58 445.287L440.033 446.124ZM439.099 445.385C439.043 445.46 438.954 445.484 438.914 445.483C438.906 445.483 438.946 445.484 439.061 445.536C439.287 445.638 439.597 445.839 440.033 446.124L440.58 445.287C440.173 445.021 439.787 444.767 439.473 444.625C439.318 444.555 439.127 444.486 438.929 444.483C438.698 444.48 438.46 444.567 438.296 444.788L439.099 445.385ZM448.746 452.856C445.858 452.986 443.324 451.246 441.551 449.291C440.67 448.321 440 447.321 439.59 446.527C439.384 446.128 439.252 445.796 439.187 445.555C439.155 445.433 439.144 445.353 439.144 445.308C439.143 445.25 439.158 445.305 439.099 445.385L438.296 444.788C438.162 444.968 438.142 445.178 438.144 445.322C438.146 445.478 438.177 445.646 438.221 445.813C438.31 446.148 438.477 446.55 438.702 446.986C439.154 447.861 439.874 448.932 440.81 449.963C442.668 452.012 445.469 454.005 448.791 453.855L448.746 452.856ZM452.43 451.589C451.283 452.254 450.017 452.686 448.703 452.86L448.834 453.851C450.279 453.66 451.671 453.186 452.932 452.454L452.43 451.589ZM455.384 448.984C454.58 450.038 453.576 450.924 452.43 451.589L452.932 452.454C454.192 451.723 455.296 450.749 456.179 449.589L455.384 448.984ZM458.659 441.102C458.396 442.856 457.906 446.092 455.405 448.958L456.158 449.615C458.864 446.514 459.383 443.018 459.648 441.25L458.659 441.102ZM459.511 439.453C459.206 439.453 459.036 439.667 458.968 439.782C458.897 439.901 458.855 440.039 458.825 440.156C458.764 440.397 458.714 440.733 458.659 441.102L459.648 441.25C459.707 440.858 459.749 440.583 459.794 440.402C459.818 440.309 459.833 440.284 459.828 440.293C459.825 440.297 459.73 440.453 459.511 440.453V439.453ZM458.83 464.125C462.024 458.321 462.533 452.237 462.136 447.613C461.937 445.299 461.51 443.34 461.072 441.949C460.854 441.255 460.629 440.691 460.421 440.29C460.319 440.092 460.212 439.916 460.101 439.782C460.046 439.715 459.978 439.644 459.897 439.586C459.821 439.531 459.691 439.457 459.522 439.453L459.501 440.453C459.387 440.451 459.32 440.403 459.312 440.397C459.3 440.388 459.306 440.389 459.329 440.418C459.376 440.475 459.446 440.581 459.533 440.75C459.705 441.082 459.91 441.588 460.119 442.249C460.534 443.568 460.947 445.455 461.139 447.698C461.525 452.188 461.027 458.059 457.954 463.642L458.83 464.125ZM436.571 478.253C443.678 478.253 449.17 474.848 452.905 471.403C456.64 467.959 458.657 464.442 458.831 464.124L457.954 463.643C457.811 463.904 455.855 467.322 452.227 470.667C448.601 474.012 443.34 477.253 436.571 477.253V478.253ZM411.307 454.573C412.787 466.804 423.596 478.214 436.57 478.253L436.573 477.253C424.181 477.216 413.729 466.264 412.3 454.453L411.307 454.573Z" fill="#EF3C4F"/>
<path fill-rule="evenodd" clip-rule="evenodd" d="M306.484 478.051C307.939 478.126 308.89 480.777 308.89 480.963C309.151 481.991 309.18 483.064 308.973 484.104C308.767 485.144 308.33 486.124 307.696 486.974C305.832 488.826 303.611 490.281 301.169 491.248C292.44 494.627 284.029 490.166 282.164 489.027C279.037 487.163 276.347 484.649 274.275 481.654C264.465 468.084 255.568 446.076 253.032 439.636L226.809 439.804L211.385 472.563C211.251 473.009 211.027 473.422 210.728 473.777C210.428 474.133 210.06 474.424 209.644 474.632C209.229 474.84 208.775 474.96 208.311 474.987C207.847 475.013 207.383 474.944 206.946 474.785C206.412 474.298 206.054 473.646 205.929 472.933C205.804 472.221 205.919 471.486 206.256 470.846L242.923 395.901H254.748C260.529 409.677 279.478 454.476 290.557 472.731C290.557 472.731 297.737 484.566 301.859 483.203C302.979 482.833 303.667 481.538 304.304 480.339C304.951 479.122 305.545 478.004 306.484 478.051ZM228.357 436.201L240.517 412.719L251.484 436.201H228.357Z" fill="#EF3E4F"/>
<defs>
<clipPath id="clip0_43_16903">
<rect width="355.444" height="425.849" fill="white" transform="translate(45.2751)"/>
</clipPath>
</defs>
</svg>
