<svg width="78" height="68" viewBox="0 0 78 68" fill="none" xmlns="http://www.w3.org/2000/svg">
<path d="M38.7762 16.7897C38.4985 15.7945 35.5098 6.03861 25.9719 2.74313C21.3642 1.15439 16.3202 1.40573 11.8937 3.44465C9.53746 4.6748 7.45467 6.36836 5.77065 8.42344C4.08663 10.4785 2.83617 12.8526 2.0945 15.403C-1.90684 27.2634 6.71646 37.9493 7.48406 38.8302C12.4235 44.0743 17.8359 48.8528 23.6527 53.1052C28.0041 56.2762 28.9238 57.1773 33.6644 59.7314L38.564 62.1786H40.1972L41.8303 61.3628C46.4988 58.8016 50.2544 56.4813 54.5366 53.3173C59.6022 49.5821 64.3642 45.4526 68.7781 40.9674C70.199 39.5154 77.9893 31.3094 76.9441 19.7589C76.7154 17.1812 76.0948 10.1987 70.2153 5.27184C63.1599 -0.731802 54.2426 1.29116 53.4913 1.47062C49.8685 2.43151 46.5799 4.36864 43.9847 7.07032C41.3895 9.772 39.5877 13.1343 38.7762 16.7897Z" fill="#EF3A4E" stroke="#EF3C4F" stroke-miterlimit="10"/>
<path d="M60.4577 35.6649C65.2834 35.6649 69.1954 30.2745 69.1954 23.625C69.1954 16.9755 65.2834 11.5851 60.4577 11.5851C55.6321 11.5851 51.7201 16.9755 51.7201 23.625C51.7201 30.2745 55.6321 35.6649 60.4577 35.6649Z" fill="#F0567A" stroke="#F0567B" stroke-miterlimit="10"/>
</svg>
