<svg xmlns="http://www.w3.org/2000/svg" viewBox="0 0 256.81 60.71"><defs><style>.cls-1{fill:#ef3a4e;}.cls-2,.cls-3{fill:#ef3e4f;}.cls-2,.cls-4{stroke:#ef3c4f;}.cls-2,.cls-4,.cls-5{stroke-miterlimit:10;}.cls-4{fill:none;}.cls-5,.cls-6{fill:#fff;}.cls-5{stroke:#fff;}</style></defs><g id="Layer_2" data-name="Layer 2"><g id="Layer_3" data-name="Layer 3"><polygon class="cls-1" points="42.99 0 0 0 0 60.71 43.76 60.71 43.76 58.05 13.07 58.05 13.07 26.15 33.57 26.15 33.57 22.6 12.85 22.6 12.85 2.88 42.99 2.88 42.99 0"/><path class="cls-1" d="M40.88,7,69.69,38c1.66-14.66,1.68-25.53,0-27.47A5,5,0,0,0,67.46,9c-1.74-.43-3.19.69-3.53.24S64.29,7.71,65.08,7c2.12-1.84,5.55-.85,6.28-.63a8.89,8.89,0,0,1,2.64,2,10,10,0,0,1,1.67,2.75c.92,2.36,1,21.12,0,46.86L45.53,26.7c-.22,6.19-.24,11.13-.22,14.37,0,7.7.34,11.64-2.11,13.19a5,5,0,0,1-4.53.15c-2.66-1.2-3.56-4.7-3.11-5s2.17,2.9,3.58,2.58c2.31-.52,1.9-10,1.73-21.51C40.78,24.63,40.73,16.61,40.88,7Z"/><path class="cls-1" d="M111.1,53.66a10.65,10.65,0,0,1-4.93.4A17.21,17.21,0,0,1,95.5,49.2a16.15,16.15,0,0,1-3.38-5.34,24.39,24.39,0,0,1,2.5-23,15.51,15.51,0,0,1,3.58-3.64c3.08-2.23,8.47-4.31,11.48-2A4.87,4.87,0,0,1,111.17,17a3.42,3.42,0,0,0-1.8,6.2,4.66,4.66,0,0,0,5.38.56A4.86,4.86,0,0,0,116.9,20a7.82,7.82,0,0,0-4.45-7.31,22.66,22.66,0,0,0-18.84,0,24.19,24.19,0,0,0-11.29,11.2c-4.54,9.81-1.44,22.63,7.45,29.34,9.23,7,20.31,4,21,3.83a22.79,22.79,0,0,0,6.37-2.92,2.16,2.16,0,0,0,1-1.6,1.88,1.88,0,0,0-.95-1.63C115.81,50.28,114.23,52.6,111.1,53.66Z"/><path class="cls-1" d="M184.8,15.15h5.54V51.76h-7L161.86,26.3,161.57,48c0,.25.07,1.18-.49,1.58a1.58,1.58,0,0,1-1.38.07c-2.06-.66-1.48-11.74-1.29-18.7.35-12.84-.4-20.09,1.94-20.7a2,2,0,0,1,1.58.42l21.86,26.68a.62.62,0,1,0,1.23,0Q184.9,26.27,184.8,15.15Z"/><path class="cls-1" d="M208.8,57.24h-9.52V11.33H184.14a3.6,3.6,0,0,1-2.81-4.06,3.56,3.56,0,0,1,3.31-2.81,2,2,0,0,0-.41,1.65C185,8.54,193.44,7.58,203,7.27c5-.16,11.77-.19,19.93.35a6.14,6.14,0,0,1,3.4,3.62c.84,2.95-1.39,6-3.81,7.12a6.39,6.39,0,0,1-2.73.58,4.18,4.18,0,0,1-2.48-.5c-1.42-.82-2-2.46-1.82-2.65s1.09,1.13,2.65,1.24a3.39,3.39,0,0,0,1.82-.41,3.58,3.58,0,0,0,1.65-2.15,3.67,3.67,0,0,0-.74-3.14H209Z"/><path class="cls-2" d="M235.59,18c-10.5.43-19.69,9.38-19.35,20.48s9.95,19.33,20,19.28c12.32-.06,22.17-12.56,19.66-24.3C254,24.48,245.21,17.63,235.59,18Z"/><path class="cls-3" d="M165.62,53.19c0-.1-.51-1.52-1.29-1.56-1-.05-1.27,2.36-2.48,2.76-2.21.73-6.06-5.61-6.06-5.61C149.85,39,139.69,15,136.59,7.62h-6.34L110.59,47.77a1.75,1.75,0,0,0,.37,2.11,1.83,1.83,0,0,0,2.38-1.19l8.27-17.55,14.06-.09c1.36,3.45,6.13,15.24,11.39,22.51a13.63,13.63,0,0,0,4.23,3.95c1,.61,5.51,3,10.19,1.19a10.4,10.4,0,0,0,3.5-2.29A3.81,3.81,0,0,0,165.62,53.19Z"/><path class="cls-4" d="M165.62,53.19c0-.1-.51-1.52-1.29-1.56-1-.05-1.27,2.36-2.48,2.76-2.21.73-6.06-5.61-6.06-5.61C149.85,39,139.69,15,136.59,7.62h-6.34L110.59,47.77a1.75,1.75,0,0,0,.37,2.11,1.83,1.83,0,0,0,2.38-1.19l8.27-17.55,14.06-.09c1.36,3.45,6.13,15.24,11.39,22.51a13.63,13.63,0,0,0,4.23,3.95c1,.61,5.51,3,10.19,1.19a10.4,10.4,0,0,0,3.5-2.29A3.81,3.81,0,0,0,165.62,53.19Z"/><path class="cls-5" d="M234,22.89c-6.34.23-14.23,7.57-13.2,16.13.78,6.44,6.48,12.43,13.28,12.45,7.44,0,11.53-7.12,11.7-7.43,3.36-6.1,1.08-12.81.6-12.82-.31,0,0,2.71-2,5a5.66,5.66,0,0,1-3.76,2.18c-3.33.15-5.72-4-5.4-4.43s2,1.79,4.58,1.5a4.68,4.68,0,0,0,3.45-2.1c1.51-2.57-.64-6.52-3.08-8.47A9.72,9.72,0,0,0,234,22.89Z"/><polygon class="cls-6" points="128.96 16.63 122.44 29.21 134.84 29.21 128.96 16.63"/></g></g></svg>