<svg width="73" height="59" viewBox="0 0 73 59" fill="none" xmlns="http://www.w3.org/2000/svg">
<path d="M53.05 12.16C53.738 11.6753 54.2503 10.9805 54.5099 10.1799C54.7696 9.37939 54.7626 8.51621 54.49 7.71997C55.4506 7.57991 56.4311 7.73693 57.3 8.16997C57.8791 8.47622 58.3914 8.89484 58.807 9.40136C59.2225 9.90787 59.5329 10.4921 59.72 11.12C59.2276 11.2252 58.7633 11.434 58.3578 11.7325C57.9523 12.031 57.6149 12.4123 57.3681 12.8511C57.1212 13.2899 56.9706 13.7762 56.9261 14.2778C56.8816 14.7793 56.9443 15.2845 57.11 15.76C56.7531 14.7542 56.1186 13.8701 55.28 13.21C54.6208 12.7037 53.8602 12.3456 53.05 12.16V12.16Z" fill="#EF3A4E" stroke="#EF3C4F" stroke-miterlimit="10"/>
<path d="M17 18.84C16.5558 18.0383 15.8497 17.4134 15 17.07C14.2772 16.7787 13.4864 16.6989 12.72 16.84C12.7138 15.8699 12.9957 14.9197 13.53 14.11C14.3016 13.0443 15.4621 12.3257 16.76 12.11C16.8061 12.611 16.9572 13.0966 17.2036 13.5353C17.4499 13.9739 17.786 14.3557 18.1898 14.6558C18.5937 14.9558 19.0562 15.1674 19.5473 15.2766C20.0384 15.3859 20.547 15.3905 21.04 15.29C20.1205 15.4899 19.2671 15.9208 18.5603 16.5419C17.8535 17.163 17.3165 17.9539 17 18.84V18.84Z" fill="#EF3A4E" stroke="#EF3C4F" stroke-miterlimit="10"/>
<path d="M39.84 27.53C40.2102 27.3817 40.5302 27.1306 40.7624 26.8063C40.9945 26.4821 41.129 26.0982 41.15 25.7C41.1562 25.1939 40.9704 24.7044 40.63 24.33C41.3393 24.8978 42.1659 25.3008 43.05 25.51C44.2945 25.7843 45.5932 25.669 46.77 25.18C46.1941 25.746 45.8065 26.4758 45.66 27.27C45.5318 27.9717 45.601 28.6953 45.86 29.36C45.0775 28.5998 44.1249 28.0373 43.0814 27.719C42.0379 27.4007 40.9336 27.3359 39.86 27.53H39.84Z" fill="#EF3A4E" stroke="#EF3C4F" stroke-miterlimit="10"/>
<path d="M18.52 36.23L24.14 41.23C24.0524 40.2054 24.2829 39.1788 24.8 38.29C25.1978 37.6632 25.7246 37.1286 26.3454 36.7216C26.9662 36.3146 27.6666 36.0448 28.4 35.93C27.3559 35.419 26.4554 34.656 25.78 33.71C24.7866 32.2901 24.323 30.5666 24.47 28.84C24.3079 30.6959 23.5502 32.4498 22.31 33.84C21.2816 34.9594 19.9733 35.7844 18.52 36.23V36.23Z" fill="#EF3A4E" stroke="#EF3C4F" stroke-miterlimit="10"/>
<path d="M30.16 11.9C30.6578 12.8466 31.2726 13.7268 31.99 14.52C32.7947 15.4171 33.7202 16.1979 34.74 16.84C34.1434 16.8849 33.5627 17.0529 33.0343 17.3335C32.5059 17.614 32.0414 18.001 31.67 18.47C31.0431 19.2933 30.7407 20.3183 30.82 21.35L27.48 19C28.59 18.83 29.91 18.46 30.23 17.56C30.3295 17.1891 30.3049 16.7957 30.16 16.44C29.7693 14.9519 29.7693 13.3881 30.16 11.9V11.9Z" fill="#EF3A4E" stroke="#EF3C4F" stroke-miterlimit="10"/>
<path d="M49.06 33.42C49.2004 33.8928 49.4724 34.316 49.8443 34.64C50.2161 34.964 50.6724 35.1756 51.16 35.25C51.5969 35.298 52.0389 35.2393 52.4482 35.0791C52.8574 34.9189 53.2218 34.6618 53.51 34.33C52.7624 34.8421 52.2286 35.6107 52.01 36.49C51.8043 37.3813 51.9437 38.3173 52.4 39.11C51.3168 40.6187 49.9348 41.8883 48.34 42.84L46.18 39.84C47.4208 39.2005 48.3899 38.1355 48.91 36.84C49.3067 35.7418 49.359 34.5488 49.06 33.42Z" fill="#EF3A4E" stroke="#EF3C4F" stroke-miterlimit="10"/>
<path d="M21.77 29.0199C21.702 28.7013 21.5571 28.4041 21.348 28.1542C21.139 27.9043 20.872 27.7093 20.5704 27.5861C20.2688 27.4629 19.9416 27.4152 19.6174 27.4473C19.2932 27.4793 18.9817 27.5901 18.71 27.7699C19.3814 27.1574 19.9017 26.3975 20.23 25.5499C20.6826 24.3583 20.7594 23.0566 20.45 21.8199C20.9271 22.4724 21.5942 22.9613 22.36 23.2199C23.0331 23.4489 23.7565 23.487 24.45 23.3299C23.5819 23.9959 22.8857 24.8599 22.4195 25.8497C21.9533 26.8395 21.7306 27.9265 21.77 29.0199V29.0199Z" fill="#EF3A4E" stroke="#EF3C4F" stroke-miterlimit="10"/>
<path d="M35.05 35.84C35.4002 36.0281 35.7966 36.1129 36.1932 36.0846C36.5897 36.0563 36.9701 35.916 37.29 35.68C37.6874 35.3618 37.9484 34.904 38.02 34.4C38.0317 35.3106 38.2506 36.2066 38.66 37.02C39.236 38.1572 40.1517 39.0868 41.28 39.68C40.4756 39.5956 39.6648 39.7633 38.96 40.16C38.3398 40.5076 37.8276 41.0198 37.48 41.64C37.5574 40.7024 37.4381 39.7589 37.13 38.87C36.7189 37.6928 36.0008 36.6467 35.05 35.84Z" fill="#EF3A4E" stroke="#EF3C4F" stroke-miterlimit="10"/>
<path d="M43.22 16.36L50.89 1.75L46.19 16.6L43.22 16.36Z" fill="#EF3A4E" stroke="#EF3C4F" stroke-miterlimit="10"/>
<path d="M56.32 24.33L69.4 26.94L55.54 29.23L56.32 24.33Z" fill="#EF3A4E" stroke="#EF3C4F" stroke-miterlimit="10"/>
<path d="M15.71 24.72L4 32.05L15.64 28.84L15.71 24.72Z" fill="#EF3A4E" stroke="#EF3C4F" stroke-miterlimit="10"/>
<path d="M21.79 1L24.08 13.82L25.45 11.92L21.79 1Z" fill="#EF3A4E" stroke="#EF3C4F" stroke-miterlimit="10"/>
<path d="M32.37 46.08L25.76 55.17L29.68 44.51L32.37 46.08Z" fill="#EF3A4E" stroke="#EF3C4F" stroke-miterlimit="10"/>
</svg>
