<svg width="204" height="406" viewBox="0 0 204 406" fill="none" xmlns="http://www.w3.org/2000/svg">
<path d="M101.298 42.9678C100.56 40.3227 92.6164 14.392 67.2657 5.63282C55.0191 1.41004 41.6125 2.07809 29.8474 7.49741C23.5847 10.7671 18.0489 15.2685 13.5729 20.7308C9.09698 26.1931 5.7734 32.5033 3.80213 39.282C-6.83302 70.8064 16.0868 99.2088 18.127 101.55C31.2556 115.489 45.6412 128.19 61.1017 139.492C72.667 147.921 84.7914 155.556 97.3914 162.344L92.356 178.562L113.019 179.082L107.462 162.908C119.871 156.1 131.806 148.466 143.188 140.056C156.652 130.128 169.308 119.152 181.04 107.231C184.817 103.372 205.523 81.5603 202.744 50.8597C202.137 44.0085 200.487 25.4494 184.86 12.354C166.107 -3.60336 142.406 1.77358 140.409 2.25056C130.78 4.80456 122.04 9.95334 115.142 17.1343C108.244 24.3152 103.455 33.2519 101.298 42.9678Z" fill="#EF3A4E" stroke="#EF3C4F" stroke-miterlimit="10"/>
<path d="M159.032 93.1381C171.858 93.1381 182.256 78.8105 182.256 61.1366C182.256 43.4628 171.858 29.1352 159.032 29.1352C146.206 29.1352 135.808 43.4628 135.808 61.1366C135.808 78.8105 146.206 93.1381 159.032 93.1381Z" fill="#F0567A" stroke="#F0567B" stroke-miterlimit="10"/>
<path d="M111.022 163.602L93.4413 162.431C88.6889 173.846 85.8299 185.958 84.9766 198.292C81.8946 244.299 109.98 267.888 118.141 307.955C122.482 328.552 122.482 360.597 99.5619 405" stroke="black" stroke-miterlimit="10"/>
</svg>
