<svg xmlns="http://www.w3.org/2000/svg" viewBox="0 0 409.16 443.85"><defs><style>.cls-1,.cls-2{fill:none;stroke:#000;}.cls-1,.cls-2,.cls-3,.cls-4{stroke-miterlimit:10;}.cls-1{stroke-width:2px;}.cls-3,.cls-5{fill:#ef3a4e;}.cls-3{stroke:#ef3c4f;}.cls-4,.cls-6{fill:#f0567a;}.cls-4{stroke:#f0567b;}</style></defs><g id="Layer_2" data-name="Layer 2"><g id="Layer_12" data-name="Layer 12"><line class="cls-1" x1="213.01" y1="255.42" x2="210.28" y2="305"/><polyline class="cls-1" points="263.27 255.52 379.76 344.74 396.13 380.59 386 420.33 224.7 422.28 358.72 370.85"/><polyline class="cls-1" points="313.53 333.06 318.98 363.83 334.96 378.64"/><polyline class="cls-1" points="318.98 363.83 297.56 379.03 299.37 388.51"/><polyline class="cls-1" points="299.11 324.87 281.58 345.52 284.7 370.46 271.83 382.73"/><polyline class="cls-1" points="257.04 308.51 263.66 334.61 239.5 357.21"/><polyline class="cls-1" points="237.55 293.7 207.94 319.81 214.18 349.42"/><line class="cls-1" x1="286.26" y1="353.31" x2="255.48" y2="342.02"/><polyline class="cls-1" points="211.84 283.57 186.9 299.55 192.36 328.77"/><line class="cls-1" x1="216.07" y1="352.47" x2="203.83" y2="363.69"/><line class="cls-1" x1="219.81" y1="356.89" x2="213.69" y2="368.79"/><line class="cls-1" x1="227.63" y1="358.59" x2="226.61" y2="370.83"/><line class="cls-1" x1="234.77" y1="358.59" x2="238.17" y2="373.21"/><line class="cls-1" x1="192.61" y1="331.73" x2="181.05" y2="340.57"/><line class="cls-1" x1="197.71" y1="333.09" x2="192.27" y2="347.03"/><line class="cls-1" x1="203.49" y1="332.41" x2="205.53" y2="346.35"/><line class="cls-1" x1="290.53" y1="375.25" x2="281.01" y2="385.11"/><line class="cls-1" x1="294.27" y1="380.01" x2="289.85" y2="390.89"/><path class="cls-2" d="M280.35,261.49q32,4.29,32,8.29,0,2.81-15.91,5.47"/><path class="cls-2" d="M305.21,282.37A58.23,58.23,0,0,1,326.75,285c7.54,2.44,17.91,7.57,17.23,10.61-.23,1.06-2.1,3.1-16.57,2.82"/><path class="cls-2" d="M336.53,306.4a39.39,39.39,0,0,1,17.9.33c5.86,1.53,12.29,4.75,11.93,6.47-.17.78-1.67.92-8.62,2.15-3.54.63-6.39,1.16-8.12,1.49"/><path class="cls-2" d="M360.72,324.63c12.41-.63,19.58,3.43,22.87,5.8,2.41,1.73,7.17,5.73,6.3,7.62-1.08,2.34-10.15.23-12.43-.33"/><path class="cls-2" d="M387,350.4a29,29,0,0,1,11.28,5.81c8.26,7,12.15,18.83,9.58,20.87-1.15.91-4.14.3-12-5.82"/><path class="cls-2" d="M400.18,383.74a25.7,25.7,0,0,1,6.33,10.78c2,6.93.93,15.16-1.2,15.56-.7.13-3-.33-8-14.54"/><path class="cls-2" d="M394.82,408A16.77,16.77,0,0,1,399,418.42c.14,7.75-6,14.7-8,14-.83-.3-1.57-2.17-.4-10.19"/><path class="cls-2" d="M380.56,424.78a10,10,0,0,1-.4,6.39c-3.48,7.82-17.91,6.94-18.32,5.44-.33-1.17,7.86-2.83,8.93-8.37a7.19,7.19,0,0,0-.33-3.73"/><path class="cls-2" d="M359.14,426.11a24.3,24.3,0,0,1-3.73,6c-5.37,6.31-13.19,8.75-13.92,7.69-.61-.9,4.43-3.67,5.43-9.73a13.2,13.2,0,0,0-.11-4.86"/><path class="cls-2" d="M336.43,427.31a19.35,19.35,0,0,1-2.74,6.3c-6.36,9.45-19.87,10.71-20.53,9.21-.49-1.1,6.12-3.17,9.37-10.5a19.71,19.71,0,0,0,1.62-6.63"/><path class="cls-2" d="M313.13,424.85a17.71,17.71,0,0,1-4.37,9.7c-6.66,7.18-18.36,6.06-18.68,4.76-.35-1.46,13.35-4.27,13.19-8.65-.09-2.2-3.61-3.85-6.31-4.84"/><path class="cls-2" d="M287,425.87c0,1.47-.25,7.17-4.52,11-6.95,6.22-18.54,2-18.57.72s11.42-1.53,12.38-6a4.85,4.85,0,0,0-.44-3,5.66,5.66,0,0,0-3.56-2.75"/><path class="cls-2" d="M257,426.93c1.05.78,2.41,2,2.31,3.46-.38,5.65-23.22,8.83-23.66,7.34-.36-1.23,14.75-5.57,14.15-8.92-.21-1.18-2.27-1.81-4-2.16"/><path class="cls-2" d="M231.41,426a4.3,4.3,0,0,1,1.56,3c0,1.63-1.39,2.77-2,3.31-5.17,4.3-21.8,3.55-21.79,2.68,0-.68,10.13.57,12.28-4.11a6,6,0,0,0-.17-4.64"/><path class="cls-1" d="M160.39,168.77a155.88,155.88,0,0,1,48.86-16.61,153.63,153.63,0,0,1,24.91-1.95"/><line class="cls-1" x1="185.79" y1="249.39" x2="255.66" y2="238.15"/><line class="cls-1" x1="268.36" y1="218.12" x2="242.47" y2="158.03"/><path class="cls-1" d="M176,243.53c-18-46.6-20.4-58.27-18.56-59.12,2.31-1.08,9.33,15.85,27.36,28.82,13.05,9.39,26.83,13.07,37.13,14.66"/><path class="cls-1" d="M235.19,203.37c8.11,3.81,12.09,9.3,11,12.07-1,2.35-5.78,3.24-11.16,2.64"/><path class="cls-1" d="M218.1,189a25.6,25.6,0,0,0-7.14-8.49c-9.87-7.45-21.89-4.73-23.89-4.24"/><path class="cls-2" d="M234.43,149c.91-2.37,4.44-10.75,13.47-15.13,7.32-3.55,17.43-4,18.64-1.1.93,2.27-3.08,7.49-23.44,20.11"/><path class="cls-2" d="M258,180.36a49,49,0,0,1,18.74,10.41c9.61,8.68,16.14,21.95,13.41,24.52-1.43,1.34-6.08.4-20.58-10.18"/><path class="cls-2" d="M247.38,156.77a46,46,0,0,1,20.81,4.86c6.41,3.26,15.29,9.78,14.11,13-.77,2-6,3.39-26.37-.23"/><path class="cls-2" d="M273.28,213.2q19.16,26.4,15.49,30.07-1.61,1.62-7.63-1.16"/><path class="cls-2" d="M174.32,99.91a26.55,26.55,0,0,1-1.43,16.16,27.1,27.1,0,0,1-14.31,14"/><path class="cls-2" d="M185.06,108A36.05,36.05,0,0,1,164,140.29"/><path class="cls-2" d="M14.06,67.07a26.47,26.47,0,0,1-2.8-16,27.12,27.12,0,0,1,10.2-17.21"/><path class="cls-2" d="M1.6,62.05a36,36,0,0,1,12-36.66"/><circle class="cls-3" cx="99.43" cy="68.12" r="35.97"/><ellipse class="cls-4" cx="114.89" cy="66.87" rx="10.59" ry="16.71"/><polygon class="cls-5" points="99.43 0 99.43 28.08 89.2 28.08 99.43 0"/><polygon class="cls-6" points="99.43 0 99.43 28.08 109.67 28.08 99.43 0"/><polygon class="cls-5" points="97.08 136.23 97.08 108.15 107.31 108.15 97.08 136.23"/><polygon class="cls-6" points="97.08 136.23 97.08 108.15 86.84 108.15 97.08 136.23"/><polygon class="cls-5" points="31.32 65.69 59.4 65.69 59.4 75.93 31.32 65.69"/><polygon class="cls-6" points="31.32 65.69 59.4 65.69 59.4 55.46 31.32 65.69"/><polygon class="cls-5" points="167.55 68.05 139.47 68.05 139.47 57.82 167.55 68.05"/><polygon class="cls-6" points="167.55 68.05 139.47 68.05 139.47 78.28 167.55 68.05"/><polygon class="cls-5" points="52.15 19.14 72 38.99 64.77 46.23 52.15 19.14"/><polygon class="cls-6" points="52.15 19.14 72 38.99 79.24 31.76 52.15 19.14"/><polygon class="cls-5" points="146.81 117.14 126.96 97.28 134.19 90.05 146.81 117.14"/><polygon class="cls-6" points="146.81 117.14 126.96 97.28 119.72 104.52 146.81 117.14"/><polygon class="cls-5" points="50.44 113.76 70.29 93.91 77.53 101.14 50.44 113.76"/><polygon class="cls-6" points="50.44 113.76 70.29 93.91 63.05 86.67 50.44 113.76"/><polygon class="cls-5" points="148.43 19.09 128.58 38.95 121.34 31.71 148.43 19.09"/><polygon class="cls-6" points="148.43 19.09 128.58 38.95 135.81 46.18 148.43 19.09"/><path class="cls-2" d="M103.09,121.61l-10.54-.71a68.42,68.42,0,0,0-5.09,21.55c-1.83,27.62,15,41.77,19.89,65.81,2.51,12.38,2.72,31.59-11.13,58.24"/><path class="cls-3" d="M351.42,114a6,6,0,0,0-3.54-3.9,5.3,5.3,0,0,0-3.9.18,5.49,5.49,0,0,0-2.74,3.31c-1.08,3.31,1.31,6.27,1.52,6.52a32.28,32.28,0,0,0,4.48,4,31.65,31.65,0,0,0,3.78,2.39l-.53,1.69,2.16.05-.59-1.68a33.3,33.3,0,0,0,7.68-5.82,7.79,7.79,0,0,0,2.27-5.87,5.66,5.66,0,0,0-1.86-4,5.57,5.57,0,0,0-4.65-1A5.68,5.68,0,0,0,351.42,114Z"/><ellipse class="cls-4" cx="357.44" cy="115.92" rx="2.42" ry="3.34"/><path class="cls-2" d="M352.44,126.62l-1.83-.12a11.66,11.66,0,0,0-.89,3.74c-.32,4.8,2.61,7.26,3.46,11.44.43,2.15.47,5.49-1.94,10.12"/></g></g></svg>